%TF.GenerationSoftware,KiCad,Pcbnew,6.0.8-f2edbf62ab~116~ubuntu22.04.1*%
%TF.CreationDate,2022-10-26T10:35:28+11:00*%
%TF.ProjectId,banach,62616e61-6368-42e6-9b69-6361645f7063,rev1.0*%
%TF.SameCoordinates,Original*%
%TF.FileFunction,Legend,Top*%
%TF.FilePolarity,Positive*%
%FSLAX46Y46*%
G04 Gerber Fmt 4.6, Leading zero omitted, Abs format (unit mm)*
G04 Created by KiCad (PCBNEW 6.0.8-f2edbf62ab~116~ubuntu22.04.1) date 2022-10-26 10:35:28*
%MOMM*%
%LPD*%
G01*
G04 APERTURE LIST*
G04 Aperture macros list*
%AMRotRect*
0 Rectangle, with rotation*
0 The origin of the aperture is its center*
0 $1 length*
0 $2 width*
0 $3 Rotation angle, in degrees counterclockwise*
0 Add horizontal line*
21,1,$1,$2,0,0,$3*%
G04 Aperture macros list end*
%ADD10C,0.300000*%
%ADD11C,0.150000*%
%ADD12C,0.125000*%
%ADD13C,0.120000*%
%ADD14R,1.397000X1.397000*%
%ADD15C,1.397000*%
%ADD16RotRect,1.397000X1.397000X185.000000*%
%ADD17RotRect,1.397000X1.397000X175.000000*%
%ADD18RotRect,1.397000X1.397000X245.000000*%
%ADD19C,1.200000*%
%ADD20O,2.500000X1.700000*%
%ADD21C,1.524000*%
%ADD22C,2.000000*%
G04 APERTURE END LIST*
D10*
X102438714Y-108497714D02*
X102867285Y-108640571D01*
X103010142Y-108783428D01*
X103153000Y-109069142D01*
X103153000Y-109497714D01*
X103010142Y-109783428D01*
X102867285Y-109926285D01*
X102581571Y-110069142D01*
X101438714Y-110069142D01*
X101438714Y-107069142D01*
X102438714Y-107069142D01*
X102724428Y-107212000D01*
X102867285Y-107354857D01*
X103010142Y-107640571D01*
X103010142Y-107926285D01*
X102867285Y-108212000D01*
X102724428Y-108354857D01*
X102438714Y-108497714D01*
X101438714Y-108497714D01*
X105724428Y-110069142D02*
X105724428Y-108497714D01*
X105581571Y-108212000D01*
X105295857Y-108069142D01*
X104724428Y-108069142D01*
X104438714Y-108212000D01*
X105724428Y-109926285D02*
X105438714Y-110069142D01*
X104724428Y-110069142D01*
X104438714Y-109926285D01*
X104295857Y-109640571D01*
X104295857Y-109354857D01*
X104438714Y-109069142D01*
X104724428Y-108926285D01*
X105438714Y-108926285D01*
X105724428Y-108783428D01*
X107153000Y-108069142D02*
X107153000Y-110069142D01*
X107153000Y-108354857D02*
X107295857Y-108212000D01*
X107581571Y-108069142D01*
X108010142Y-108069142D01*
X108295857Y-108212000D01*
X108438714Y-108497714D01*
X108438714Y-110069142D01*
X111153000Y-110069142D02*
X111153000Y-108497714D01*
X111010142Y-108212000D01*
X110724428Y-108069142D01*
X110153000Y-108069142D01*
X109867285Y-108212000D01*
X111153000Y-109926285D02*
X110867285Y-110069142D01*
X110153000Y-110069142D01*
X109867285Y-109926285D01*
X109724428Y-109640571D01*
X109724428Y-109354857D01*
X109867285Y-109069142D01*
X110153000Y-108926285D01*
X110867285Y-108926285D01*
X111153000Y-108783428D01*
X113867285Y-109926285D02*
X113581571Y-110069142D01*
X113010142Y-110069142D01*
X112724428Y-109926285D01*
X112581571Y-109783428D01*
X112438714Y-109497714D01*
X112438714Y-108640571D01*
X112581571Y-108354857D01*
X112724428Y-108212000D01*
X113010142Y-108069142D01*
X113581571Y-108069142D01*
X113867285Y-108212000D01*
X115153000Y-110069142D02*
X115153000Y-107069142D01*
X116438714Y-110069142D02*
X116438714Y-108497714D01*
X116295857Y-108212000D01*
X116010142Y-108069142D01*
X115581571Y-108069142D01*
X115295857Y-108212000D01*
X115153000Y-108354857D01*
D11*
%TO.C,J1*%
X184864980Y-101581904D02*
X184864980Y-101010476D01*
X185864980Y-101296190D02*
X184864980Y-101296190D01*
X185864980Y-100105714D02*
X185388790Y-100439047D01*
X185864980Y-100677142D02*
X184864980Y-100677142D01*
X184864980Y-100296190D01*
X184912600Y-100200952D01*
X184960219Y-100153333D01*
X185055457Y-100105714D01*
X185198314Y-100105714D01*
X185293552Y-100153333D01*
X185341171Y-100200952D01*
X185388790Y-100296190D01*
X185388790Y-100677142D01*
X185864980Y-99105714D02*
X185388790Y-99439047D01*
X185864980Y-99677142D02*
X184864980Y-99677142D01*
X184864980Y-99296190D01*
X184912600Y-99200952D01*
X184960219Y-99153333D01*
X185055457Y-99105714D01*
X185198314Y-99105714D01*
X185293552Y-99153333D01*
X185341171Y-99200952D01*
X185388790Y-99296190D01*
X185388790Y-99677142D01*
X185817361Y-98724761D02*
X185864980Y-98581904D01*
X185864980Y-98343809D01*
X185817361Y-98248571D01*
X185769742Y-98200952D01*
X185674504Y-98153333D01*
X185579266Y-98153333D01*
X185484028Y-98200952D01*
X185436409Y-98248571D01*
X185388790Y-98343809D01*
X185341171Y-98534285D01*
X185293552Y-98629523D01*
X185245933Y-98677142D01*
X185150695Y-98724761D01*
X185055457Y-98724761D01*
X184960219Y-98677142D01*
X184912600Y-98629523D01*
X184864980Y-98534285D01*
X184864980Y-98296190D01*
X184912600Y-98153333D01*
D12*
%TO.C,U1*%
X170170690Y-59932185D02*
X170004023Y-59575042D01*
X169884976Y-59932185D02*
X169884976Y-59182185D01*
X170075452Y-59182185D01*
X170123071Y-59217900D01*
X170146880Y-59253614D01*
X170170690Y-59325042D01*
X170170690Y-59432185D01*
X170146880Y-59503614D01*
X170123071Y-59539328D01*
X170075452Y-59575042D01*
X169884976Y-59575042D01*
X170361166Y-59896471D02*
X170432595Y-59932185D01*
X170551642Y-59932185D01*
X170599261Y-59896471D01*
X170623071Y-59860757D01*
X170646880Y-59789328D01*
X170646880Y-59717900D01*
X170623071Y-59646471D01*
X170599261Y-59610757D01*
X170551642Y-59575042D01*
X170456404Y-59539328D01*
X170408785Y-59503614D01*
X170384976Y-59467900D01*
X170361166Y-59396471D01*
X170361166Y-59325042D01*
X170384976Y-59253614D01*
X170408785Y-59217900D01*
X170456404Y-59182185D01*
X170575452Y-59182185D01*
X170646880Y-59217900D01*
X170789738Y-59182185D02*
X171075452Y-59182185D01*
X170932595Y-59932185D02*
X170932595Y-59182185D01*
X184779047Y-72568685D02*
X184612380Y-72211542D01*
X184493333Y-72568685D02*
X184493333Y-71818685D01*
X184683809Y-71818685D01*
X184731428Y-71854400D01*
X184755238Y-71890114D01*
X184779047Y-71961542D01*
X184779047Y-72068685D01*
X184755238Y-72140114D01*
X184731428Y-72175828D01*
X184683809Y-72211542D01*
X184493333Y-72211542D01*
X185088571Y-71818685D02*
X185183809Y-71818685D01*
X185231428Y-71854400D01*
X185279047Y-71925828D01*
X185302857Y-72068685D01*
X185302857Y-72318685D01*
X185279047Y-72461542D01*
X185231428Y-72532971D01*
X185183809Y-72568685D01*
X185088571Y-72568685D01*
X185040952Y-72532971D01*
X184993333Y-72461542D01*
X184969523Y-72318685D01*
X184969523Y-72068685D01*
X184993333Y-71925828D01*
X185040952Y-71854400D01*
X185088571Y-71818685D01*
X185469523Y-71818685D02*
X185588571Y-72568685D01*
X185683809Y-72032971D01*
X185779047Y-72568685D01*
X185898095Y-71818685D01*
X186350476Y-72568685D02*
X186064761Y-72568685D01*
X186207619Y-72568685D02*
X186207619Y-71818685D01*
X186160000Y-71925828D01*
X186112380Y-71997257D01*
X186064761Y-72032971D01*
X169662380Y-77640757D02*
X169638571Y-77676471D01*
X169567142Y-77712185D01*
X169519523Y-77712185D01*
X169448095Y-77676471D01*
X169400476Y-77605042D01*
X169376666Y-77533614D01*
X169352857Y-77390757D01*
X169352857Y-77283614D01*
X169376666Y-77140757D01*
X169400476Y-77069328D01*
X169448095Y-76997900D01*
X169519523Y-76962185D01*
X169567142Y-76962185D01*
X169638571Y-76997900D01*
X169662380Y-77033614D01*
X169971904Y-76962185D02*
X170067142Y-76962185D01*
X170114761Y-76997900D01*
X170162380Y-77069328D01*
X170186190Y-77212185D01*
X170186190Y-77462185D01*
X170162380Y-77605042D01*
X170114761Y-77676471D01*
X170067142Y-77712185D01*
X169971904Y-77712185D01*
X169924285Y-77676471D01*
X169876666Y-77605042D01*
X169852857Y-77462185D01*
X169852857Y-77212185D01*
X169876666Y-77069328D01*
X169924285Y-76997900D01*
X169971904Y-76962185D01*
X170638571Y-77712185D02*
X170400476Y-77712185D01*
X170400476Y-76962185D01*
X171043333Y-76962185D02*
X170805238Y-76962185D01*
X170781428Y-77319328D01*
X170805238Y-77283614D01*
X170852857Y-77247900D01*
X170971904Y-77247900D01*
X171019523Y-77283614D01*
X171043333Y-77319328D01*
X171067142Y-77390757D01*
X171067142Y-77569328D01*
X171043333Y-77640757D01*
X171019523Y-77676471D01*
X170971904Y-77712185D01*
X170852857Y-77712185D01*
X170805238Y-77676471D01*
X170781428Y-77640757D01*
X184729047Y-77712185D02*
X184562380Y-77355042D01*
X184443333Y-77712185D02*
X184443333Y-76962185D01*
X184633809Y-76962185D01*
X184681428Y-76997900D01*
X184705238Y-77033614D01*
X184729047Y-77105042D01*
X184729047Y-77212185D01*
X184705238Y-77283614D01*
X184681428Y-77319328D01*
X184633809Y-77355042D01*
X184443333Y-77355042D01*
X185038571Y-76962185D02*
X185133809Y-76962185D01*
X185181428Y-76997900D01*
X185229047Y-77069328D01*
X185252857Y-77212185D01*
X185252857Y-77462185D01*
X185229047Y-77605042D01*
X185181428Y-77676471D01*
X185133809Y-77712185D01*
X185038571Y-77712185D01*
X184990952Y-77676471D01*
X184943333Y-77605042D01*
X184919523Y-77462185D01*
X184919523Y-77212185D01*
X184943333Y-77069328D01*
X184990952Y-76997900D01*
X185038571Y-76962185D01*
X185419523Y-76962185D02*
X185538571Y-77712185D01*
X185633809Y-77176471D01*
X185729047Y-77712185D01*
X185848095Y-76962185D01*
X185990952Y-76962185D02*
X186300476Y-76962185D01*
X186133809Y-77247900D01*
X186205238Y-77247900D01*
X186252857Y-77283614D01*
X186276666Y-77319328D01*
X186300476Y-77390757D01*
X186300476Y-77569328D01*
X186276666Y-77640757D01*
X186252857Y-77676471D01*
X186205238Y-77712185D01*
X186062380Y-77712185D01*
X186014761Y-77676471D01*
X185990952Y-77640757D01*
X169662380Y-75045257D02*
X169638571Y-75080971D01*
X169567142Y-75116685D01*
X169519523Y-75116685D01*
X169448095Y-75080971D01*
X169400476Y-75009542D01*
X169376666Y-74938114D01*
X169352857Y-74795257D01*
X169352857Y-74688114D01*
X169376666Y-74545257D01*
X169400476Y-74473828D01*
X169448095Y-74402400D01*
X169519523Y-74366685D01*
X169567142Y-74366685D01*
X169638571Y-74402400D01*
X169662380Y-74438114D01*
X169971904Y-74366685D02*
X170067142Y-74366685D01*
X170114761Y-74402400D01*
X170162380Y-74473828D01*
X170186190Y-74616685D01*
X170186190Y-74866685D01*
X170162380Y-75009542D01*
X170114761Y-75080971D01*
X170067142Y-75116685D01*
X169971904Y-75116685D01*
X169924285Y-75080971D01*
X169876666Y-75009542D01*
X169852857Y-74866685D01*
X169852857Y-74616685D01*
X169876666Y-74473828D01*
X169924285Y-74402400D01*
X169971904Y-74366685D01*
X170638571Y-75116685D02*
X170400476Y-75116685D01*
X170400476Y-74366685D01*
X171019523Y-74616685D02*
X171019523Y-75116685D01*
X170900476Y-74330971D02*
X170781428Y-74866685D01*
X171090952Y-74866685D01*
X185240047Y-61757900D02*
X185192428Y-61722185D01*
X185121000Y-61722185D01*
X185049571Y-61757900D01*
X185001952Y-61829328D01*
X184978142Y-61900757D01*
X184954333Y-62043614D01*
X184954333Y-62150757D01*
X184978142Y-62293614D01*
X185001952Y-62365042D01*
X185049571Y-62436471D01*
X185121000Y-62472185D01*
X185168619Y-62472185D01*
X185240047Y-62436471D01*
X185263857Y-62400757D01*
X185263857Y-62150757D01*
X185168619Y-62150757D01*
X185478142Y-62472185D02*
X185478142Y-61722185D01*
X185763857Y-62472185D01*
X185763857Y-61722185D01*
X186001952Y-62472185D02*
X186001952Y-61722185D01*
X186121000Y-61722185D01*
X186192428Y-61757900D01*
X186240047Y-61829328D01*
X186263857Y-61900757D01*
X186287666Y-62043614D01*
X186287666Y-62150757D01*
X186263857Y-62293614D01*
X186240047Y-62365042D01*
X186192428Y-62436471D01*
X186121000Y-62472185D01*
X186001952Y-62472185D01*
X184760000Y-57316685D02*
X184760000Y-56566685D01*
X184879047Y-56566685D01*
X184950476Y-56602400D01*
X184998095Y-56673828D01*
X185021904Y-56745257D01*
X185045714Y-56888114D01*
X185045714Y-56995257D01*
X185021904Y-57138114D01*
X184998095Y-57209542D01*
X184950476Y-57280971D01*
X184879047Y-57316685D01*
X184760000Y-57316685D01*
X185236190Y-57102400D02*
X185474285Y-57102400D01*
X185188571Y-57316685D02*
X185355238Y-56566685D01*
X185521904Y-57316685D01*
X185617142Y-56566685D02*
X185902857Y-56566685D01*
X185760000Y-57316685D02*
X185760000Y-56566685D01*
X186045714Y-57102400D02*
X186283809Y-57102400D01*
X185998095Y-57316685D02*
X186164761Y-56566685D01*
X186331428Y-57316685D01*
X169712380Y-69957257D02*
X169688571Y-69992971D01*
X169617142Y-70028685D01*
X169569523Y-70028685D01*
X169498095Y-69992971D01*
X169450476Y-69921542D01*
X169426666Y-69850114D01*
X169402857Y-69707257D01*
X169402857Y-69600114D01*
X169426666Y-69457257D01*
X169450476Y-69385828D01*
X169498095Y-69314400D01*
X169569523Y-69278685D01*
X169617142Y-69278685D01*
X169688571Y-69314400D01*
X169712380Y-69350114D01*
X170021904Y-69278685D02*
X170117142Y-69278685D01*
X170164761Y-69314400D01*
X170212380Y-69385828D01*
X170236190Y-69528685D01*
X170236190Y-69778685D01*
X170212380Y-69921542D01*
X170164761Y-69992971D01*
X170117142Y-70028685D01*
X170021904Y-70028685D01*
X169974285Y-69992971D01*
X169926666Y-69921542D01*
X169902857Y-69778685D01*
X169902857Y-69528685D01*
X169926666Y-69385828D01*
X169974285Y-69314400D01*
X170021904Y-69278685D01*
X170688571Y-70028685D02*
X170450476Y-70028685D01*
X170450476Y-69278685D01*
X170831428Y-69350114D02*
X170855238Y-69314400D01*
X170902857Y-69278685D01*
X171021904Y-69278685D01*
X171069523Y-69314400D01*
X171093333Y-69350114D01*
X171117142Y-69421542D01*
X171117142Y-69492971D01*
X171093333Y-69600114D01*
X170807619Y-70028685D01*
X171117142Y-70028685D01*
X169777833Y-61658685D02*
X169944500Y-62408685D01*
X170111166Y-61658685D01*
X170563547Y-62337257D02*
X170539738Y-62372971D01*
X170468309Y-62408685D01*
X170420690Y-62408685D01*
X170349261Y-62372971D01*
X170301642Y-62301542D01*
X170277833Y-62230114D01*
X170254023Y-62087257D01*
X170254023Y-61980114D01*
X170277833Y-61837257D01*
X170301642Y-61765828D01*
X170349261Y-61694400D01*
X170420690Y-61658685D01*
X170468309Y-61658685D01*
X170539738Y-61694400D01*
X170563547Y-61730114D01*
X171063547Y-62337257D02*
X171039738Y-62372971D01*
X170968309Y-62408685D01*
X170920690Y-62408685D01*
X170849261Y-62372971D01*
X170801642Y-62301542D01*
X170777833Y-62230114D01*
X170754023Y-62087257D01*
X170754023Y-61980114D01*
X170777833Y-61837257D01*
X170801642Y-61765828D01*
X170849261Y-61694400D01*
X170920690Y-61658685D01*
X170968309Y-61658685D01*
X171039738Y-61694400D01*
X171063547Y-61730114D01*
X169907619Y-82373828D02*
X169979047Y-82409542D01*
X170002857Y-82445257D01*
X170026666Y-82516685D01*
X170026666Y-82623828D01*
X170002857Y-82695257D01*
X169979047Y-82730971D01*
X169931428Y-82766685D01*
X169740952Y-82766685D01*
X169740952Y-82016685D01*
X169907619Y-82016685D01*
X169955238Y-82052400D01*
X169979047Y-82088114D01*
X170002857Y-82159542D01*
X170002857Y-82230971D01*
X169979047Y-82302400D01*
X169955238Y-82338114D01*
X169907619Y-82373828D01*
X169740952Y-82373828D01*
X170455238Y-82016685D02*
X170360000Y-82016685D01*
X170312380Y-82052400D01*
X170288571Y-82088114D01*
X170240952Y-82195257D01*
X170217142Y-82338114D01*
X170217142Y-82623828D01*
X170240952Y-82695257D01*
X170264761Y-82730971D01*
X170312380Y-82766685D01*
X170407619Y-82766685D01*
X170455238Y-82730971D01*
X170479047Y-82695257D01*
X170502857Y-82623828D01*
X170502857Y-82445257D01*
X170479047Y-82373828D01*
X170455238Y-82338114D01*
X170407619Y-82302400D01*
X170312380Y-82302400D01*
X170264761Y-82338114D01*
X170240952Y-82373828D01*
X170217142Y-82445257D01*
X170099261Y-54788685D02*
X169932595Y-54431542D01*
X169813547Y-54788685D02*
X169813547Y-54038685D01*
X170004023Y-54038685D01*
X170051642Y-54074400D01*
X170075452Y-54110114D01*
X170099261Y-54181542D01*
X170099261Y-54288685D01*
X170075452Y-54360114D01*
X170051642Y-54395828D01*
X170004023Y-54431542D01*
X169813547Y-54431542D01*
X170289738Y-54574400D02*
X170527833Y-54574400D01*
X170242119Y-54788685D02*
X170408785Y-54038685D01*
X170575452Y-54788685D01*
X170694500Y-54038685D02*
X170813547Y-54788685D01*
X170908785Y-54252971D01*
X171004023Y-54788685D01*
X171123071Y-54038685D01*
X185025761Y-67452971D02*
X185097190Y-67488685D01*
X185216238Y-67488685D01*
X185263857Y-67452971D01*
X185287666Y-67417257D01*
X185311476Y-67345828D01*
X185311476Y-67274400D01*
X185287666Y-67202971D01*
X185263857Y-67167257D01*
X185216238Y-67131542D01*
X185121000Y-67095828D01*
X185073380Y-67060114D01*
X185049571Y-67024400D01*
X185025761Y-66952971D01*
X185025761Y-66881542D01*
X185049571Y-66810114D01*
X185073380Y-66774400D01*
X185121000Y-66738685D01*
X185240047Y-66738685D01*
X185311476Y-66774400D01*
X185811476Y-67417257D02*
X185787666Y-67452971D01*
X185716238Y-67488685D01*
X185668619Y-67488685D01*
X185597190Y-67452971D01*
X185549571Y-67381542D01*
X185525761Y-67310114D01*
X185501952Y-67167257D01*
X185501952Y-67060114D01*
X185525761Y-66917257D01*
X185549571Y-66845828D01*
X185597190Y-66774400D01*
X185668619Y-66738685D01*
X185716238Y-66738685D01*
X185787666Y-66774400D01*
X185811476Y-66810114D01*
X186263857Y-67488685D02*
X186025761Y-67488685D01*
X186025761Y-66738685D01*
X185240047Y-61757900D02*
X185192428Y-61722185D01*
X185121000Y-61722185D01*
X185049571Y-61757900D01*
X185001952Y-61829328D01*
X184978142Y-61900757D01*
X184954333Y-62043614D01*
X184954333Y-62150757D01*
X184978142Y-62293614D01*
X185001952Y-62365042D01*
X185049571Y-62436471D01*
X185121000Y-62472185D01*
X185168619Y-62472185D01*
X185240047Y-62436471D01*
X185263857Y-62400757D01*
X185263857Y-62150757D01*
X185168619Y-62150757D01*
X185478142Y-62472185D02*
X185478142Y-61722185D01*
X185763857Y-62472185D01*
X185763857Y-61722185D01*
X186001952Y-62472185D02*
X186001952Y-61722185D01*
X186121000Y-61722185D01*
X186192428Y-61757900D01*
X186240047Y-61829328D01*
X186263857Y-61900757D01*
X186287666Y-62043614D01*
X186287666Y-62150757D01*
X186263857Y-62293614D01*
X186240047Y-62365042D01*
X186192428Y-62436471D01*
X186121000Y-62472185D01*
X186001952Y-62472185D01*
X185013857Y-64912971D02*
X185085285Y-64948685D01*
X185204333Y-64948685D01*
X185251952Y-64912971D01*
X185275761Y-64877257D01*
X185299571Y-64805828D01*
X185299571Y-64734400D01*
X185275761Y-64662971D01*
X185251952Y-64627257D01*
X185204333Y-64591542D01*
X185109095Y-64555828D01*
X185061476Y-64520114D01*
X185037666Y-64484400D01*
X185013857Y-64412971D01*
X185013857Y-64341542D01*
X185037666Y-64270114D01*
X185061476Y-64234400D01*
X185109095Y-64198685D01*
X185228142Y-64198685D01*
X185299571Y-64234400D01*
X185513857Y-64948685D02*
X185513857Y-64198685D01*
X185632904Y-64198685D01*
X185704333Y-64234400D01*
X185751952Y-64305828D01*
X185775761Y-64377257D01*
X185799571Y-64520114D01*
X185799571Y-64627257D01*
X185775761Y-64770114D01*
X185751952Y-64841542D01*
X185704333Y-64912971D01*
X185632904Y-64948685D01*
X185513857Y-64948685D01*
X185990047Y-64734400D02*
X186228142Y-64734400D01*
X185942428Y-64948685D02*
X186109095Y-64198685D01*
X186275761Y-64948685D01*
X185157619Y-79795828D02*
X185229047Y-79831542D01*
X185252857Y-79867257D01*
X185276666Y-79938685D01*
X185276666Y-80045828D01*
X185252857Y-80117257D01*
X185229047Y-80152971D01*
X185181428Y-80188685D01*
X184990952Y-80188685D01*
X184990952Y-79438685D01*
X185157619Y-79438685D01*
X185205238Y-79474400D01*
X185229047Y-79510114D01*
X185252857Y-79581542D01*
X185252857Y-79652971D01*
X185229047Y-79724400D01*
X185205238Y-79760114D01*
X185157619Y-79795828D01*
X184990952Y-79795828D01*
X185705238Y-79688685D02*
X185705238Y-80188685D01*
X185586190Y-79402971D02*
X185467142Y-79938685D01*
X185776666Y-79938685D01*
X185157619Y-82399328D02*
X185229047Y-82435042D01*
X185252857Y-82470757D01*
X185276666Y-82542185D01*
X185276666Y-82649328D01*
X185252857Y-82720757D01*
X185229047Y-82756471D01*
X185181428Y-82792185D01*
X184990952Y-82792185D01*
X184990952Y-82042185D01*
X185157619Y-82042185D01*
X185205238Y-82077900D01*
X185229047Y-82113614D01*
X185252857Y-82185042D01*
X185252857Y-82256471D01*
X185229047Y-82327900D01*
X185205238Y-82363614D01*
X185157619Y-82399328D01*
X184990952Y-82399328D01*
X185729047Y-82042185D02*
X185490952Y-82042185D01*
X185467142Y-82399328D01*
X185490952Y-82363614D01*
X185538571Y-82327900D01*
X185657619Y-82327900D01*
X185705238Y-82363614D01*
X185729047Y-82399328D01*
X185752857Y-82470757D01*
X185752857Y-82649328D01*
X185729047Y-82720757D01*
X185705238Y-82756471D01*
X185657619Y-82792185D01*
X185538571Y-82792185D01*
X185490952Y-82756471D01*
X185467142Y-82720757D01*
X169712380Y-64895257D02*
X169688571Y-64930971D01*
X169617142Y-64966685D01*
X169569523Y-64966685D01*
X169498095Y-64930971D01*
X169450476Y-64859542D01*
X169426666Y-64788114D01*
X169402857Y-64645257D01*
X169402857Y-64538114D01*
X169426666Y-64395257D01*
X169450476Y-64323828D01*
X169498095Y-64252400D01*
X169569523Y-64216685D01*
X169617142Y-64216685D01*
X169688571Y-64252400D01*
X169712380Y-64288114D01*
X170021904Y-64216685D02*
X170117142Y-64216685D01*
X170164761Y-64252400D01*
X170212380Y-64323828D01*
X170236190Y-64466685D01*
X170236190Y-64716685D01*
X170212380Y-64859542D01*
X170164761Y-64930971D01*
X170117142Y-64966685D01*
X170021904Y-64966685D01*
X169974285Y-64930971D01*
X169926666Y-64859542D01*
X169902857Y-64716685D01*
X169902857Y-64466685D01*
X169926666Y-64323828D01*
X169974285Y-64252400D01*
X170021904Y-64216685D01*
X170688571Y-64966685D02*
X170450476Y-64966685D01*
X170450476Y-64216685D01*
X170950476Y-64216685D02*
X170998095Y-64216685D01*
X171045714Y-64252400D01*
X171069523Y-64288114D01*
X171093333Y-64359542D01*
X171117142Y-64502400D01*
X171117142Y-64680971D01*
X171093333Y-64823828D01*
X171069523Y-64895257D01*
X171045714Y-64930971D01*
X170998095Y-64966685D01*
X170950476Y-64966685D01*
X170902857Y-64930971D01*
X170879047Y-64895257D01*
X170855238Y-64823828D01*
X170831428Y-64680971D01*
X170831428Y-64502400D01*
X170855238Y-64359542D01*
X170879047Y-64288114D01*
X170902857Y-64252400D01*
X170950476Y-64216685D01*
X169612380Y-72545257D02*
X169588571Y-72580971D01*
X169517142Y-72616685D01*
X169469523Y-72616685D01*
X169398095Y-72580971D01*
X169350476Y-72509542D01*
X169326666Y-72438114D01*
X169302857Y-72295257D01*
X169302857Y-72188114D01*
X169326666Y-72045257D01*
X169350476Y-71973828D01*
X169398095Y-71902400D01*
X169469523Y-71866685D01*
X169517142Y-71866685D01*
X169588571Y-71902400D01*
X169612380Y-71938114D01*
X169921904Y-71866685D02*
X170017142Y-71866685D01*
X170064761Y-71902400D01*
X170112380Y-71973828D01*
X170136190Y-72116685D01*
X170136190Y-72366685D01*
X170112380Y-72509542D01*
X170064761Y-72580971D01*
X170017142Y-72616685D01*
X169921904Y-72616685D01*
X169874285Y-72580971D01*
X169826666Y-72509542D01*
X169802857Y-72366685D01*
X169802857Y-72116685D01*
X169826666Y-71973828D01*
X169874285Y-71902400D01*
X169921904Y-71866685D01*
X170588571Y-72616685D02*
X170350476Y-72616685D01*
X170350476Y-71866685D01*
X170707619Y-71866685D02*
X171017142Y-71866685D01*
X170850476Y-72152400D01*
X170921904Y-72152400D01*
X170969523Y-72188114D01*
X170993333Y-72223828D01*
X171017142Y-72295257D01*
X171017142Y-72473828D01*
X170993333Y-72545257D01*
X170969523Y-72580971D01*
X170921904Y-72616685D01*
X170779047Y-72616685D01*
X170731428Y-72580971D01*
X170707619Y-72545257D01*
X184729047Y-75116685D02*
X184562380Y-74759542D01*
X184443333Y-75116685D02*
X184443333Y-74366685D01*
X184633809Y-74366685D01*
X184681428Y-74402400D01*
X184705238Y-74438114D01*
X184729047Y-74509542D01*
X184729047Y-74616685D01*
X184705238Y-74688114D01*
X184681428Y-74723828D01*
X184633809Y-74759542D01*
X184443333Y-74759542D01*
X185038571Y-74366685D02*
X185133809Y-74366685D01*
X185181428Y-74402400D01*
X185229047Y-74473828D01*
X185252857Y-74616685D01*
X185252857Y-74866685D01*
X185229047Y-75009542D01*
X185181428Y-75080971D01*
X185133809Y-75116685D01*
X185038571Y-75116685D01*
X184990952Y-75080971D01*
X184943333Y-75009542D01*
X184919523Y-74866685D01*
X184919523Y-74616685D01*
X184943333Y-74473828D01*
X184990952Y-74402400D01*
X185038571Y-74366685D01*
X185419523Y-74366685D02*
X185538571Y-75116685D01*
X185633809Y-74580971D01*
X185729047Y-75116685D01*
X185848095Y-74366685D01*
X186014761Y-74438114D02*
X186038571Y-74402400D01*
X186086190Y-74366685D01*
X186205238Y-74366685D01*
X186252857Y-74402400D01*
X186276666Y-74438114D01*
X186300476Y-74509542D01*
X186300476Y-74580971D01*
X186276666Y-74688114D01*
X185990952Y-75116685D01*
X186300476Y-75116685D01*
X170007619Y-79823828D02*
X170079047Y-79859542D01*
X170102857Y-79895257D01*
X170126666Y-79966685D01*
X170126666Y-80073828D01*
X170102857Y-80145257D01*
X170079047Y-80180971D01*
X170031428Y-80216685D01*
X169840952Y-80216685D01*
X169840952Y-79466685D01*
X170007619Y-79466685D01*
X170055238Y-79502400D01*
X170079047Y-79538114D01*
X170102857Y-79609542D01*
X170102857Y-79680971D01*
X170079047Y-79752400D01*
X170055238Y-79788114D01*
X170007619Y-79823828D01*
X169840952Y-79823828D01*
X170317142Y-79538114D02*
X170340952Y-79502400D01*
X170388571Y-79466685D01*
X170507619Y-79466685D01*
X170555238Y-79502400D01*
X170579047Y-79538114D01*
X170602857Y-79609542D01*
X170602857Y-79680971D01*
X170579047Y-79788114D01*
X170293333Y-80216685D01*
X170602857Y-80216685D01*
X184729047Y-70066685D02*
X184562380Y-69709542D01*
X184443333Y-70066685D02*
X184443333Y-69316685D01*
X184633809Y-69316685D01*
X184681428Y-69352400D01*
X184705238Y-69388114D01*
X184729047Y-69459542D01*
X184729047Y-69566685D01*
X184705238Y-69638114D01*
X184681428Y-69673828D01*
X184633809Y-69709542D01*
X184443333Y-69709542D01*
X185038571Y-69316685D02*
X185133809Y-69316685D01*
X185181428Y-69352400D01*
X185229047Y-69423828D01*
X185252857Y-69566685D01*
X185252857Y-69816685D01*
X185229047Y-69959542D01*
X185181428Y-70030971D01*
X185133809Y-70066685D01*
X185038571Y-70066685D01*
X184990952Y-70030971D01*
X184943333Y-69959542D01*
X184919523Y-69816685D01*
X184919523Y-69566685D01*
X184943333Y-69423828D01*
X184990952Y-69352400D01*
X185038571Y-69316685D01*
X185419523Y-69316685D02*
X185538571Y-70066685D01*
X185633809Y-69530971D01*
X185729047Y-70066685D01*
X185848095Y-69316685D01*
X186133809Y-69316685D02*
X186181428Y-69316685D01*
X186229047Y-69352400D01*
X186252857Y-69388114D01*
X186276666Y-69459542D01*
X186300476Y-69602400D01*
X186300476Y-69780971D01*
X186276666Y-69923828D01*
X186252857Y-69995257D01*
X186229047Y-70030971D01*
X186181428Y-70066685D01*
X186133809Y-70066685D01*
X186086190Y-70030971D01*
X186062380Y-69995257D01*
X186038571Y-69923828D01*
X186014761Y-69780971D01*
X186014761Y-69602400D01*
X186038571Y-69459542D01*
X186062380Y-69388114D01*
X186086190Y-69352400D01*
X186133809Y-69316685D01*
X169762380Y-67417257D02*
X169738571Y-67452971D01*
X169667142Y-67488685D01*
X169619523Y-67488685D01*
X169548095Y-67452971D01*
X169500476Y-67381542D01*
X169476666Y-67310114D01*
X169452857Y-67167257D01*
X169452857Y-67060114D01*
X169476666Y-66917257D01*
X169500476Y-66845828D01*
X169548095Y-66774400D01*
X169619523Y-66738685D01*
X169667142Y-66738685D01*
X169738571Y-66774400D01*
X169762380Y-66810114D01*
X170071904Y-66738685D02*
X170167142Y-66738685D01*
X170214761Y-66774400D01*
X170262380Y-66845828D01*
X170286190Y-66988685D01*
X170286190Y-67238685D01*
X170262380Y-67381542D01*
X170214761Y-67452971D01*
X170167142Y-67488685D01*
X170071904Y-67488685D01*
X170024285Y-67452971D01*
X169976666Y-67381542D01*
X169952857Y-67238685D01*
X169952857Y-66988685D01*
X169976666Y-66845828D01*
X170024285Y-66774400D01*
X170071904Y-66738685D01*
X170738571Y-67488685D02*
X170500476Y-67488685D01*
X170500476Y-66738685D01*
X171167142Y-67488685D02*
X170881428Y-67488685D01*
X171024285Y-67488685D02*
X171024285Y-66738685D01*
X170976666Y-66845828D01*
X170929047Y-66917257D01*
X170881428Y-66952971D01*
X185338571Y-54788685D02*
X185100476Y-54788685D01*
X185100476Y-54038685D01*
X185505238Y-54395828D02*
X185671904Y-54395828D01*
X185743333Y-54788685D02*
X185505238Y-54788685D01*
X185505238Y-54038685D01*
X185743333Y-54038685D01*
X185957619Y-54788685D02*
X185957619Y-54038685D01*
X186076666Y-54038685D01*
X186148095Y-54074400D01*
X186195714Y-54145828D01*
X186219523Y-54217257D01*
X186243333Y-54360114D01*
X186243333Y-54467257D01*
X186219523Y-54610114D01*
X186195714Y-54681542D01*
X186148095Y-54752971D01*
X186076666Y-54788685D01*
X185957619Y-54788685D01*
X185303547Y-59217900D02*
X185255928Y-59182185D01*
X185184500Y-59182185D01*
X185113071Y-59217900D01*
X185065452Y-59289328D01*
X185041642Y-59360757D01*
X185017833Y-59503614D01*
X185017833Y-59610757D01*
X185041642Y-59753614D01*
X185065452Y-59825042D01*
X185113071Y-59896471D01*
X185184500Y-59932185D01*
X185232119Y-59932185D01*
X185303547Y-59896471D01*
X185327357Y-59860757D01*
X185327357Y-59610757D01*
X185232119Y-59610757D01*
X185541642Y-59932185D02*
X185541642Y-59182185D01*
X185827357Y-59932185D01*
X185827357Y-59182185D01*
X186065452Y-59932185D02*
X186065452Y-59182185D01*
X186184500Y-59182185D01*
X186255928Y-59217900D01*
X186303547Y-59289328D01*
X186327357Y-59360757D01*
X186351166Y-59503614D01*
X186351166Y-59610757D01*
X186327357Y-59753614D01*
X186303547Y-59825042D01*
X186255928Y-59896471D01*
X186184500Y-59932185D01*
X186065452Y-59932185D01*
D11*
%TO.C,JP65*%
X180274895Y-83087133D02*
X181087695Y-82816200D01*
X180274895Y-82545266D01*
X181010285Y-81809876D02*
X181048990Y-81848580D01*
X181087695Y-81964695D01*
X181087695Y-82042104D01*
X181048990Y-82158219D01*
X180971580Y-82235628D01*
X180894171Y-82274333D01*
X180739352Y-82313038D01*
X180623238Y-82313038D01*
X180468419Y-82274333D01*
X180391009Y-82235628D01*
X180313600Y-82158219D01*
X180274895Y-82042104D01*
X180274895Y-81964695D01*
X180313600Y-81848580D01*
X180352304Y-81809876D01*
X181010285Y-80997076D02*
X181048990Y-81035780D01*
X181087695Y-81151895D01*
X181087695Y-81229304D01*
X181048990Y-81345419D01*
X180971580Y-81422828D01*
X180894171Y-81461533D01*
X180739352Y-81500238D01*
X180623238Y-81500238D01*
X180468419Y-81461533D01*
X180391009Y-81422828D01*
X180313600Y-81345419D01*
X180274895Y-81229304D01*
X180274895Y-81151895D01*
X180313600Y-81035780D01*
X180352304Y-80997076D01*
%TO.C,J2*%
X178237619Y-89022380D02*
X178428095Y-89022380D01*
X178523333Y-89070000D01*
X178618571Y-89165238D01*
X178666190Y-89355714D01*
X178666190Y-89689047D01*
X178618571Y-89879523D01*
X178523333Y-89974761D01*
X178428095Y-90022380D01*
X178237619Y-90022380D01*
X178142380Y-89974761D01*
X178047142Y-89879523D01*
X177999523Y-89689047D01*
X177999523Y-89355714D01*
X178047142Y-89165238D01*
X178142380Y-89070000D01*
X178237619Y-89022380D01*
X179570952Y-90022380D02*
X179094761Y-90022380D01*
X179094761Y-89022380D01*
X179904285Y-89498571D02*
X180237619Y-89498571D01*
X180380476Y-90022380D02*
X179904285Y-90022380D01*
X179904285Y-89022380D01*
X180380476Y-89022380D01*
X180809047Y-90022380D02*
X180809047Y-89022380D01*
X181047142Y-89022380D01*
X181190000Y-89070000D01*
X181285238Y-89165238D01*
X181332857Y-89260476D01*
X181380476Y-89450952D01*
X181380476Y-89593809D01*
X181332857Y-89784285D01*
X181285238Y-89879523D01*
X181190000Y-89974761D01*
X181047142Y-90022380D01*
X180809047Y-90022380D01*
%TO.C,JP63*%
X178448990Y-82991019D02*
X178487695Y-82874904D01*
X178487695Y-82681380D01*
X178448990Y-82603971D01*
X178410285Y-82565266D01*
X178332876Y-82526561D01*
X178255466Y-82526561D01*
X178178057Y-82565266D01*
X178139352Y-82603971D01*
X178100647Y-82681380D01*
X178061942Y-82836200D01*
X178023238Y-82913609D01*
X177984533Y-82952314D01*
X177907123Y-82991019D01*
X177829714Y-82991019D01*
X177752304Y-82952314D01*
X177713600Y-82913609D01*
X177674895Y-82836200D01*
X177674895Y-82642676D01*
X177713600Y-82526561D01*
X178410285Y-81713761D02*
X178448990Y-81752466D01*
X178487695Y-81868580D01*
X178487695Y-81945990D01*
X178448990Y-82062104D01*
X178371580Y-82139514D01*
X178294171Y-82178219D01*
X178139352Y-82216923D01*
X178023238Y-82216923D01*
X177868419Y-82178219D01*
X177791009Y-82139514D01*
X177713600Y-82062104D01*
X177674895Y-81945990D01*
X177674895Y-81868580D01*
X177713600Y-81752466D01*
X177752304Y-81713761D01*
X178487695Y-80978371D02*
X178487695Y-81365419D01*
X177674895Y-81365419D01*
%TO.C,JP61*%
X175908990Y-82730733D02*
X175947695Y-82614619D01*
X175947695Y-82421095D01*
X175908990Y-82343685D01*
X175870285Y-82304980D01*
X175792876Y-82266276D01*
X175715466Y-82266276D01*
X175638057Y-82304980D01*
X175599352Y-82343685D01*
X175560647Y-82421095D01*
X175521942Y-82575914D01*
X175483238Y-82653323D01*
X175444533Y-82692028D01*
X175367123Y-82730733D01*
X175289714Y-82730733D01*
X175212304Y-82692028D01*
X175173600Y-82653323D01*
X175134895Y-82575914D01*
X175134895Y-82382390D01*
X175173600Y-82266276D01*
X175947695Y-81917933D02*
X175134895Y-81917933D01*
X175134895Y-81724409D01*
X175173600Y-81608295D01*
X175251009Y-81530885D01*
X175328419Y-81492180D01*
X175483238Y-81453476D01*
X175599352Y-81453476D01*
X175754171Y-81492180D01*
X175831580Y-81530885D01*
X175908990Y-81608295D01*
X175947695Y-81724409D01*
X175947695Y-81917933D01*
X175715466Y-81143838D02*
X175715466Y-80756790D01*
X175947695Y-81221247D02*
X175134895Y-80950314D01*
X175947695Y-80679380D01*
%TO.C,JP68*%
X182883600Y-82613076D02*
X182844895Y-82690485D01*
X182844895Y-82806600D01*
X182883600Y-82922714D01*
X182961009Y-83000123D01*
X183038419Y-83038828D01*
X183193238Y-83077533D01*
X183309352Y-83077533D01*
X183464171Y-83038828D01*
X183541580Y-83000123D01*
X183618990Y-82922714D01*
X183657695Y-82806600D01*
X183657695Y-82729190D01*
X183618990Y-82613076D01*
X183580285Y-82574371D01*
X183309352Y-82574371D01*
X183309352Y-82729190D01*
X183657695Y-82226028D02*
X182844895Y-82226028D01*
X183657695Y-81761571D01*
X182844895Y-81761571D01*
X183657695Y-81374523D02*
X182844895Y-81374523D01*
X182844895Y-81181000D01*
X182883600Y-81064885D01*
X182961009Y-80987476D01*
X183038419Y-80948771D01*
X183193238Y-80910066D01*
X183309352Y-80910066D01*
X183464171Y-80948771D01*
X183541580Y-80987476D01*
X183618990Y-81064885D01*
X183657695Y-81181000D01*
X183657695Y-81374523D01*
%TO.C,RSW1*%
X181447619Y-92602380D02*
X181114285Y-92126190D01*
X180876190Y-92602380D02*
X180876190Y-91602380D01*
X181257142Y-91602380D01*
X181352380Y-91650000D01*
X181400000Y-91697619D01*
X181447619Y-91792857D01*
X181447619Y-91935714D01*
X181400000Y-92030952D01*
X181352380Y-92078571D01*
X181257142Y-92126190D01*
X180876190Y-92126190D01*
X181876190Y-92078571D02*
X182209523Y-92078571D01*
X182352380Y-92602380D02*
X181876190Y-92602380D01*
X181876190Y-91602380D01*
X182352380Y-91602380D01*
X182733333Y-92554761D02*
X182876190Y-92602380D01*
X183114285Y-92602380D01*
X183209523Y-92554761D01*
X183257142Y-92507142D01*
X183304761Y-92411904D01*
X183304761Y-92316666D01*
X183257142Y-92221428D01*
X183209523Y-92173809D01*
X183114285Y-92126190D01*
X182923809Y-92078571D01*
X182828571Y-92030952D01*
X182780952Y-91983333D01*
X182733333Y-91888095D01*
X182733333Y-91792857D01*
X182780952Y-91697619D01*
X182828571Y-91650000D01*
X182923809Y-91602380D01*
X183161904Y-91602380D01*
X183304761Y-91650000D01*
X183733333Y-92078571D02*
X184066666Y-92078571D01*
X184209523Y-92602380D02*
X183733333Y-92602380D01*
X183733333Y-91602380D01*
X184209523Y-91602380D01*
X184495238Y-91602380D02*
X185066666Y-91602380D01*
X184780952Y-92602380D02*
X184780952Y-91602380D01*
%TO.C,-ve*%
X182711428Y-54052476D02*
X182711428Y-53290571D01*
X182425714Y-52909619D02*
X183092380Y-52671523D01*
X182425714Y-52433428D01*
X183044761Y-51671523D02*
X183092380Y-51766761D01*
X183092380Y-51957238D01*
X183044761Y-52052476D01*
X182949523Y-52100095D01*
X182568571Y-52100095D01*
X182473333Y-52052476D01*
X182425714Y-51957238D01*
X182425714Y-51766761D01*
X182473333Y-51671523D01*
X182568571Y-51623904D01*
X182663809Y-51623904D01*
X182759047Y-52100095D01*
%TO.C,POWER*%
X187307380Y-90439523D02*
X186307380Y-90439523D01*
X186307380Y-90058571D01*
X186355000Y-89963333D01*
X186402619Y-89915714D01*
X186497857Y-89868095D01*
X186640714Y-89868095D01*
X186735952Y-89915714D01*
X186783571Y-89963333D01*
X186831190Y-90058571D01*
X186831190Y-90439523D01*
X186307380Y-89249047D02*
X186307380Y-89058571D01*
X186355000Y-88963333D01*
X186450238Y-88868095D01*
X186640714Y-88820476D01*
X186974047Y-88820476D01*
X187164523Y-88868095D01*
X187259761Y-88963333D01*
X187307380Y-89058571D01*
X187307380Y-89249047D01*
X187259761Y-89344285D01*
X187164523Y-89439523D01*
X186974047Y-89487142D01*
X186640714Y-89487142D01*
X186450238Y-89439523D01*
X186355000Y-89344285D01*
X186307380Y-89249047D01*
X186307380Y-88487142D02*
X187307380Y-88249047D01*
X186593095Y-88058571D01*
X187307380Y-87868095D01*
X186307380Y-87630000D01*
X186783571Y-87249047D02*
X186783571Y-86915714D01*
X187307380Y-86772857D02*
X187307380Y-87249047D01*
X186307380Y-87249047D01*
X186307380Y-86772857D01*
X187307380Y-85772857D02*
X186831190Y-86106190D01*
X187307380Y-86344285D02*
X186307380Y-86344285D01*
X186307380Y-85963333D01*
X186355000Y-85868095D01*
X186402619Y-85820476D01*
X186497857Y-85772857D01*
X186640714Y-85772857D01*
X186735952Y-85820476D01*
X186783571Y-85868095D01*
X186831190Y-85963333D01*
X186831190Y-86344285D01*
%TO.C,+ve*%
X174811428Y-54012476D02*
X174811428Y-53250571D01*
X175192380Y-53631523D02*
X174430476Y-53631523D01*
X174525714Y-52869619D02*
X175192380Y-52631523D01*
X174525714Y-52393428D01*
X175144761Y-51631523D02*
X175192380Y-51726761D01*
X175192380Y-51917238D01*
X175144761Y-52012476D01*
X175049523Y-52060095D01*
X174668571Y-52060095D01*
X174573333Y-52012476D01*
X174525714Y-51917238D01*
X174525714Y-51726761D01*
X174573333Y-51631523D01*
X174668571Y-51583904D01*
X174763809Y-51583904D01*
X174859047Y-52060095D01*
%TO.C,D2*%
X86504400Y-64812800D02*
X85604400Y-64312800D01*
X85504400Y-63812800D02*
X85504400Y-64812800D01*
X83304400Y-65062800D02*
X88704400Y-65062800D01*
X88704400Y-63562800D02*
X83304400Y-63562800D01*
X83304400Y-63562800D02*
X83304400Y-65062800D01*
X86504400Y-63812800D02*
X86504400Y-64812800D01*
X88704400Y-65062800D02*
X88704400Y-63562800D01*
X85604400Y-64312800D02*
X86504400Y-63812800D01*
%TO.C,D3*%
X104589200Y-51773200D02*
X104589200Y-52773200D01*
X101389200Y-53023200D02*
X106789200Y-53023200D01*
X104589200Y-52773200D02*
X103689200Y-52273200D01*
X103689200Y-52273200D02*
X104589200Y-51773200D01*
X106789200Y-51523200D02*
X101389200Y-51523200D01*
X101389200Y-51523200D02*
X101389200Y-53023200D01*
X103589200Y-51773200D02*
X103589200Y-52773200D01*
X106789200Y-53023200D02*
X106789200Y-51523200D01*
%TO.C,D4*%
X119372400Y-46978000D02*
X124772400Y-46978000D01*
X122572400Y-46728000D02*
X121672400Y-46228000D01*
X121572400Y-45728000D02*
X121572400Y-46728000D01*
X119372400Y-45478000D02*
X119372400Y-46978000D01*
X121672400Y-46228000D02*
X122572400Y-45728000D01*
X124772400Y-45478000D02*
X119372400Y-45478000D01*
X122572400Y-45728000D02*
X122572400Y-46728000D01*
X124772400Y-46978000D02*
X124772400Y-45478000D01*
%TO.C,D5*%
X137304800Y-54039200D02*
X142704800Y-54039200D01*
X142704800Y-54039200D02*
X142704800Y-52539200D01*
X139604800Y-53289200D02*
X140504800Y-52789200D01*
X140504800Y-52789200D02*
X140504800Y-53789200D01*
X140504800Y-53789200D02*
X139604800Y-53289200D01*
X142704800Y-52539200D02*
X137304800Y-52539200D01*
X139504800Y-52789200D02*
X139504800Y-53789200D01*
X137304800Y-52539200D02*
X137304800Y-54039200D01*
%TO.C,D6*%
X155288000Y-54672800D02*
X155288000Y-56172800D01*
X160688000Y-56172800D02*
X160688000Y-54672800D01*
X157588000Y-55422800D02*
X158488000Y-54922800D01*
X155288000Y-56172800D02*
X160688000Y-56172800D01*
X157488000Y-54922800D02*
X157488000Y-55922800D01*
X158488000Y-54922800D02*
X158488000Y-55922800D01*
X160688000Y-54672800D02*
X155288000Y-54672800D01*
X158488000Y-55922800D02*
X157588000Y-55422800D01*
%TO.C,D8*%
X86402800Y-81729200D02*
X85502800Y-81229200D01*
X88602800Y-81979200D02*
X88602800Y-80479200D01*
X83202800Y-80479200D02*
X83202800Y-81979200D01*
X85502800Y-81229200D02*
X86402800Y-80729200D01*
X86402800Y-80729200D02*
X86402800Y-81729200D01*
X88602800Y-80479200D02*
X83202800Y-80479200D01*
X83202800Y-81979200D02*
X88602800Y-81979200D01*
X85402800Y-80729200D02*
X85402800Y-81729200D01*
%TO.C,D9*%
X106586000Y-68592000D02*
X101186000Y-68592000D01*
X103386000Y-68842000D02*
X103386000Y-69842000D01*
X101186000Y-70092000D02*
X106586000Y-70092000D01*
X104386000Y-69842000D02*
X103486000Y-69342000D01*
X103486000Y-69342000D02*
X104386000Y-68842000D01*
X106586000Y-70092000D02*
X106586000Y-68592000D01*
X104386000Y-68842000D02*
X104386000Y-69842000D01*
X101186000Y-68592000D02*
X101186000Y-70092000D01*
%TO.C,D10*%
X122470800Y-63847600D02*
X121570800Y-63347600D01*
X122470800Y-62847600D02*
X122470800Y-63847600D01*
X119270800Y-62597600D02*
X119270800Y-64097600D01*
X121570800Y-63347600D02*
X122470800Y-62847600D01*
X121470800Y-62847600D02*
X121470800Y-63847600D01*
X124670800Y-64097600D02*
X124670800Y-62597600D01*
X124670800Y-62597600D02*
X119270800Y-62597600D01*
X119270800Y-64097600D02*
X124670800Y-64097600D01*
%TO.C,D11*%
X140454000Y-70400800D02*
X139554000Y-69900800D01*
X139454000Y-69400800D02*
X139454000Y-70400800D01*
X137254000Y-69150800D02*
X137254000Y-70650800D01*
X142654000Y-69150800D02*
X137254000Y-69150800D01*
X142654000Y-70650800D02*
X142654000Y-69150800D01*
X140454000Y-69400800D02*
X140454000Y-70400800D01*
X139554000Y-69900800D02*
X140454000Y-69400800D01*
X137254000Y-70650800D02*
X142654000Y-70650800D01*
%TO.C,D12*%
X158792800Y-71991600D02*
X158792800Y-72991600D01*
X155592800Y-73241600D02*
X160992800Y-73241600D01*
X157892800Y-72491600D02*
X158792800Y-71991600D01*
X160992800Y-73241600D02*
X160992800Y-71741600D01*
X155592800Y-71741600D02*
X155592800Y-73241600D01*
X157792800Y-71991600D02*
X157792800Y-72991600D01*
X158792800Y-72991600D02*
X157892800Y-72491600D01*
X160992800Y-71741600D02*
X155592800Y-71741600D01*
%TO.C,D14*%
X88602800Y-98997200D02*
X88602800Y-97497200D01*
X88602800Y-97497200D02*
X83202800Y-97497200D01*
X85402800Y-97747200D02*
X85402800Y-98747200D01*
X83202800Y-98997200D02*
X88602800Y-98997200D01*
X86402800Y-98747200D02*
X85502800Y-98247200D01*
X83202800Y-97497200D02*
X83202800Y-98997200D01*
X85502800Y-98247200D02*
X86402800Y-97747200D01*
X86402800Y-97747200D02*
X86402800Y-98747200D01*
%TO.C,D15*%
X101287600Y-85559200D02*
X101287600Y-87059200D01*
X103487600Y-85809200D02*
X103487600Y-86809200D01*
X104487600Y-85809200D02*
X104487600Y-86809200D01*
X106687600Y-85559200D02*
X101287600Y-85559200D01*
X103587600Y-86309200D02*
X104487600Y-85809200D01*
X104487600Y-86809200D02*
X103587600Y-86309200D01*
X106687600Y-87059200D02*
X106687600Y-85559200D01*
X101287600Y-87059200D02*
X106687600Y-87059200D01*
%TO.C,D16*%
X119270800Y-81064800D02*
X124670800Y-81064800D01*
X124670800Y-79564800D02*
X119270800Y-79564800D01*
X121570800Y-80314800D02*
X122470800Y-79814800D01*
X122470800Y-80814800D02*
X121570800Y-80314800D01*
X124670800Y-81064800D02*
X124670800Y-79564800D01*
X119270800Y-79564800D02*
X119270800Y-81064800D01*
X122470800Y-79814800D02*
X122470800Y-80814800D01*
X121470800Y-79814800D02*
X121470800Y-80814800D01*
%TO.C,D17*%
X137355600Y-87719600D02*
X142755600Y-87719600D01*
X140555600Y-86469600D02*
X140555600Y-87469600D01*
X140555600Y-87469600D02*
X139655600Y-86969600D01*
X139555600Y-86469600D02*
X139555600Y-87469600D01*
X142755600Y-86219600D02*
X137355600Y-86219600D01*
X137355600Y-86219600D02*
X137355600Y-87719600D01*
X139655600Y-86969600D02*
X140555600Y-86469600D01*
X142755600Y-87719600D02*
X142755600Y-86219600D01*
%TO.C,D18*%
X157689600Y-89357200D02*
X158589600Y-88857200D01*
X158589600Y-89857200D02*
X157689600Y-89357200D01*
X158589600Y-88857200D02*
X158589600Y-89857200D01*
X160789600Y-88607200D02*
X155389600Y-88607200D01*
X155389600Y-90107200D02*
X160789600Y-90107200D01*
X160789600Y-90107200D02*
X160789600Y-88607200D01*
X157589600Y-88857200D02*
X157589600Y-89857200D01*
X155389600Y-88607200D02*
X155389600Y-90107200D01*
%TO.C,D19*%
X130594908Y-120646174D02*
X130725641Y-122140467D01*
X132895481Y-121699675D02*
X132808325Y-120703481D01*
X133891675Y-121612519D02*
X133804519Y-120616325D01*
X132808325Y-120703481D02*
X133748478Y-121123138D01*
X135974359Y-120175533D02*
X130594908Y-120646174D01*
X130725641Y-122140467D02*
X136105092Y-121669826D01*
X133748478Y-121123138D02*
X132895481Y-121699675D01*
X136105092Y-121669826D02*
X135974359Y-120175533D01*
%TO.C,D20*%
X153052478Y-121192862D02*
X152112325Y-121612519D01*
X150029641Y-120175533D02*
X149898908Y-121669826D01*
X155409092Y-120646174D02*
X150029641Y-120175533D01*
X153108519Y-121699675D02*
X153195675Y-120703481D01*
X152199481Y-120616325D02*
X153052478Y-121192862D01*
X149898908Y-121669826D02*
X155278359Y-122140467D01*
X155278359Y-122140467D02*
X155409092Y-120646174D01*
X152112325Y-121612519D02*
X152199481Y-120616325D01*
%TO.C,D21*%
X180327845Y-120806463D02*
X179421537Y-120383845D01*
X180750463Y-119900155D02*
X179844155Y-119477537D01*
X180255047Y-119779477D02*
X180327845Y-120806463D01*
X179624662Y-122905995D02*
X181906800Y-118011933D01*
X179421537Y-120383845D02*
X180255047Y-119779477D01*
X180547338Y-117378005D02*
X178265200Y-122272067D01*
X178265200Y-122272067D02*
X179624662Y-122905995D01*
X181906800Y-118011933D02*
X180547338Y-117378005D01*
%TO.C,J1*%
X191862600Y-103570000D02*
X179862600Y-103570000D01*
X191862600Y-97570000D02*
X191862600Y-103570000D01*
X179862600Y-103570000D02*
X179862600Y-97570000D01*
X179862600Y-97570000D02*
X191862600Y-97570000D01*
%TO.C,SW2*%
X87910000Y-77100000D02*
X87910000Y-78100000D01*
X83910000Y-74600000D02*
X84410000Y-74100000D01*
X88410000Y-72600000D02*
X88410000Y-71900000D01*
X78910000Y-63400000D02*
X79910000Y-63400000D01*
X88410000Y-71900000D02*
X92910000Y-71900000D01*
X92910000Y-77400000D02*
X91910000Y-77400000D01*
X79910000Y-77400000D02*
X78910000Y-77400000D01*
X91910000Y-63400000D02*
X92910000Y-63400000D01*
X87410000Y-78600000D02*
X87910000Y-78100000D01*
X78910000Y-77400000D02*
X78910000Y-76400000D01*
X92910000Y-63400000D02*
X92910000Y-64400000D01*
X83910000Y-78100000D02*
X84410000Y-78600000D01*
X78910000Y-64400000D02*
X78910000Y-63400000D01*
X84410000Y-74100000D02*
X86910000Y-74100000D01*
X84410000Y-78600000D02*
X87410000Y-78600000D01*
X92910000Y-71900000D02*
X92910000Y-72400000D01*
X92910000Y-76600000D02*
X88410000Y-76600000D01*
X92910000Y-76000000D02*
X92910000Y-76600000D01*
X92910000Y-76400000D02*
X92910000Y-77400000D01*
X88410000Y-76600000D02*
G75*
G03*
X87910000Y-77100000I0J-500000D01*
G01*
X86910000Y-74100000D02*
G75*
G03*
X88410000Y-72600000I0J1500000D01*
G01*
%TO.C,SW3*%
X106410000Y-59900000D02*
X110910000Y-59900000D01*
X110910000Y-59900000D02*
X110910000Y-60400000D01*
X109910000Y-51400000D02*
X110910000Y-51400000D01*
X105410000Y-66600000D02*
X105910000Y-66100000D01*
X96910000Y-52400000D02*
X96910000Y-51400000D01*
X110910000Y-51400000D02*
X110910000Y-52400000D01*
X110910000Y-65400000D02*
X109910000Y-65400000D01*
X110910000Y-64000000D02*
X110910000Y-64600000D01*
X96910000Y-51400000D02*
X97910000Y-51400000D01*
X110910000Y-64400000D02*
X110910000Y-65400000D01*
X102410000Y-62100000D02*
X104910000Y-62100000D01*
X96910000Y-65400000D02*
X96910000Y-64400000D01*
X101910000Y-62600000D02*
X102410000Y-62100000D01*
X105910000Y-65100000D02*
X105910000Y-66100000D01*
X106410000Y-60600000D02*
X106410000Y-59900000D01*
X101910000Y-66100000D02*
X102410000Y-66600000D01*
X102410000Y-66600000D02*
X105410000Y-66600000D01*
X110910000Y-64600000D02*
X106410000Y-64600000D01*
X97910000Y-65400000D02*
X96910000Y-65400000D01*
X104910000Y-62100000D02*
G75*
G03*
X106410000Y-60600000I0J1500000D01*
G01*
X106410000Y-64600000D02*
G75*
G03*
X105910000Y-65100000I0J-500000D01*
G01*
%TO.C,SW4*%
X119910000Y-56600000D02*
X120410000Y-56100000D01*
X128910000Y-58400000D02*
X128910000Y-59400000D01*
X123910000Y-59100000D02*
X123910000Y-60100000D01*
X128910000Y-59400000D02*
X127910000Y-59400000D01*
X128910000Y-53900000D02*
X128910000Y-54400000D01*
X128910000Y-45400000D02*
X128910000Y-46400000D01*
X114910000Y-59400000D02*
X114910000Y-58400000D01*
X120410000Y-56100000D02*
X122910000Y-56100000D01*
X114910000Y-46400000D02*
X114910000Y-45400000D01*
X127910000Y-45400000D02*
X128910000Y-45400000D01*
X124410000Y-53900000D02*
X128910000Y-53900000D01*
X124410000Y-54600000D02*
X124410000Y-53900000D01*
X128910000Y-58600000D02*
X124410000Y-58600000D01*
X123410000Y-60600000D02*
X123910000Y-60100000D01*
X114910000Y-45400000D02*
X115910000Y-45400000D01*
X115910000Y-59400000D02*
X114910000Y-59400000D01*
X120410000Y-60600000D02*
X123410000Y-60600000D01*
X128910000Y-58000000D02*
X128910000Y-58600000D01*
X119910000Y-60100000D02*
X120410000Y-60600000D01*
X124410000Y-58600000D02*
G75*
G03*
X123910000Y-59100000I0J-500000D01*
G01*
X122910000Y-56100000D02*
G75*
G03*
X124410000Y-54600000I0J1500000D01*
G01*
%TO.C,SW5*%
X145910000Y-52020000D02*
X146910000Y-52020000D01*
X146910000Y-60520000D02*
X146910000Y-61020000D01*
X133910000Y-66020000D02*
X132910000Y-66020000D01*
X146910000Y-65220000D02*
X142410000Y-65220000D01*
X132910000Y-66020000D02*
X132910000Y-65020000D01*
X146910000Y-52020000D02*
X146910000Y-53020000D01*
X132910000Y-53020000D02*
X132910000Y-52020000D01*
X137910000Y-66720000D02*
X138410000Y-67220000D01*
X146910000Y-65020000D02*
X146910000Y-66020000D01*
X138410000Y-62720000D02*
X140910000Y-62720000D01*
X142410000Y-60520000D02*
X146910000Y-60520000D01*
X146910000Y-66020000D02*
X145910000Y-66020000D01*
X146910000Y-64620000D02*
X146910000Y-65220000D01*
X142410000Y-61220000D02*
X142410000Y-60520000D01*
X138410000Y-67220000D02*
X141410000Y-67220000D01*
X132910000Y-52020000D02*
X133910000Y-52020000D01*
X141410000Y-67220000D02*
X141910000Y-66720000D01*
X141910000Y-65720000D02*
X141910000Y-66720000D01*
X137910000Y-63220000D02*
X138410000Y-62720000D01*
X140910000Y-62720000D02*
G75*
G03*
X142410000Y-61220000I0J1500000D01*
G01*
X142410000Y-65220000D02*
G75*
G03*
X141910000Y-65720000I0J-500000D01*
G01*
%TO.C,SW6*%
X156410000Y-69600000D02*
X159410000Y-69600000D01*
X164910000Y-54400000D02*
X164910000Y-55400000D01*
X150910000Y-55400000D02*
X150910000Y-54400000D01*
X160410000Y-63600000D02*
X160410000Y-62900000D01*
X150910000Y-54400000D02*
X151910000Y-54400000D01*
X155910000Y-65600000D02*
X156410000Y-65100000D01*
X164910000Y-67600000D02*
X160410000Y-67600000D01*
X164910000Y-67000000D02*
X164910000Y-67600000D01*
X163910000Y-54400000D02*
X164910000Y-54400000D01*
X164910000Y-68400000D02*
X163910000Y-68400000D01*
X150910000Y-68400000D02*
X150910000Y-67400000D01*
X164910000Y-67400000D02*
X164910000Y-68400000D01*
X164910000Y-62900000D02*
X164910000Y-63400000D01*
X159910000Y-68100000D02*
X159910000Y-69100000D01*
X155910000Y-69100000D02*
X156410000Y-69600000D01*
X151910000Y-68400000D02*
X150910000Y-68400000D01*
X160410000Y-62900000D02*
X164910000Y-62900000D01*
X156410000Y-65100000D02*
X158910000Y-65100000D01*
X159410000Y-69600000D02*
X159910000Y-69100000D01*
X160410000Y-67600000D02*
G75*
G03*
X159910000Y-68100000I0J-500000D01*
G01*
X158910000Y-65100000D02*
G75*
G03*
X160410000Y-63600000I0J1500000D01*
G01*
%TO.C,SW8*%
X88410000Y-89600000D02*
X88410000Y-88900000D01*
X92910000Y-93400000D02*
X92910000Y-94400000D01*
X84410000Y-91100000D02*
X86910000Y-91100000D01*
X83910000Y-95100000D02*
X84410000Y-95600000D01*
X92910000Y-88900000D02*
X92910000Y-89400000D01*
X91910000Y-80400000D02*
X92910000Y-80400000D01*
X78910000Y-94400000D02*
X78910000Y-93400000D01*
X92910000Y-93600000D02*
X88410000Y-93600000D01*
X78910000Y-81400000D02*
X78910000Y-80400000D01*
X88410000Y-88900000D02*
X92910000Y-88900000D01*
X87910000Y-94100000D02*
X87910000Y-95100000D01*
X84410000Y-95600000D02*
X87410000Y-95600000D01*
X83910000Y-91600000D02*
X84410000Y-91100000D01*
X78910000Y-80400000D02*
X79910000Y-80400000D01*
X79910000Y-94400000D02*
X78910000Y-94400000D01*
X92910000Y-93000000D02*
X92910000Y-93600000D01*
X92910000Y-80400000D02*
X92910000Y-81400000D01*
X87410000Y-95600000D02*
X87910000Y-95100000D01*
X92910000Y-94400000D02*
X91910000Y-94400000D01*
X88410000Y-93600000D02*
G75*
G03*
X87910000Y-94100000I0J-500000D01*
G01*
X86910000Y-91100000D02*
G75*
G03*
X88410000Y-89600000I0J1500000D01*
G01*
%TO.C,SW9*%
X110910000Y-76900000D02*
X110910000Y-77400000D01*
X102410000Y-83600000D02*
X105410000Y-83600000D01*
X109910000Y-68400000D02*
X110910000Y-68400000D01*
X101910000Y-83100000D02*
X102410000Y-83600000D01*
X106410000Y-76900000D02*
X110910000Y-76900000D01*
X96910000Y-68400000D02*
X97910000Y-68400000D01*
X110910000Y-82400000D02*
X109910000Y-82400000D01*
X110910000Y-68400000D02*
X110910000Y-69400000D01*
X96910000Y-82400000D02*
X96910000Y-81400000D01*
X110910000Y-81000000D02*
X110910000Y-81600000D01*
X101910000Y-79600000D02*
X102410000Y-79100000D01*
X96910000Y-69400000D02*
X96910000Y-68400000D01*
X97910000Y-82400000D02*
X96910000Y-82400000D01*
X105910000Y-82100000D02*
X105910000Y-83100000D01*
X110910000Y-81400000D02*
X110910000Y-82400000D01*
X105410000Y-83600000D02*
X105910000Y-83100000D01*
X110910000Y-81600000D02*
X106410000Y-81600000D01*
X106410000Y-77600000D02*
X106410000Y-76900000D01*
X102410000Y-79100000D02*
X104910000Y-79100000D01*
X104910000Y-79100000D02*
G75*
G03*
X106410000Y-77600000I0J1500000D01*
G01*
X106410000Y-81600000D02*
G75*
G03*
X105910000Y-82100000I0J-500000D01*
G01*
%TO.C,SW10*%
X114910000Y-76400000D02*
X114910000Y-75400000D01*
X124410000Y-71600000D02*
X124410000Y-70900000D01*
X128910000Y-70900000D02*
X128910000Y-71400000D01*
X123410000Y-77600000D02*
X123910000Y-77100000D01*
X128910000Y-75600000D02*
X124410000Y-75600000D01*
X128910000Y-62400000D02*
X128910000Y-63400000D01*
X128910000Y-76400000D02*
X127910000Y-76400000D01*
X128910000Y-75000000D02*
X128910000Y-75600000D01*
X119910000Y-77100000D02*
X120410000Y-77600000D01*
X123910000Y-76100000D02*
X123910000Y-77100000D01*
X115910000Y-76400000D02*
X114910000Y-76400000D01*
X120410000Y-77600000D02*
X123410000Y-77600000D01*
X120410000Y-73100000D02*
X122910000Y-73100000D01*
X119910000Y-73600000D02*
X120410000Y-73100000D01*
X124410000Y-70900000D02*
X128910000Y-70900000D01*
X114910000Y-62400000D02*
X115910000Y-62400000D01*
X127910000Y-62400000D02*
X128910000Y-62400000D01*
X114910000Y-63400000D02*
X114910000Y-62400000D01*
X128910000Y-75400000D02*
X128910000Y-76400000D01*
X124410000Y-75600000D02*
G75*
G03*
X123910000Y-76100000I0J-500000D01*
G01*
X122910000Y-73100000D02*
G75*
G03*
X124410000Y-71600000I0J1500000D01*
G01*
%TO.C,SW11*%
X146910000Y-82220000D02*
X142410000Y-82220000D01*
X132910000Y-83020000D02*
X132910000Y-82020000D01*
X142410000Y-78220000D02*
X142410000Y-77520000D01*
X132910000Y-70020000D02*
X132910000Y-69020000D01*
X142410000Y-77520000D02*
X146910000Y-77520000D01*
X141410000Y-84220000D02*
X141910000Y-83720000D01*
X145910000Y-69020000D02*
X146910000Y-69020000D01*
X137910000Y-83720000D02*
X138410000Y-84220000D01*
X146910000Y-82020000D02*
X146910000Y-83020000D01*
X138410000Y-84220000D02*
X141410000Y-84220000D01*
X138410000Y-79720000D02*
X140910000Y-79720000D01*
X146910000Y-69020000D02*
X146910000Y-70020000D01*
X132910000Y-69020000D02*
X133910000Y-69020000D01*
X146910000Y-81620000D02*
X146910000Y-82220000D01*
X133910000Y-83020000D02*
X132910000Y-83020000D01*
X146910000Y-77520000D02*
X146910000Y-78020000D01*
X137910000Y-80220000D02*
X138410000Y-79720000D01*
X141910000Y-82720000D02*
X141910000Y-83720000D01*
X146910000Y-83020000D02*
X145910000Y-83020000D01*
X142410000Y-82220000D02*
G75*
G03*
X141910000Y-82720000I0J-500000D01*
G01*
X140910000Y-79720000D02*
G75*
G03*
X142410000Y-78220000I0J1500000D01*
G01*
%TO.C,SW12*%
X164910000Y-84400000D02*
X164910000Y-85400000D01*
X155910000Y-82600000D02*
X156410000Y-82100000D01*
X151910000Y-85400000D02*
X150910000Y-85400000D01*
X164910000Y-85400000D02*
X163910000Y-85400000D01*
X164910000Y-84600000D02*
X160410000Y-84600000D01*
X159410000Y-86600000D02*
X159910000Y-86100000D01*
X164910000Y-84000000D02*
X164910000Y-84600000D01*
X150910000Y-72400000D02*
X150910000Y-71400000D01*
X155910000Y-86100000D02*
X156410000Y-86600000D01*
X160410000Y-80600000D02*
X160410000Y-79900000D01*
X159910000Y-85100000D02*
X159910000Y-86100000D01*
X164910000Y-79900000D02*
X164910000Y-80400000D01*
X156410000Y-82100000D02*
X158910000Y-82100000D01*
X160410000Y-79900000D02*
X164910000Y-79900000D01*
X156410000Y-86600000D02*
X159410000Y-86600000D01*
X164910000Y-71400000D02*
X164910000Y-72400000D01*
X150910000Y-71400000D02*
X151910000Y-71400000D01*
X163910000Y-71400000D02*
X164910000Y-71400000D01*
X150910000Y-85400000D02*
X150910000Y-84400000D01*
X160410000Y-84600000D02*
G75*
G03*
X159910000Y-85100000I0J-500000D01*
G01*
X158910000Y-82100000D02*
G75*
G03*
X160410000Y-80600000I0J1500000D01*
G01*
%TO.C,SW14*%
X92910000Y-110400000D02*
X92910000Y-111400000D01*
X88410000Y-105900000D02*
X92910000Y-105900000D01*
X92910000Y-97400000D02*
X92910000Y-98400000D01*
X87410000Y-112600000D02*
X87910000Y-112100000D01*
X83910000Y-112100000D02*
X84410000Y-112600000D01*
X79910000Y-111400000D02*
X78910000Y-111400000D01*
X83910000Y-108600000D02*
X84410000Y-108100000D01*
X78910000Y-97400000D02*
X79910000Y-97400000D01*
X91910000Y-97400000D02*
X92910000Y-97400000D01*
X78910000Y-98400000D02*
X78910000Y-97400000D01*
X92910000Y-110000000D02*
X92910000Y-110600000D01*
X88410000Y-106600000D02*
X88410000Y-105900000D01*
X92910000Y-111400000D02*
X91910000Y-111400000D01*
X92910000Y-105900000D02*
X92910000Y-106400000D01*
X84410000Y-108100000D02*
X86910000Y-108100000D01*
X78910000Y-111400000D02*
X78910000Y-110400000D01*
X92910000Y-110600000D02*
X88410000Y-110600000D01*
X84410000Y-112600000D02*
X87410000Y-112600000D01*
X87910000Y-111100000D02*
X87910000Y-112100000D01*
X88410000Y-110600000D02*
G75*
G03*
X87910000Y-111100000I0J-500000D01*
G01*
X86910000Y-108100000D02*
G75*
G03*
X88410000Y-106600000I0J1500000D01*
G01*
%TO.C,SW15*%
X106410000Y-93900000D02*
X110910000Y-93900000D01*
X105410000Y-100600000D02*
X105910000Y-100100000D01*
X110910000Y-99400000D02*
X109910000Y-99400000D01*
X110910000Y-98000000D02*
X110910000Y-98600000D01*
X110910000Y-85400000D02*
X110910000Y-86400000D01*
X110910000Y-93900000D02*
X110910000Y-94400000D01*
X110910000Y-98600000D02*
X106410000Y-98600000D01*
X101910000Y-96600000D02*
X102410000Y-96100000D01*
X96910000Y-86400000D02*
X96910000Y-85400000D01*
X105910000Y-99100000D02*
X105910000Y-100100000D01*
X102410000Y-96100000D02*
X104910000Y-96100000D01*
X110910000Y-98400000D02*
X110910000Y-99400000D01*
X96910000Y-85400000D02*
X97910000Y-85400000D01*
X101910000Y-100100000D02*
X102410000Y-100600000D01*
X96910000Y-99400000D02*
X96910000Y-98400000D01*
X106410000Y-94600000D02*
X106410000Y-93900000D01*
X102410000Y-100600000D02*
X105410000Y-100600000D01*
X109910000Y-85400000D02*
X110910000Y-85400000D01*
X97910000Y-99400000D02*
X96910000Y-99400000D01*
X104910000Y-96100000D02*
G75*
G03*
X106410000Y-94600000I0J1500000D01*
G01*
X106410000Y-98600000D02*
G75*
G03*
X105910000Y-99100000I0J-500000D01*
G01*
%TO.C,SW16*%
X120410000Y-94600000D02*
X123410000Y-94600000D01*
X128910000Y-93400000D02*
X127910000Y-93400000D01*
X119910000Y-94100000D02*
X120410000Y-94600000D01*
X128910000Y-92600000D02*
X124410000Y-92600000D01*
X115910000Y-93400000D02*
X114910000Y-93400000D01*
X128910000Y-92000000D02*
X128910000Y-92600000D01*
X123410000Y-94600000D02*
X123910000Y-94100000D01*
X128910000Y-87900000D02*
X128910000Y-88400000D01*
X123910000Y-93100000D02*
X123910000Y-94100000D01*
X127910000Y-79400000D02*
X128910000Y-79400000D01*
X114910000Y-80400000D02*
X114910000Y-79400000D01*
X114910000Y-79400000D02*
X115910000Y-79400000D01*
X124410000Y-88600000D02*
X124410000Y-87900000D01*
X120410000Y-90100000D02*
X122910000Y-90100000D01*
X128910000Y-92400000D02*
X128910000Y-93400000D01*
X114910000Y-93400000D02*
X114910000Y-92400000D01*
X128910000Y-79400000D02*
X128910000Y-80400000D01*
X124410000Y-87900000D02*
X128910000Y-87900000D01*
X119910000Y-90600000D02*
X120410000Y-90100000D01*
X122910000Y-90100000D02*
G75*
G03*
X124410000Y-88600000I0J1500000D01*
G01*
X124410000Y-92600000D02*
G75*
G03*
X123910000Y-93100000I0J-500000D01*
G01*
%TO.C,SW17*%
X141410000Y-101225000D02*
X141910000Y-100725000D01*
X146910000Y-99225000D02*
X142410000Y-99225000D01*
X146910000Y-98625000D02*
X146910000Y-99225000D01*
X132910000Y-100025000D02*
X132910000Y-99025000D01*
X132910000Y-87025000D02*
X132910000Y-86025000D01*
X137910000Y-97225000D02*
X138410000Y-96725000D01*
X133910000Y-100025000D02*
X132910000Y-100025000D01*
X146910000Y-99025000D02*
X146910000Y-100025000D01*
X141910000Y-99725000D02*
X141910000Y-100725000D01*
X138410000Y-101225000D02*
X141410000Y-101225000D01*
X146910000Y-86025000D02*
X146910000Y-87025000D01*
X132910000Y-86025000D02*
X133910000Y-86025000D01*
X142410000Y-95225000D02*
X142410000Y-94525000D01*
X142410000Y-94525000D02*
X146910000Y-94525000D01*
X145910000Y-86025000D02*
X146910000Y-86025000D01*
X138410000Y-96725000D02*
X140910000Y-96725000D01*
X137910000Y-100725000D02*
X138410000Y-101225000D01*
X146910000Y-94525000D02*
X146910000Y-95025000D01*
X146910000Y-100025000D02*
X145910000Y-100025000D01*
X140910000Y-96725000D02*
G75*
G03*
X142410000Y-95225000I0J1500000D01*
G01*
X142410000Y-99225000D02*
G75*
G03*
X141910000Y-99725000I0J-500000D01*
G01*
%TO.C,SW18*%
X164910000Y-101600000D02*
X160410000Y-101600000D01*
X155910000Y-99600000D02*
X156410000Y-99100000D01*
X164910000Y-102400000D02*
X163910000Y-102400000D01*
X163910000Y-88400000D02*
X164910000Y-88400000D01*
X159410000Y-103600000D02*
X159910000Y-103100000D01*
X156410000Y-99100000D02*
X158910000Y-99100000D01*
X150910000Y-89400000D02*
X150910000Y-88400000D01*
X160410000Y-97600000D02*
X160410000Y-96900000D01*
X164910000Y-101400000D02*
X164910000Y-102400000D01*
X164910000Y-101000000D02*
X164910000Y-101600000D01*
X150910000Y-88400000D02*
X151910000Y-88400000D01*
X164910000Y-88400000D02*
X164910000Y-89400000D01*
X164910000Y-96900000D02*
X164910000Y-97400000D01*
X151910000Y-102400000D02*
X150910000Y-102400000D01*
X155910000Y-103100000D02*
X156410000Y-103600000D01*
X150910000Y-102400000D02*
X150910000Y-101400000D01*
X160410000Y-96900000D02*
X164910000Y-96900000D01*
X156410000Y-103600000D02*
X159410000Y-103600000D01*
X159910000Y-102100000D02*
X159910000Y-103100000D01*
X158910000Y-99100000D02*
G75*
G03*
X160410000Y-97600000I0J1500000D01*
G01*
X160410000Y-101600000D02*
G75*
G03*
X159910000Y-102100000I0J-500000D01*
G01*
%TO.C,SW19*%
X134163290Y-107724989D02*
X133621615Y-107270470D01*
X140425453Y-121933273D02*
X139429258Y-122020428D01*
X127474922Y-123066297D02*
X126478727Y-123153453D01*
X134468335Y-111211671D02*
X134013816Y-111753346D01*
X133621615Y-107270470D02*
X130633031Y-107531937D01*
X125380565Y-110601400D02*
X125328272Y-110003683D01*
X130220780Y-114293597D02*
X125737903Y-114685798D01*
X130633031Y-107531937D02*
X130178511Y-108073612D01*
X139205273Y-107986547D02*
X139292428Y-108982742D01*
X140338297Y-120937078D02*
X140425453Y-121933273D01*
X125345703Y-110202922D02*
X125258547Y-109206727D01*
X125258547Y-109206727D02*
X126254742Y-109119572D01*
X134013816Y-111753346D02*
X131523329Y-111971235D01*
X126478727Y-123153453D02*
X126391572Y-122157258D01*
X125328272Y-110003683D02*
X129811148Y-109611482D01*
X130265667Y-109069807D02*
X130178511Y-108073612D01*
X138209078Y-108073703D02*
X139205273Y-107986547D01*
X130159771Y-113596261D02*
X130220780Y-114293597D01*
X125737903Y-114685798D02*
X125694326Y-114187701D01*
X131523329Y-111971235D02*
G75*
G03*
X130159771Y-113596261I130734J-1494292D01*
G01*
X129811148Y-109611482D02*
G75*
G03*
X130265667Y-109069807I-43578J498097D01*
G01*
%TO.C,SW20*%
X155520444Y-111560294D02*
X154978768Y-112014813D01*
X150802247Y-113857819D02*
X146319371Y-113465618D01*
X151753554Y-108721184D02*
X151840710Y-107724989D01*
X146729003Y-108783503D02*
X151211879Y-109175704D01*
X145578547Y-121933273D02*
X145665703Y-120937078D01*
X154978768Y-112014813D02*
X152488282Y-111796924D01*
X150863256Y-113160482D02*
X150802247Y-113857819D01*
X159749258Y-109119572D02*
X160745453Y-109206727D01*
X155825489Y-108073612D02*
X155370969Y-107531937D01*
X152382385Y-107270470D02*
X151840710Y-107724989D01*
X146574742Y-122020428D02*
X145578547Y-121933273D01*
X159612428Y-122157258D02*
X159525273Y-123153453D01*
X155370969Y-107531937D02*
X152382385Y-107270470D01*
X159525273Y-123153453D02*
X158529078Y-123066297D01*
X146676709Y-109381219D02*
X146729003Y-108783503D01*
X146798727Y-107986547D02*
X147794922Y-108073703D01*
X146319371Y-113465618D02*
X146362949Y-112967520D01*
X146711572Y-108982742D02*
X146798727Y-107986547D01*
X160745453Y-109206727D02*
X160658297Y-110202922D01*
X151211879Y-109175703D02*
G75*
G03*
X151753554Y-108721184I43578J498097D01*
G01*
X152488282Y-111796924D02*
G75*
G03*
X150863256Y-113160482I-130734J-1494292D01*
G01*
%TO.C,SW21*%
X172044744Y-114268388D02*
X172286589Y-114932851D01*
X184308482Y-114470173D02*
X183885864Y-115376481D01*
X172286589Y-114932851D02*
X171230043Y-117198620D01*
X166428564Y-121579921D02*
X168330346Y-117501536D01*
X168208204Y-113031069D02*
X166940349Y-115749992D01*
X168872667Y-112789224D02*
X168208204Y-113031069D01*
X165703518Y-121241827D02*
X166126136Y-120335519D01*
X183402175Y-114047555D02*
X184308482Y-114470173D01*
X171197555Y-109459825D02*
X171620173Y-108553518D01*
X168088501Y-116837073D02*
X167182194Y-116414455D01*
X178814445Y-126252175D02*
X178391827Y-127158482D01*
X172589993Y-119487842D02*
X170688210Y-123566227D01*
X166940349Y-115749992D02*
X167182194Y-116414455D01*
X166609825Y-121664445D02*
X165703518Y-121241827D01*
X170688210Y-123566227D02*
X170235057Y-123354918D01*
X171620173Y-108553518D02*
X172526481Y-108976136D01*
X171955577Y-119192009D02*
X172589993Y-119487842D01*
X166972349Y-121833492D02*
X166428564Y-121579921D01*
X178391827Y-127158482D02*
X177485519Y-126735864D01*
X168330346Y-117501536D02*
G75*
G03*
X168088501Y-116837073I-453154J211309D01*
G01*
X171230043Y-117198620D02*
G75*
G03*
X171955577Y-119192009I1359462J-633928D01*
G01*
%TO.C,U1*%
X171326400Y-53179400D02*
X173866400Y-53179400D01*
X189086400Y-83659400D02*
X186546400Y-83659400D01*
X186546400Y-83659400D02*
X186546400Y-53179400D01*
X173866400Y-53179400D02*
X173866400Y-83659400D01*
X189086400Y-53179400D02*
X189086400Y-83659400D01*
X171326400Y-83659400D02*
X171326400Y-53179400D01*
X173866400Y-83659400D02*
X171326400Y-83659400D01*
X186546400Y-53179400D02*
X189086400Y-53179400D01*
%TO.C,JP65*%
X181609000Y-85940400D02*
X179831000Y-85940400D01*
X179831000Y-85940400D02*
X179831000Y-83654400D01*
X181609000Y-83654400D02*
X181609000Y-85940400D01*
X179831000Y-83654400D02*
X181609000Y-83654400D01*
%TO.C,J2*%
X174310000Y-88727400D02*
X184470000Y-88727400D01*
X174310000Y-86187400D02*
X184470000Y-86187400D01*
X174310000Y-88727400D02*
X174310000Y-86187400D01*
X184470000Y-86187400D02*
X184470000Y-88727400D01*
%TO.C,JP63*%
X179009000Y-85960400D02*
X177231000Y-85960400D01*
X179009000Y-83674400D02*
X179009000Y-85960400D01*
X177231000Y-85960400D02*
X177231000Y-83674400D01*
X177231000Y-83674400D02*
X179009000Y-83674400D01*
%TO.C,JP61*%
X176469000Y-85990400D02*
X174691000Y-85990400D01*
X174691000Y-85990400D02*
X174691000Y-83704400D01*
X174691000Y-83704400D02*
X176469000Y-83704400D01*
X176469000Y-83704400D02*
X176469000Y-85990400D01*
%TO.C,JP68*%
X182401000Y-85930800D02*
X182401000Y-83644800D01*
X184179000Y-83644800D02*
X184179000Y-85930800D01*
X184179000Y-85930800D02*
X182401000Y-85930800D01*
X182401000Y-83644800D02*
X184179000Y-83644800D01*
%TO.C,RSW1*%
X179900000Y-93900000D02*
X185900000Y-93900000D01*
X185900000Y-90400000D02*
X185900000Y-90650000D01*
X179900000Y-90400000D02*
X185900000Y-90400000D01*
X179900000Y-93900000D02*
X179900000Y-93650000D01*
X185900000Y-93900000D02*
X185900000Y-93650000D01*
X179900000Y-90400000D02*
X179900000Y-90650000D01*
%TO.C,D14*%
X70608800Y-97501200D02*
X65208800Y-97501200D01*
X65208800Y-99001200D02*
X70608800Y-99001200D01*
X67408800Y-97751200D02*
X67408800Y-98751200D01*
X70608800Y-99001200D02*
X70608800Y-97501200D01*
X65208800Y-97501200D02*
X65208800Y-99001200D01*
X68408800Y-97751200D02*
X68408800Y-98751200D01*
X67508800Y-98251200D02*
X68408800Y-97751200D01*
X68408800Y-98751200D02*
X67508800Y-98251200D01*
D13*
%TO.C,POWER*%
X191785000Y-89540000D02*
X193075000Y-89540000D01*
X193075000Y-89540000D02*
X193285000Y-89340000D01*
X188935000Y-89740000D02*
X188935000Y-88040000D01*
X188935000Y-86740000D02*
X188935000Y-86540000D01*
X193075000Y-88240000D02*
X193285000Y-88440000D01*
X189985000Y-91590000D02*
X190775000Y-91590000D01*
X191785000Y-90990000D02*
X191785000Y-85290000D01*
X190775000Y-84690000D02*
X189985000Y-84690000D01*
X193285000Y-89340000D02*
X193285000Y-88440000D01*
X193075000Y-88240000D02*
X191785000Y-88240000D01*
D11*
%TO.C,D2*%
X67610400Y-64316800D02*
X68510400Y-63816800D01*
X70710400Y-63566800D02*
X65310400Y-63566800D01*
X65310400Y-65066800D02*
X70710400Y-65066800D01*
X68510400Y-63816800D02*
X68510400Y-64816800D01*
X68510400Y-64816800D02*
X67610400Y-64316800D01*
X70710400Y-65066800D02*
X70710400Y-63566800D01*
X65310400Y-63566800D02*
X65310400Y-65066800D01*
X67510400Y-63816800D02*
X67510400Y-64816800D01*
%TO.C,SW2*%
X74916000Y-77404000D02*
X73916000Y-77404000D01*
X69916000Y-77104000D02*
X69916000Y-78104000D01*
X70416000Y-72604000D02*
X70416000Y-71904000D01*
X60916000Y-63404000D02*
X61916000Y-63404000D01*
X66416000Y-74104000D02*
X68916000Y-74104000D01*
X70416000Y-71904000D02*
X74916000Y-71904000D01*
X60916000Y-77404000D02*
X60916000Y-76404000D01*
X66416000Y-78604000D02*
X69416000Y-78604000D01*
X74916000Y-76404000D02*
X74916000Y-77404000D01*
X73916000Y-63404000D02*
X74916000Y-63404000D01*
X74916000Y-76604000D02*
X70416000Y-76604000D01*
X65916000Y-78104000D02*
X66416000Y-78604000D01*
X74916000Y-63404000D02*
X74916000Y-64404000D01*
X60916000Y-64404000D02*
X60916000Y-63404000D01*
X69416000Y-78604000D02*
X69916000Y-78104000D01*
X74916000Y-71904000D02*
X74916000Y-72404000D01*
X61916000Y-77404000D02*
X60916000Y-77404000D01*
X65916000Y-74604000D02*
X66416000Y-74104000D01*
X74916000Y-76004000D02*
X74916000Y-76604000D01*
X68916000Y-74104000D02*
G75*
G03*
X70416000Y-72604000I0J1500000D01*
G01*
X70416000Y-76604000D02*
G75*
G03*
X69916000Y-77104000I0J-500000D01*
G01*
%TO.C,D8*%
X68408800Y-81733200D02*
X67508800Y-81233200D01*
X65208800Y-80483200D02*
X65208800Y-81983200D01*
X65208800Y-81983200D02*
X70608800Y-81983200D01*
X67508800Y-81233200D02*
X68408800Y-80733200D01*
X70608800Y-81983200D02*
X70608800Y-80483200D01*
X70608800Y-80483200D02*
X65208800Y-80483200D01*
X67408800Y-80733200D02*
X67408800Y-81733200D01*
X68408800Y-80733200D02*
X68408800Y-81733200D01*
%TO.C,SW8*%
X61916000Y-94404000D02*
X60916000Y-94404000D01*
X60916000Y-94404000D02*
X60916000Y-93404000D01*
X74916000Y-93604000D02*
X70416000Y-93604000D01*
X60916000Y-81404000D02*
X60916000Y-80404000D01*
X66416000Y-91104000D02*
X68916000Y-91104000D01*
X74916000Y-93004000D02*
X74916000Y-93604000D01*
X74916000Y-88904000D02*
X74916000Y-89404000D01*
X66416000Y-95604000D02*
X69416000Y-95604000D01*
X70416000Y-88904000D02*
X74916000Y-88904000D01*
X70416000Y-89604000D02*
X70416000Y-88904000D01*
X74916000Y-94404000D02*
X73916000Y-94404000D01*
X65916000Y-91604000D02*
X66416000Y-91104000D01*
X60916000Y-80404000D02*
X61916000Y-80404000D01*
X69416000Y-95604000D02*
X69916000Y-95104000D01*
X69916000Y-94104000D02*
X69916000Y-95104000D01*
X73916000Y-80404000D02*
X74916000Y-80404000D01*
X65916000Y-95104000D02*
X66416000Y-95604000D01*
X74916000Y-80404000D02*
X74916000Y-81404000D01*
X74916000Y-93404000D02*
X74916000Y-94404000D01*
X70416000Y-93604000D02*
G75*
G03*
X69916000Y-94104000I0J-500000D01*
G01*
X68916000Y-91104000D02*
G75*
G03*
X70416000Y-89604000I0J1500000D01*
G01*
%TO.C,SW14*%
X70416000Y-105904000D02*
X74916000Y-105904000D01*
X66416000Y-112604000D02*
X69416000Y-112604000D01*
X69416000Y-112604000D02*
X69916000Y-112104000D01*
X74916000Y-97404000D02*
X74916000Y-98404000D01*
X74916000Y-111404000D02*
X73916000Y-111404000D01*
X69916000Y-111104000D02*
X69916000Y-112104000D01*
X74916000Y-110604000D02*
X70416000Y-110604000D01*
X61916000Y-111404000D02*
X60916000Y-111404000D01*
X60916000Y-111404000D02*
X60916000Y-110404000D01*
X73916000Y-97404000D02*
X74916000Y-97404000D01*
X74916000Y-110404000D02*
X74916000Y-111404000D01*
X66416000Y-108104000D02*
X68916000Y-108104000D01*
X65916000Y-108604000D02*
X66416000Y-108104000D01*
X65916000Y-112104000D02*
X66416000Y-112604000D01*
X70416000Y-106604000D02*
X70416000Y-105904000D01*
X60916000Y-97404000D02*
X61916000Y-97404000D01*
X74916000Y-110004000D02*
X74916000Y-110604000D01*
X60916000Y-98404000D02*
X60916000Y-97404000D01*
X74916000Y-105904000D02*
X74916000Y-106404000D01*
X70416000Y-110604000D02*
G75*
G03*
X69916000Y-111104000I0J-500000D01*
G01*
X68916000Y-108104000D02*
G75*
G03*
X70416000Y-106604000I0J1500000D01*
G01*
%TD*%
D14*
%TO.C,D2*%
X82194400Y-64312800D03*
D15*
X89814400Y-64312800D03*
%TD*%
D14*
%TO.C,D3*%
X100279200Y-52273200D03*
D15*
X107899200Y-52273200D03*
%TD*%
D14*
%TO.C,D4*%
X118262400Y-46228000D03*
D15*
X125882400Y-46228000D03*
%TD*%
D14*
%TO.C,D5*%
X136194800Y-53289200D03*
D15*
X143814800Y-53289200D03*
%TD*%
D14*
%TO.C,D6*%
X154178000Y-55422800D03*
D15*
X161798000Y-55422800D03*
%TD*%
D14*
%TO.C,D8*%
X82092800Y-81229200D03*
D15*
X89712800Y-81229200D03*
%TD*%
D14*
%TO.C,D9*%
X100076000Y-69342000D03*
D15*
X107696000Y-69342000D03*
%TD*%
D14*
%TO.C,D10*%
X118160800Y-63347600D03*
D15*
X125780800Y-63347600D03*
%TD*%
D14*
%TO.C,D11*%
X136144000Y-69900800D03*
D15*
X143764000Y-69900800D03*
%TD*%
D14*
%TO.C,D12*%
X154482800Y-72491600D03*
D15*
X162102800Y-72491600D03*
%TD*%
D14*
%TO.C,D14*%
X82092800Y-98247200D03*
D15*
X89712800Y-98247200D03*
%TD*%
D14*
%TO.C,D15*%
X100177600Y-86309200D03*
D15*
X107797600Y-86309200D03*
%TD*%
D14*
%TO.C,D16*%
X118160800Y-80314800D03*
D15*
X125780800Y-80314800D03*
%TD*%
D14*
%TO.C,D17*%
X136245600Y-86969600D03*
D15*
X143865600Y-86969600D03*
%TD*%
D14*
%TO.C,D18*%
X154279600Y-89357200D03*
D15*
X161899600Y-89357200D03*
%TD*%
D16*
%TO.C,D19*%
X137145502Y-120825937D03*
D15*
X129554498Y-121490063D03*
%TD*%
D17*
%TO.C,D20*%
X156449502Y-121490063D03*
D15*
X148858498Y-120825937D03*
%TD*%
D18*
%TO.C,D21*%
X181696176Y-116688967D03*
D15*
X178475824Y-123595033D03*
%TD*%
D19*
%TO.C,J1*%
X190362600Y-98820000D03*
X183362600Y-98820000D03*
X190362600Y-100570000D03*
X183362600Y-100570000D03*
D20*
X180062600Y-100920000D03*
X180062600Y-98470000D03*
X188562600Y-102670000D03*
X188562600Y-96720000D03*
X185562600Y-96720000D03*
X185562600Y-102670000D03*
X181562600Y-96720000D03*
X181562600Y-102670000D03*
%TD*%
D21*
%TO.C,U1*%
X171270000Y-55719400D03*
X187816400Y-54449400D03*
X187816400Y-56989400D03*
X171270000Y-58259400D03*
X187816400Y-59529400D03*
X171270000Y-60799400D03*
X187816400Y-62069400D03*
X171270000Y-63339400D03*
X171270000Y-65879400D03*
X187816400Y-64609400D03*
X171270000Y-68419400D03*
X187816400Y-67149400D03*
X171270000Y-70959400D03*
X187816400Y-69689400D03*
X171270000Y-73499400D03*
X187816400Y-72229400D03*
X187816400Y-74769400D03*
X171270000Y-76039400D03*
X187816400Y-77309400D03*
X171270000Y-78579400D03*
X187816400Y-79849400D03*
X171270000Y-81119400D03*
X187816400Y-82389400D03*
X171270000Y-83659400D03*
X172596400Y-82389400D03*
X186510000Y-83659400D03*
X172596400Y-79849400D03*
X186510000Y-81119400D03*
X186510000Y-78579400D03*
X172596400Y-77309400D03*
X186510000Y-76039400D03*
X172596400Y-74769400D03*
X186510000Y-73499400D03*
X172596400Y-72229400D03*
X186510000Y-70959400D03*
X172596400Y-69689400D03*
X186510000Y-68419400D03*
X172596400Y-67149400D03*
X172596400Y-64609400D03*
X186510000Y-65879400D03*
X186510000Y-63339400D03*
X172596400Y-62069400D03*
X186510000Y-60799400D03*
X172596400Y-59529400D03*
X172596400Y-56989400D03*
X186510000Y-58259400D03*
X186510000Y-55719400D03*
X172596400Y-54449400D03*
%TD*%
D15*
%TO.C,J2*%
X175580000Y-87457400D03*
X178120000Y-87457400D03*
X180660000Y-87457400D03*
X183200000Y-87457400D03*
%TD*%
D22*
%TO.C,RSW1*%
X186150000Y-92150000D03*
X179650000Y-92150000D03*
%TD*%
D14*
%TO.C,D14*%
X64098800Y-98251200D03*
D15*
X71718800Y-98251200D03*
%TD*%
D14*
%TO.C,D2*%
X64200400Y-64316800D03*
D15*
X71820400Y-64316800D03*
%TD*%
D14*
%TO.C,D8*%
X64098800Y-81233200D03*
D15*
X71718800Y-81233200D03*
%TD*%
M02*
