%TF.GenerationSoftware,KiCad,Pcbnew,6.0.8-f2edbf62ab~116~ubuntu22.04.1*%
%TF.CreationDate,2022-10-26T10:35:28+11:00*%
%TF.ProjectId,banach,62616e61-6368-42e6-9b69-6361645f7063,rev1.0*%
%TF.SameCoordinates,Original*%
%TF.FileFunction,Copper,L2,Bot*%
%TF.FilePolarity,Positive*%
%FSLAX46Y46*%
G04 Gerber Fmt 4.6, Leading zero omitted, Abs format (unit mm)*
G04 Created by KiCad (PCBNEW 6.0.8-f2edbf62ab~116~ubuntu22.04.1) date 2022-10-26 10:35:28*
%MOMM*%
%LPD*%
G01*
G04 APERTURE LIST*
G04 Aperture macros list*
%AMRoundRect*
0 Rectangle with rounded corners*
0 $1 Rounding radius*
0 $2 $3 $4 $5 $6 $7 $8 $9 X,Y pos of 4 corners*
0 Add a 4 corners polygon primitive as box body*
4,1,4,$2,$3,$4,$5,$6,$7,$8,$9,$2,$3,0*
0 Add four circle primitives for the rounded corners*
1,1,$1+$1,$2,$3*
1,1,$1+$1,$4,$5*
1,1,$1+$1,$6,$7*
1,1,$1+$1,$8,$9*
0 Add four rect primitives between the rounded corners*
20,1,$1+$1,$2,$3,$4,$5,0*
20,1,$1+$1,$4,$5,$6,$7,0*
20,1,$1+$1,$6,$7,$8,$9,0*
20,1,$1+$1,$8,$9,$2,$3,0*%
%AMRotRect*
0 Rectangle, with rotation*
0 The origin of the aperture is its center*
0 $1 length*
0 $2 width*
0 $3 Rotation angle, in degrees counterclockwise*
0 Add horizontal line*
21,1,$1,$2,0,0,$3*%
%AMOutline5P*
0 Free polygon, 5 corners , with rotation*
0 The origin of the aperture is its center*
0 number of corners: always 5*
0 $1 to $10 corner X, Y*
0 $11 Rotation angle, in degrees counterclockwise*
0 create outline with 5 corners*
4,1,5,$1,$2,$3,$4,$5,$6,$7,$8,$9,$10,$1,$2,$11*%
%AMOutline6P*
0 Free polygon, 6 corners , with rotation*
0 The origin of the aperture is its center*
0 number of corners: always 6*
0 $1 to $12 corner X, Y*
0 $13 Rotation angle, in degrees counterclockwise*
0 create outline with 6 corners*
4,1,6,$1,$2,$3,$4,$5,$6,$7,$8,$9,$10,$11,$12,$1,$2,$13*%
%AMOutline7P*
0 Free polygon, 7 corners , with rotation*
0 The origin of the aperture is its center*
0 number of corners: always 7*
0 $1 to $14 corner X, Y*
0 $15 Rotation angle, in degrees counterclockwise*
0 create outline with 7 corners*
4,1,7,$1,$2,$3,$4,$5,$6,$7,$8,$9,$10,$11,$12,$13,$14,$1,$2,$15*%
%AMOutline8P*
0 Free polygon, 8 corners , with rotation*
0 The origin of the aperture is its center*
0 number of corners: always 8*
0 $1 to $16 corner X, Y*
0 $17 Rotation angle, in degrees counterclockwise*
0 create outline with 8 corners*
4,1,8,$1,$2,$3,$4,$5,$6,$7,$8,$9,$10,$11,$12,$13,$14,$15,$16,$1,$2,$17*%
G04 Aperture macros list end*
%ADD10C,0.300000*%
%TA.AperFunction,NonConductor*%
%ADD11C,0.300000*%
%TD*%
%TA.AperFunction,ComponentPad*%
%ADD12R,1.397000X1.397000*%
%TD*%
%TA.AperFunction,SMDPad,CuDef*%
%ADD13R,1.300000X0.950000*%
%TD*%
%TA.AperFunction,ComponentPad*%
%ADD14C,1.397000*%
%TD*%
%TA.AperFunction,SMDPad,CuDef*%
%ADD15RotRect,1.300000X0.950000X185.000000*%
%TD*%
%TA.AperFunction,ComponentPad*%
%ADD16RotRect,1.397000X1.397000X185.000000*%
%TD*%
%TA.AperFunction,SMDPad,CuDef*%
%ADD17RotRect,1.300000X0.950000X175.000000*%
%TD*%
%TA.AperFunction,ComponentPad*%
%ADD18RotRect,1.397000X1.397000X175.000000*%
%TD*%
%TA.AperFunction,ComponentPad*%
%ADD19RotRect,1.397000X1.397000X245.000000*%
%TD*%
%TA.AperFunction,SMDPad,CuDef*%
%ADD20RotRect,1.300000X0.950000X245.000000*%
%TD*%
%TA.AperFunction,ComponentPad*%
%ADD21O,2.500000X1.700000*%
%TD*%
%TA.AperFunction,SMDPad,CuDef*%
%ADD22Outline5P,-1.300000X1.300000X0.130000X1.300000X1.300000X0.130000X1.300000X-1.300000X-1.300000X-1.300000X0.000000*%
%TD*%
%TA.AperFunction,SMDPad,CuDef*%
%ADD23R,1.875000X2.600000*%
%TD*%
%TA.AperFunction,SMDPad,CuDef*%
%ADD24Outline5P,-1.025000X0.275000X0.000000X1.300000X1.025000X1.300000X1.025000X-1.300000X-1.025000X-1.300000X0.000000*%
%TD*%
%TA.AperFunction,SMDPad,CuDef*%
%ADD25R,2.600000X2.600000*%
%TD*%
%TA.AperFunction,SMDPad,CuDef*%
%ADD26Outline5P,-1.300000X1.300000X0.130000X1.300000X1.300000X0.130000X1.300000X-1.300000X-1.300000X-1.300000X185.000000*%
%TD*%
%TA.AperFunction,SMDPad,CuDef*%
%ADD27RotRect,2.600000X2.600000X185.000000*%
%TD*%
%TA.AperFunction,SMDPad,CuDef*%
%ADD28Outline5P,-1.300000X1.300000X0.130000X1.300000X1.300000X0.130000X1.300000X-1.300000X-1.300000X-1.300000X175.000000*%
%TD*%
%TA.AperFunction,SMDPad,CuDef*%
%ADD29RotRect,2.600000X2.600000X175.000000*%
%TD*%
%TA.AperFunction,SMDPad,CuDef*%
%ADD30Outline5P,-1.300000X1.300000X0.130000X1.300000X1.300000X0.130000X1.300000X-1.300000X-1.300000X-1.300000X245.000000*%
%TD*%
%TA.AperFunction,SMDPad,CuDef*%
%ADD31RotRect,2.600000X2.600000X245.000000*%
%TD*%
%TA.AperFunction,ComponentPad*%
%ADD32C,1.524000*%
%TD*%
%TA.AperFunction,ComponentPad*%
%ADD33C,2.000000*%
%TD*%
%TA.AperFunction,ComponentPad*%
%ADD34C,4.000000*%
%TD*%
%TA.AperFunction,SMDPad,CuDef*%
%ADD35R,1.850000X2.600000*%
%TD*%
%TA.AperFunction,SMDPad,CuDef*%
%ADD36R,1.143000X0.635000*%
%TD*%
%TA.AperFunction,SMDPad,CuDef*%
%ADD37R,0.800000X1.000000*%
%TD*%
%TA.AperFunction,SMDPad,CuDef*%
%ADD38R,1.500000X0.700000*%
%TD*%
%TA.AperFunction,SMDPad,CuDef*%
%ADD39RoundRect,0.250000X-0.250000X-0.750000X0.250000X-0.750000X0.250000X0.750000X-0.250000X0.750000X0*%
%TD*%
%TA.AperFunction,ViaPad*%
%ADD40C,0.600000*%
%TD*%
%TA.AperFunction,Conductor*%
%ADD41C,0.250000*%
%TD*%
%TA.AperFunction,Conductor*%
%ADD42C,0.200000*%
%TD*%
G04 APERTURE END LIST*
D10*
D11*
X115438714Y-108497714D02*
X115010142Y-108640571D01*
X114867285Y-108783428D01*
X114724428Y-109069142D01*
X114724428Y-109497714D01*
X114867285Y-109783428D01*
X115010142Y-109926285D01*
X115295857Y-110069142D01*
X116438714Y-110069142D01*
X116438714Y-107069142D01*
X115438714Y-107069142D01*
X115153000Y-107212000D01*
X115010142Y-107354857D01*
X114867285Y-107640571D01*
X114867285Y-107926285D01*
X115010142Y-108212000D01*
X115153000Y-108354857D01*
X115438714Y-108497714D01*
X116438714Y-108497714D01*
X112153000Y-110069142D02*
X112153000Y-108497714D01*
X112295857Y-108212000D01*
X112581571Y-108069142D01*
X113153000Y-108069142D01*
X113438714Y-108212000D01*
X112153000Y-109926285D02*
X112438714Y-110069142D01*
X113153000Y-110069142D01*
X113438714Y-109926285D01*
X113581571Y-109640571D01*
X113581571Y-109354857D01*
X113438714Y-109069142D01*
X113153000Y-108926285D01*
X112438714Y-108926285D01*
X112153000Y-108783428D01*
X110724428Y-108069142D02*
X110724428Y-110069142D01*
X110724428Y-108354857D02*
X110581571Y-108212000D01*
X110295857Y-108069142D01*
X109867285Y-108069142D01*
X109581571Y-108212000D01*
X109438714Y-108497714D01*
X109438714Y-110069142D01*
X106724428Y-110069142D02*
X106724428Y-108497714D01*
X106867285Y-108212000D01*
X107153000Y-108069142D01*
X107724428Y-108069142D01*
X108010142Y-108212000D01*
X106724428Y-109926285D02*
X107010142Y-110069142D01*
X107724428Y-110069142D01*
X108010142Y-109926285D01*
X108153000Y-109640571D01*
X108153000Y-109354857D01*
X108010142Y-109069142D01*
X107724428Y-108926285D01*
X107010142Y-108926285D01*
X106724428Y-108783428D01*
X104010142Y-109926285D02*
X104295857Y-110069142D01*
X104867285Y-110069142D01*
X105153000Y-109926285D01*
X105295857Y-109783428D01*
X105438714Y-109497714D01*
X105438714Y-108640571D01*
X105295857Y-108354857D01*
X105153000Y-108212000D01*
X104867285Y-108069142D01*
X104295857Y-108069142D01*
X104010142Y-108212000D01*
X102724428Y-110069142D02*
X102724428Y-107069142D01*
X101438714Y-110069142D02*
X101438714Y-108497714D01*
X101581571Y-108212000D01*
X101867285Y-108069142D01*
X102295857Y-108069142D01*
X102581571Y-108212000D01*
X102724428Y-108354857D01*
D12*
%TO.P,D2,1*%
%TO.N,row0*%
X82194400Y-64312800D03*
D13*
X84229400Y-64312800D03*
%TO.P,D2,2*%
%TO.N,Net-(D2-Pad2)*%
X87779400Y-64312800D03*
D14*
X89814400Y-64312800D03*
%TD*%
D12*
%TO.P,D3,1*%
%TO.N,row0*%
X100279200Y-52273200D03*
D13*
X102314200Y-52273200D03*
D14*
%TO.P,D3,2*%
%TO.N,Net-(D3-Pad2)*%
X107899200Y-52273200D03*
D13*
X105864200Y-52273200D03*
%TD*%
D12*
%TO.P,D4,1*%
%TO.N,row0*%
X118262400Y-46228000D03*
D13*
X120297400Y-46228000D03*
D14*
%TO.P,D4,2*%
%TO.N,Net-(D4-Pad2)*%
X125882400Y-46228000D03*
D13*
X123847400Y-46228000D03*
%TD*%
%TO.P,D5,1*%
%TO.N,row0*%
X138229800Y-53289200D03*
D12*
X136194800Y-53289200D03*
D13*
%TO.P,D5,2*%
%TO.N,Net-(D5-Pad2)*%
X141779800Y-53289200D03*
D14*
X143814800Y-53289200D03*
%TD*%
D12*
%TO.P,D6,1*%
%TO.N,row0*%
X154178000Y-55422800D03*
D13*
X156213000Y-55422800D03*
%TO.P,D6,2*%
%TO.N,Net-(D6-Pad2)*%
X159763000Y-55422800D03*
D14*
X161798000Y-55422800D03*
%TD*%
D12*
%TO.P,D8,1*%
%TO.N,row1*%
X82092800Y-81229200D03*
D13*
X84127800Y-81229200D03*
D14*
%TO.P,D8,2*%
%TO.N,Net-(D8-Pad2)*%
X89712800Y-81229200D03*
D13*
X87677800Y-81229200D03*
%TD*%
D12*
%TO.P,D9,1*%
%TO.N,row1*%
X100076000Y-69342000D03*
D13*
X102111000Y-69342000D03*
D14*
%TO.P,D9,2*%
%TO.N,Net-(D9-Pad2)*%
X107696000Y-69342000D03*
D13*
X105661000Y-69342000D03*
%TD*%
%TO.P,D10,1*%
%TO.N,row1*%
X120195800Y-63347600D03*
D12*
X118160800Y-63347600D03*
D13*
%TO.P,D10,2*%
%TO.N,Net-(D10-Pad2)*%
X123745800Y-63347600D03*
D14*
X125780800Y-63347600D03*
%TD*%
D13*
%TO.P,D11,1*%
%TO.N,row1*%
X138179000Y-69900800D03*
D12*
X136144000Y-69900800D03*
D14*
%TO.P,D11,2*%
%TO.N,Net-(D11-Pad2)*%
X143764000Y-69900800D03*
D13*
X141729000Y-69900800D03*
%TD*%
%TO.P,D12,1*%
%TO.N,row1*%
X156517800Y-72491600D03*
D12*
X154482800Y-72491600D03*
D13*
%TO.P,D12,2*%
%TO.N,Net-(D12-Pad2)*%
X160067800Y-72491600D03*
D14*
X162102800Y-72491600D03*
%TD*%
D12*
%TO.P,D14,1*%
%TO.N,row2*%
X82092800Y-98247200D03*
D13*
X84127800Y-98247200D03*
D14*
%TO.P,D14,2*%
%TO.N,Net-(D14-Pad2)*%
X89712800Y-98247200D03*
D13*
X87677800Y-98247200D03*
%TD*%
D12*
%TO.P,D15,1*%
%TO.N,row2*%
X100177600Y-86309200D03*
D13*
X102212600Y-86309200D03*
D14*
%TO.P,D15,2*%
%TO.N,Net-(D15-Pad2)*%
X107797600Y-86309200D03*
D13*
X105762600Y-86309200D03*
%TD*%
D12*
%TO.P,D16,1*%
%TO.N,row2*%
X118160800Y-80314800D03*
D13*
X120195800Y-80314800D03*
%TO.P,D16,2*%
%TO.N,Net-(D16-Pad2)*%
X123745800Y-80314800D03*
D14*
X125780800Y-80314800D03*
%TD*%
D12*
%TO.P,D17,1*%
%TO.N,row2*%
X136245600Y-86969600D03*
D13*
X138280600Y-86969600D03*
D14*
%TO.P,D17,2*%
%TO.N,Net-(D17-Pad2)*%
X143865600Y-86969600D03*
D13*
X141830600Y-86969600D03*
%TD*%
%TO.P,D18,1*%
%TO.N,row2*%
X156314600Y-89357200D03*
D12*
X154279600Y-89357200D03*
D13*
%TO.P,D18,2*%
%TO.N,Net-(D18-Pad2)*%
X159864600Y-89357200D03*
D14*
X161899600Y-89357200D03*
%TD*%
D15*
%TO.P,D19,1*%
%TO.N,row3*%
X135118246Y-121003299D03*
D16*
X137145502Y-120825937D03*
D15*
%TO.P,D19,2*%
%TO.N,Net-(D19-Pad2)*%
X131581754Y-121312701D03*
D14*
X129554498Y-121490063D03*
%TD*%
D17*
%TO.P,D20,1*%
%TO.N,row3*%
X154422246Y-121312701D03*
D18*
X156449502Y-121490063D03*
D14*
%TO.P,D20,2*%
%TO.N,Net-(D20-Pad2)*%
X148858498Y-120825937D03*
D17*
X150885754Y-121003299D03*
%TD*%
D19*
%TO.P,D21,1*%
%TO.N,row3*%
X181696176Y-116688967D03*
D20*
X180836147Y-118533304D03*
%TO.P,D21,2*%
%TO.N,Net-(D21-Pad2)*%
X179335853Y-121750696D03*
D14*
X178475824Y-123595033D03*
%TD*%
D21*
%TO.P,J1,A*%
%TO.N,Net-(J1-PadA)*%
X180062600Y-100920000D03*
X180062600Y-98470000D03*
%TO.P,J1,B*%
%TO.N,data*%
X188562600Y-102670000D03*
X188562600Y-96720000D03*
%TO.P,J1,C*%
%TO.N,GND*%
X185562600Y-96720000D03*
X185562600Y-102670000D03*
%TO.P,J1,D*%
%TO.N,VCC*%
X181562600Y-96720000D03*
X181562600Y-102670000D03*
%TD*%
D22*
%TO.P,SW2,1*%
%TO.N,col1*%
X89185000Y-76350000D03*
D23*
%TO.P,SW2,2*%
%TO.N,Net-(D2-Pad2)*%
X78010000Y-74150000D03*
%TD*%
D22*
%TO.P,SW3,1*%
%TO.N,col2*%
X107185000Y-64350000D03*
D24*
%TO.P,SW3,2*%
%TO.N,Net-(D3-Pad2)*%
X95960000Y-62150000D03*
%TD*%
D22*
%TO.P,SW4,1*%
%TO.N,col3*%
X125185000Y-58350000D03*
D25*
%TO.P,SW4,2*%
%TO.N,Net-(D4-Pad2)*%
X113635000Y-56150000D03*
%TD*%
D22*
%TO.P,SW5,1*%
%TO.N,col4*%
X143185000Y-64970000D03*
D25*
%TO.P,SW5,2*%
%TO.N,Net-(D5-Pad2)*%
X131635000Y-62770000D03*
%TD*%
D22*
%TO.P,SW6,1*%
%TO.N,col5*%
X161185000Y-67350000D03*
D25*
%TO.P,SW6,2*%
%TO.N,Net-(D6-Pad2)*%
X149635000Y-65150000D03*
%TD*%
D22*
%TO.P,SW8,1*%
%TO.N,col1*%
X89185000Y-93350000D03*
D23*
%TO.P,SW8,2*%
%TO.N,Net-(D8-Pad2)*%
X78010000Y-91150000D03*
%TD*%
D22*
%TO.P,SW9,1*%
%TO.N,col2*%
X107185000Y-81350000D03*
D25*
%TO.P,SW9,2*%
%TO.N,Net-(D9-Pad2)*%
X95635000Y-79150000D03*
%TD*%
D22*
%TO.P,SW10,1*%
%TO.N,col3*%
X125185000Y-75350000D03*
D25*
%TO.P,SW10,2*%
%TO.N,Net-(D10-Pad2)*%
X113635000Y-73150000D03*
%TD*%
D22*
%TO.P,SW11,1*%
%TO.N,col4*%
X143185000Y-81970000D03*
D25*
%TO.P,SW11,2*%
%TO.N,Net-(D11-Pad2)*%
X131635000Y-79770000D03*
%TD*%
D22*
%TO.P,SW12,1*%
%TO.N,col5*%
X161185000Y-84350000D03*
D25*
%TO.P,SW12,2*%
%TO.N,Net-(D12-Pad2)*%
X149635000Y-82150000D03*
%TD*%
D22*
%TO.P,SW14,1*%
%TO.N,col1*%
X89185000Y-110350000D03*
D23*
%TO.P,SW14,2*%
%TO.N,Net-(D14-Pad2)*%
X78010000Y-108150000D03*
%TD*%
D22*
%TO.P,SW15,1*%
%TO.N,col2*%
X107185000Y-98350000D03*
D25*
%TO.P,SW15,2*%
%TO.N,Net-(D15-Pad2)*%
X95635000Y-96150000D03*
%TD*%
D22*
%TO.P,SW16,1*%
%TO.N,col3*%
X125185000Y-92350000D03*
D25*
%TO.P,SW16,2*%
%TO.N,Net-(D16-Pad2)*%
X113635000Y-90150000D03*
%TD*%
D22*
%TO.P,SW17,1*%
%TO.N,col4*%
X143185000Y-98975000D03*
D25*
%TO.P,SW17,2*%
%TO.N,Net-(D17-Pad2)*%
X131635000Y-96775000D03*
%TD*%
D22*
%TO.P,SW18,1*%
%TO.N,col5*%
X161185000Y-101350000D03*
D25*
%TO.P,SW18,2*%
%TO.N,Net-(D18-Pad2)*%
X149635000Y-99150000D03*
%TD*%
D26*
%TO.P,SW19,1*%
%TO.N,col3*%
X129060886Y-109928077D03*
D27*
%TO.P,SW19,2*%
%TO.N,Net-(D19-Pad2)*%
X140758677Y-111113056D03*
%TD*%
D28*
%TO.P,SW20,1*%
%TO.N,col4*%
X150418039Y-109357206D03*
D29*
%TO.P,SW20,2*%
%TO.N,Net-(D20-Pad2)*%
X161732345Y-112555484D03*
%TD*%
D30*
%TO.P,SW21,1*%
%TO.N,col5*%
X168229394Y-118309579D03*
D31*
%TO.P,SW21,2*%
%TO.N,Net-(D21-Pad2)*%
X175104512Y-108771485D03*
%TD*%
D32*
%TO.P,U1,1*%
%TO.N,LED*%
X171270000Y-55719400D03*
X187816400Y-54449400D03*
%TO.P,U1,2*%
%TO.N,data*%
X187816400Y-56989400D03*
X171270000Y-58259400D03*
%TO.P,U1,3*%
%TO.N,GND*%
X187816400Y-59529400D03*
X171270000Y-60799400D03*
%TO.P,U1,4*%
X187816400Y-62069400D03*
X171270000Y-63339400D03*
%TO.P,U1,5*%
%TO.N,SDA*%
X171270000Y-65879400D03*
X187816400Y-64609400D03*
%TO.P,U1,6*%
%TO.N,SCL*%
X171270000Y-68419400D03*
X187816400Y-67149400D03*
%TO.P,U1,7*%
%TO.N,row0*%
X171270000Y-70959400D03*
X187816400Y-69689400D03*
%TO.P,U1,8*%
%TO.N,row1*%
X171270000Y-73499400D03*
X187816400Y-72229400D03*
%TO.P,U1,9*%
%TO.N,row2*%
X187816400Y-74769400D03*
X171270000Y-76039400D03*
%TO.P,U1,10*%
%TO.N,row3*%
X187816400Y-77309400D03*
X171270000Y-78579400D03*
%TO.P,U1,11*%
%TO.N,N/C*%
X187816400Y-79849400D03*
X171270000Y-81119400D03*
%TO.P,U1,12*%
X187816400Y-82389400D03*
X171270000Y-83659400D03*
%TO.P,U1,13*%
X172596400Y-82389400D03*
X186510000Y-83659400D03*
%TO.P,U1,14*%
X172596400Y-79849400D03*
X186510000Y-81119400D03*
%TO.P,U1,15*%
%TO.N,col5*%
X186510000Y-78579400D03*
X172596400Y-77309400D03*
%TO.P,U1,16*%
%TO.N,col4*%
X186510000Y-76039400D03*
X172596400Y-74769400D03*
%TO.P,U1,17*%
%TO.N,col3*%
X186510000Y-73499400D03*
X172596400Y-72229400D03*
%TO.P,U1,18*%
%TO.N,col2*%
X186510000Y-70959400D03*
X172596400Y-69689400D03*
%TO.P,U1,19*%
%TO.N,col1*%
X186510000Y-68419400D03*
X172596400Y-67149400D03*
%TO.P,U1,20*%
%TO.N,col0*%
X172596400Y-64609400D03*
X186510000Y-65879400D03*
%TO.P,U1,21*%
%TO.N,VCC*%
X186510000Y-63339400D03*
X172596400Y-62069400D03*
%TO.P,U1,22*%
%TO.N,reset*%
X186510000Y-60799400D03*
X172596400Y-59529400D03*
%TO.P,U1,23*%
%TO.N,GND*%
X172596400Y-56989400D03*
X186510000Y-58259400D03*
%TO.P,U1,24*%
%TO.N,Net-(U1-Pad24)*%
X186510000Y-55719400D03*
X172596400Y-54449400D03*
%TD*%
D14*
%TO.P,J2,1*%
%TO.N,Net-(U1-Pad14)*%
X175580000Y-87457400D03*
%TO.P,J2,2*%
%TO.N,Net-(U1-Pad13)*%
X178120000Y-87457400D03*
%TO.P,J2,3*%
%TO.N,Net-(U1-Pad11)*%
X180660000Y-87457400D03*
%TO.P,J2,4*%
%TO.N,Net-(U1-Pad12)*%
X183200000Y-87457400D03*
%TD*%
D33*
%TO.P,RSW1,1*%
%TO.N,GND*%
X186150000Y-92150000D03*
%TO.P,RSW1,2*%
%TO.N,reset*%
X179650000Y-92150000D03*
%TD*%
D34*
%TO.P,h4,h4*%
%TO.N,N/C*%
X123952000Y-104140000D03*
%TD*%
D13*
%TO.P,D14,1*%
%TO.N,row2*%
X66133800Y-98251200D03*
D12*
X64098800Y-98251200D03*
D14*
%TO.P,D14,2*%
%TO.N,N/C*%
X71718800Y-98251200D03*
D13*
X69683800Y-98251200D03*
%TD*%
D34*
%TO.P,h5,h5*%
%TO.N,N/C*%
X95000000Y-83820000D03*
%TD*%
%TO.P,h3,h3*%
%TO.N,N/C*%
X165862000Y-109474000D03*
%TD*%
D12*
%TO.P,D2,1*%
%TO.N,row0*%
X64200400Y-64316800D03*
D13*
X66235400Y-64316800D03*
%TO.P,D2,2*%
%TO.N,N/C*%
X69785400Y-64316800D03*
D14*
X71820400Y-64316800D03*
%TD*%
D22*
%TO.P,SW2,1*%
%TO.N,col0*%
X71191000Y-76354000D03*
D35*
%TO.P,SW2,2*%
%TO.N,N/C*%
X60016000Y-74154000D03*
%TD*%
D34*
%TO.P,h6,h6*%
%TO.N,N/C*%
X95000000Y-66802000D03*
%TD*%
D12*
%TO.P,D8,1*%
%TO.N,row1*%
X64098800Y-81233200D03*
D13*
X66133800Y-81233200D03*
%TO.P,D8,2*%
%TO.N,N/C*%
X69683800Y-81233200D03*
D14*
X71718800Y-81233200D03*
%TD*%
D22*
%TO.P,SW8,1*%
%TO.N,col0*%
X71191000Y-93354000D03*
D23*
%TO.P,SW8,2*%
%TO.N,N/C*%
X60016000Y-91154000D03*
%TD*%
D22*
%TO.P,SW14,1*%
%TO.N,col0*%
X71191000Y-110354000D03*
D23*
%TO.P,SW14,2*%
%TO.N,N/C*%
X60016000Y-108154000D03*
%TD*%
D34*
%TO.P,h7,h7*%
%TO.N,N/C*%
X149100000Y-69700000D03*
%TD*%
D36*
%TO.P,JP64,1*%
%TO.N,VCC*%
X178130000Y-84327020D03*
%TO.P,JP64,2*%
%TO.N,Net-(U1-Pad13)*%
X178130000Y-85327780D03*
%TD*%
%TO.P,JP62,1*%
%TO.N,GND*%
X175580000Y-84356620D03*
%TO.P,JP62,2*%
%TO.N,Net-(U1-Pad14)*%
X175580000Y-85357380D03*
%TD*%
%TO.P,JP6,1*%
%TO.N,SDA*%
X183290000Y-84277020D03*
%TO.P,JP6,2*%
%TO.N,Net-(U1-Pad12)*%
X183290000Y-85277780D03*
%TD*%
%TO.P,JP66,1*%
%TO.N,SCL*%
X180710000Y-84297020D03*
%TO.P,JP66,2*%
%TO.N,Net-(U1-Pad11)*%
X180710000Y-85297780D03*
%TD*%
D37*
%TO.P,POWER,*%
%TO.N,*%
X191490000Y-91780000D03*
X189280000Y-91780000D03*
X189280000Y-84480000D03*
X191490000Y-84480000D03*
D38*
%TO.P,POWER,1*%
%TO.N,N/C*%
X188630000Y-85880000D03*
%TO.P,POWER,2*%
%TO.N,GND*%
X188630000Y-88880000D03*
%TO.P,POWER,3*%
%TO.N,N/C*%
X188630000Y-90380000D03*
%TD*%
D39*
%TO.P,+ve,1*%
%TO.N,Net-(U1-Pad24)*%
X176276000Y-52832000D03*
%TD*%
%TO.P,-ve,1*%
%TO.N,N/C*%
X184150000Y-52832000D03*
%TD*%
D40*
%TO.N,*%
X75750000Y-91110000D03*
X75800000Y-74100000D03*
X75790000Y-108000000D03*
%TO.N,row0*%
X179450000Y-70959400D03*
X167900000Y-59040000D03*
%TO.N,row1*%
X179450000Y-73499400D03*
%TO.N,Net-(D2-Pad2)*%
X94185000Y-74150000D03*
%TO.N,row2*%
X174505490Y-76039400D03*
X179450000Y-76039400D03*
X173543700Y-88310000D03*
%TO.N,Net-(D3-Pad2)*%
X112185000Y-62150000D03*
X111150400Y-52374800D03*
%TO.N,row3*%
X179450000Y-78579400D03*
%TO.N,Net-(D4-Pad2)*%
X129387600Y-46329600D03*
X130185000Y-56150000D03*
%TO.N,Net-(D5-Pad2)*%
X148031200Y-53441600D03*
X148185000Y-62770000D03*
%TO.N,Net-(D6-Pad2)*%
X166116000Y-55524400D03*
X166185000Y-65150000D03*
%TO.N,Net-(D8-Pad2)*%
X94185000Y-91150000D03*
X89662000Y-84455000D03*
%TO.N,Net-(D9-Pad2)*%
X112185000Y-79150000D03*
X111760000Y-70205600D03*
%TO.N,Net-(D10-Pad2)*%
X130185000Y-73150000D03*
X129489200Y-63652400D03*
%TO.N,Net-(D11-Pad2)*%
X148185000Y-79770000D03*
%TO.N,Net-(D12-Pad2)*%
X166185000Y-82150000D03*
X166116000Y-73863200D03*
%TO.N,Net-(D14-Pad2)*%
X94185000Y-108150000D03*
X93878400Y-98602800D03*
%TO.N,Net-(D15-Pad2)*%
X112185000Y-96150000D03*
X111302800Y-86614000D03*
%TO.N,Net-(D16-Pad2)*%
X130185000Y-90150000D03*
X129082800Y-80873600D03*
%TO.N,Net-(D17-Pad2)*%
X148185000Y-96775000D03*
X148132800Y-87071200D03*
%TO.N,Net-(D18-Pad2)*%
X166185000Y-99150000D03*
X165912800Y-89408000D03*
%TO.N,Net-(D19-Pad2)*%
X124271655Y-112555484D03*
%TO.N,Net-(D20-Pad2)*%
X145245323Y-111113056D03*
%TO.N,Net-(D21-Pad2)*%
X168110180Y-123770878D03*
%TO.N,GND*%
X188625000Y-87390000D03*
X179450000Y-81117400D03*
%TO.N,col0*%
X99670000Y-83270000D03*
X142560000Y-84600000D03*
X152187742Y-70272258D03*
X64641000Y-110354000D03*
X64641000Y-93354000D03*
X87400000Y-79310000D03*
X181482000Y-67105400D03*
X64650000Y-76250000D03*
%TO.N,col1*%
X94589600Y-93776800D03*
X144723000Y-101473000D03*
X181482000Y-69645400D03*
X167233600Y-68333600D03*
X82635000Y-110350000D03*
X92252800Y-93878400D03*
X82635000Y-93350000D03*
X82635000Y-76350000D03*
%TO.N,col2*%
X100635000Y-64350000D03*
X181482000Y-72185400D03*
X100635000Y-81350000D03*
X100635000Y-98350000D03*
%TO.N,col3*%
X118635000Y-96525000D03*
X181482000Y-74725400D03*
X118635000Y-58350000D03*
X129060886Y-109928077D03*
X118635000Y-92350000D03*
X118635000Y-75350000D03*
X121767600Y-65430400D03*
%TO.N,col4*%
X136635000Y-98975000D03*
X136635000Y-64970000D03*
X181609000Y-77265400D03*
X136635000Y-81970000D03*
X150418039Y-109357206D03*
X138531600Y-72745600D03*
%TO.N,col5*%
X168215907Y-118296093D03*
X154635000Y-101350000D03*
X154635000Y-67350000D03*
X154635000Y-84350000D03*
X181609000Y-79805400D03*
%TO.N,reset*%
X184610000Y-82320000D03*
X181736000Y-82320000D03*
%TO.N,SCL*%
X179450000Y-68419400D03*
%TO.N,SDA*%
X179450000Y-65879400D03*
%TD*%
D41*
%TO.N,*%
X189612000Y-52832000D02*
X184150000Y-52832000D01*
X188630000Y-85880000D02*
X190250000Y-85880000D01*
X190250000Y-85880000D02*
X190450000Y-85680000D01*
X190450000Y-85680000D02*
X190450000Y-53670000D01*
X190450000Y-53670000D02*
X189612000Y-52832000D01*
%TO.N,Net-(U1-Pad24)*%
X176276000Y-52832000D02*
X173990000Y-52832000D01*
X173990000Y-52832000D02*
X172596400Y-54225600D01*
X172596400Y-54225600D02*
X172596400Y-54449400D01*
%TO.N,*%
X60016000Y-108154000D02*
X62210000Y-105960000D01*
X61620000Y-88930000D02*
X60016000Y-90534000D01*
X69740000Y-107820000D02*
X70060000Y-107820000D01*
X75800000Y-73590000D02*
X74250000Y-72040000D01*
X69950000Y-73790000D02*
X65940000Y-73790000D01*
X64510000Y-105960000D02*
X66280000Y-107730000D01*
X64430000Y-88930000D02*
X61620000Y-88930000D01*
X71860000Y-106020000D02*
X74250000Y-106020000D01*
X75790000Y-107560000D02*
X75790000Y-108000000D01*
X65940000Y-73790000D02*
X64190000Y-72040000D01*
D42*
X69785400Y-64316800D02*
X71820400Y-64316800D01*
D41*
X75750000Y-91110000D02*
X75750000Y-90360000D01*
X64190000Y-72040000D02*
X62130000Y-72040000D01*
X66370000Y-107820000D02*
X69740000Y-107820000D01*
X71420000Y-88900000D02*
X69860000Y-90460000D01*
X74250000Y-72040000D02*
X71700000Y-72040000D01*
X74250000Y-106020000D02*
X75790000Y-107560000D01*
X62210000Y-105960000D02*
X62470000Y-105960000D01*
X75800000Y-74100000D02*
X75800000Y-73590000D01*
D42*
X69683800Y-81233200D02*
X71718800Y-81233200D01*
D41*
X62130000Y-72040000D02*
X60016000Y-74154000D01*
X75750000Y-90360000D02*
X74290000Y-88900000D01*
X71770000Y-106110000D02*
X71860000Y-106020000D01*
X60016000Y-90534000D02*
X60016000Y-91154000D01*
X74290000Y-88900000D02*
X71420000Y-88900000D01*
X62470000Y-105960000D02*
X64510000Y-105960000D01*
X66280000Y-107730000D02*
X66370000Y-107820000D01*
X69860000Y-90460000D02*
X65960000Y-90460000D01*
X65960000Y-90460000D02*
X64430000Y-88930000D01*
D42*
X69683800Y-98251200D02*
X71718800Y-98251200D01*
D41*
X71700000Y-72040000D02*
X69950000Y-73790000D01*
X70060000Y-107820000D02*
X71770000Y-106110000D01*
%TO.N,row0*%
X102314200Y-52273200D02*
X100279200Y-52273200D01*
X128727200Y-49733200D02*
X132283200Y-53289200D01*
X140871400Y-55930800D02*
X138229800Y-53289200D01*
X152721500Y-55930800D02*
X140871400Y-55930800D01*
X159845200Y-59055000D02*
X167885000Y-59055000D01*
X64200400Y-64316800D02*
X66235400Y-64316800D01*
X120297400Y-46228000D02*
X118262400Y-46228000D01*
X153229500Y-55422800D02*
X152721500Y-55930800D01*
X118262400Y-46228000D02*
X118262400Y-50012600D01*
X123802600Y-49733200D02*
X128727200Y-49733200D01*
X154178000Y-55422800D02*
X153229500Y-55422800D01*
X84229400Y-64312800D02*
X82194400Y-64312800D01*
X118262400Y-50012600D02*
X117983000Y-50292000D01*
X132283200Y-53289200D02*
X136194800Y-53289200D01*
X105768600Y-55727600D02*
X102314200Y-52273200D01*
X171270000Y-70959400D02*
X179450000Y-70959400D01*
X138229800Y-53289200D02*
X136194800Y-53289200D01*
X117983000Y-50292000D02*
X115443000Y-50292000D01*
X110007400Y-55727600D02*
X105768600Y-55727600D01*
X115443000Y-50292000D02*
X110007400Y-55727600D01*
X167885000Y-59055000D02*
X167900000Y-59040000D01*
X156213000Y-55422800D02*
X159845200Y-59055000D01*
X156213000Y-55422800D02*
X154178000Y-55422800D01*
X120297400Y-46228000D02*
X123802600Y-49733200D01*
%TO.N,row1*%
X138179000Y-69900800D02*
X136144000Y-69900800D01*
X85402000Y-79955000D02*
X84127800Y-81229200D01*
X115062000Y-67462400D02*
X112776000Y-69748400D01*
X167529204Y-73499400D02*
X171270000Y-73499400D01*
X64098800Y-81233200D02*
X66133800Y-81233200D01*
X120195800Y-63347600D02*
X120195800Y-64614600D01*
X100076000Y-69342000D02*
X100076000Y-72644000D01*
X100076000Y-72644000D02*
X99466400Y-73253600D01*
X80988198Y-81229200D02*
X82092800Y-81229200D01*
X171270000Y-73499400D02*
X179450000Y-73499400D01*
X102111000Y-69342000D02*
X100076000Y-69342000D01*
X121716800Y-66700400D02*
X119913400Y-64897000D01*
X165908303Y-75120301D02*
X167529204Y-73499400D01*
X112776000Y-69748400D02*
X112776000Y-70358000D01*
X154482800Y-72491600D02*
X152552400Y-72491600D01*
X110236000Y-72898000D02*
X105667000Y-72898000D01*
X133596320Y-67353120D02*
X125163520Y-67353120D01*
X99466400Y-73253600D02*
X97383600Y-73253600D01*
X79933699Y-82283699D02*
X80988198Y-81229200D01*
X136144000Y-69900800D02*
X133596320Y-67353120D01*
X119913400Y-64897000D02*
X117348000Y-67462400D01*
X151071520Y-73972480D02*
X142250680Y-73972480D01*
X112776000Y-70358000D02*
X110236000Y-72898000D01*
X120195800Y-64614600D02*
X119913400Y-64897000D01*
X105667000Y-72898000D02*
X102111000Y-69342000D01*
X66133800Y-81233200D02*
X67184299Y-82283699D01*
X156517800Y-72491600D02*
X159146501Y-75120301D01*
X159146501Y-75120301D02*
X165908303Y-75120301D01*
X156517800Y-72491600D02*
X154482800Y-72491600D01*
X90682200Y-79955000D02*
X85402000Y-79955000D01*
X67184299Y-82283699D02*
X79933699Y-82283699D01*
X97383600Y-73253600D02*
X90682200Y-79955000D01*
X125163520Y-67353120D02*
X124510800Y-66700400D01*
X142250680Y-73972480D02*
X138179000Y-69900800D01*
X120195800Y-63347600D02*
X118160800Y-63347600D01*
X124510800Y-66700400D02*
X121716800Y-66700400D01*
X152552400Y-72491600D02*
X151071520Y-73972480D01*
X84127800Y-81229200D02*
X82092800Y-81229200D01*
X117348000Y-67462400D02*
X115062000Y-67462400D01*
%TO.N,Net-(D2-Pad2)*%
X89763600Y-72085200D02*
X92120200Y-72085200D01*
X77635000Y-74150000D02*
X79750600Y-72034400D01*
X88079520Y-73769280D02*
X89763600Y-72085200D01*
X82845123Y-72034400D02*
X84580003Y-73769280D01*
X84580003Y-73769280D02*
X88079520Y-73769280D01*
X79750600Y-72034400D02*
X82845123Y-72034400D01*
X87779400Y-64312800D02*
X89814400Y-64312800D01*
X92120200Y-72085200D02*
X94185000Y-74150000D01*
%TO.N,row2*%
X97078800Y-90017600D02*
X92456000Y-94640400D01*
X102212600Y-87779400D02*
X99974400Y-90017600D01*
X138280600Y-86969600D02*
X136245600Y-86969600D01*
X92456000Y-94640400D02*
X92456000Y-96062800D01*
X130454400Y-86969600D02*
X126949200Y-83464400D01*
X157361800Y-88310000D02*
X173543700Y-88310000D01*
X123345400Y-83464400D02*
X120195800Y-80314800D01*
X102212600Y-86309200D02*
X102212600Y-87779400D01*
X64098800Y-98251200D02*
X66133800Y-98251200D01*
X145999200Y-90373200D02*
X141684200Y-90373200D01*
X80945600Y-97100000D02*
X82092800Y-98247200D01*
X109829600Y-90119200D02*
X106022600Y-90119200D01*
X85550200Y-96824800D02*
X84127800Y-98247200D01*
X120195800Y-80314800D02*
X118160800Y-80314800D01*
X141684200Y-90373200D02*
X138280600Y-86969600D01*
X120195800Y-82648600D02*
X118313200Y-84531200D01*
X99974400Y-90017600D02*
X97078800Y-90017600D01*
X92456000Y-96062800D02*
X91694000Y-96824800D01*
X84127800Y-98247200D02*
X82092800Y-98247200D01*
X91694000Y-96824800D02*
X85550200Y-96824800D01*
X66133800Y-98251200D02*
X67285000Y-97100000D01*
X156314600Y-89357200D02*
X157361800Y-88310000D01*
X115417600Y-84531200D02*
X109829600Y-90119200D01*
X171270000Y-76039400D02*
X179450000Y-76039400D01*
X118313200Y-84531200D02*
X115417600Y-84531200D01*
X156314600Y-89357200D02*
X154279600Y-89357200D01*
X136245600Y-86969600D02*
X130454400Y-86969600D01*
X120195800Y-80314800D02*
X120195800Y-82648600D01*
X147015200Y-89357200D02*
X145999200Y-90373200D01*
X154279600Y-89357200D02*
X147015200Y-89357200D01*
X102212600Y-86309200D02*
X100177600Y-86309200D01*
X67285000Y-97100000D02*
X80945600Y-97100000D01*
X126949200Y-83464400D02*
X123345400Y-83464400D01*
X106022600Y-90119200D02*
X102212600Y-86309200D01*
%TO.N,Net-(D3-Pad2)*%
X101266257Y-61366400D02*
X106883200Y-61366400D01*
X106883200Y-61366400D02*
X108102400Y-60147200D01*
X105864200Y-52273200D02*
X107899200Y-52273200D01*
X107899200Y-52273200D02*
X111048800Y-52273200D01*
X97637800Y-60147200D02*
X100047057Y-60147200D01*
X95635000Y-62150000D02*
X97637800Y-60147200D01*
X110182200Y-60147200D02*
X112185000Y-62150000D01*
X100047057Y-60147200D02*
X101266257Y-61366400D01*
X108102400Y-60147200D02*
X110182200Y-60147200D01*
X111048800Y-52273200D02*
X111150400Y-52374800D01*
%TO.N,row3*%
X171270000Y-78579400D02*
X179450000Y-78579400D01*
X137050947Y-122936000D02*
X155003565Y-122936000D01*
X154422246Y-121312701D02*
X156272140Y-121312701D01*
X155003565Y-122936000D02*
X156449502Y-121490063D01*
X181696176Y-116688967D02*
X181696176Y-117673275D01*
X135118246Y-121003299D02*
X137050947Y-122936000D01*
X156272140Y-121312701D02*
X156449502Y-121490063D01*
X136968140Y-121003299D02*
X137145502Y-120825937D01*
X181696176Y-117673275D02*
X180836147Y-118533304D01*
X135118246Y-121003299D02*
X136968140Y-121003299D01*
%TO.N,Net-(D4-Pad2)*%
X113635000Y-56150000D02*
X115683000Y-54102000D01*
X117754400Y-54102000D02*
X118973600Y-55321200D01*
X129387600Y-46329600D02*
X129286000Y-46228000D01*
X115683000Y-54102000D02*
X117754400Y-54102000D01*
X125780800Y-54203600D02*
X128238600Y-54203600D01*
X118973600Y-55321200D02*
X124663200Y-55321200D01*
X124663200Y-55321200D02*
X125780800Y-54203600D01*
X125882400Y-46228000D02*
X123847400Y-46228000D01*
X128238600Y-54203600D02*
X130185000Y-56150000D01*
X129286000Y-46228000D02*
X125882400Y-46228000D01*
%TO.N,Net-(D5-Pad2)*%
X147878800Y-53289200D02*
X148031200Y-53441600D01*
X142138400Y-62382400D02*
X143814800Y-60706000D01*
X143814800Y-60706000D02*
X146121000Y-60706000D01*
X133699000Y-60706000D02*
X136042400Y-60706000D01*
X143814800Y-53289200D02*
X147878800Y-53289200D01*
X137718800Y-62382400D02*
X142138400Y-62382400D01*
X131635000Y-62770000D02*
X133699000Y-60706000D01*
X136042400Y-60706000D02*
X137718800Y-62382400D01*
X146121000Y-60706000D02*
X148185000Y-62770000D01*
X141779800Y-53289200D02*
X143814800Y-53289200D01*
%TO.N,Net-(D6-Pad2)*%
X160629600Y-62890400D02*
X163925400Y-62890400D01*
X151691400Y-63093600D02*
X155956000Y-63093600D01*
X155956000Y-63093600D02*
X156768800Y-63906400D01*
X166014400Y-55422800D02*
X161798000Y-55422800D01*
X166116000Y-55524400D02*
X166014400Y-55422800D01*
X156768800Y-63906400D02*
X159613600Y-63906400D01*
X159613600Y-63906400D02*
X160629600Y-62890400D01*
X163925400Y-62890400D02*
X166185000Y-65150000D01*
X161798000Y-55422800D02*
X159763000Y-55422800D01*
X149635000Y-65150000D02*
X151691400Y-63093600D01*
%TO.N,Net-(D8-Pad2)*%
X79732600Y-89052400D02*
X82143600Y-89052400D01*
X87677800Y-81229200D02*
X89712800Y-81229200D01*
X83769200Y-90678000D02*
X88138000Y-90678000D01*
X89860511Y-88955489D02*
X91990489Y-88955489D01*
X91990489Y-88955489D02*
X94185000Y-91150000D01*
X82143600Y-89052400D02*
X83769200Y-90678000D01*
X89662000Y-81280000D02*
X89712800Y-81229200D01*
X77635000Y-91150000D02*
X79732600Y-89052400D01*
X88138000Y-90678000D02*
X89860511Y-88955489D01*
X89662000Y-84455000D02*
X89662000Y-81280000D01*
%TO.N,Net-(D9-Pad2)*%
X110149400Y-77114400D02*
X112185000Y-79150000D01*
X106426000Y-78333600D02*
X107645200Y-77114400D01*
X101600000Y-78333600D02*
X106426000Y-78333600D01*
X100279200Y-77012800D02*
X101600000Y-78333600D01*
X97772200Y-77012800D02*
X100279200Y-77012800D01*
X107645200Y-77114400D02*
X110149400Y-77114400D01*
X110896400Y-69342000D02*
X111760000Y-70205600D01*
X107696000Y-69342000D02*
X105661000Y-69342000D01*
X107696000Y-69342000D02*
X110896400Y-69342000D01*
X95635000Y-79150000D02*
X97772200Y-77012800D01*
%TO.N,Net-(D10-Pad2)*%
X119684800Y-72644000D02*
X124155200Y-72644000D01*
X113635000Y-73150000D02*
X115817400Y-70967600D01*
X125780800Y-63347600D02*
X129184400Y-63347600D01*
X118008400Y-70967600D02*
X119684800Y-72644000D01*
X124155200Y-72644000D02*
X125831600Y-70967600D01*
X128002600Y-70967600D02*
X130185000Y-73150000D01*
X125831600Y-70967600D02*
X128002600Y-70967600D01*
X115817400Y-70967600D02*
X118008400Y-70967600D01*
X123745800Y-63347600D02*
X125780800Y-63347600D01*
X129184400Y-63347600D02*
X129489200Y-63652400D01*
%TO.N,Net-(D11-Pad2)*%
X146139000Y-77724000D02*
X148185000Y-79770000D01*
X142181520Y-79255680D02*
X143713200Y-77724000D01*
X141729000Y-69900800D02*
X143764000Y-69900800D01*
X131635000Y-79770000D02*
X133782600Y-77622400D01*
X133782600Y-77622400D02*
X137080323Y-77622400D01*
X137080323Y-77622400D02*
X138713603Y-79255680D01*
X143713200Y-77724000D02*
X146139000Y-77724000D01*
X138713603Y-79255680D02*
X142181520Y-79255680D01*
%TO.N,Net-(D12-Pad2)*%
X161722518Y-79857600D02*
X163892600Y-79857600D01*
X151825800Y-79959200D02*
X154025600Y-79959200D01*
X163892600Y-79857600D02*
X166185000Y-82150000D01*
X164744400Y-72491600D02*
X162102800Y-72491600D01*
X160067800Y-72491600D02*
X162102800Y-72491600D01*
X154025600Y-79959200D02*
X155600400Y-81534000D01*
X155600400Y-81534000D02*
X160046118Y-81534000D01*
X166116000Y-73863200D02*
X164744400Y-72491600D01*
X149635000Y-82150000D02*
X151825800Y-79959200D01*
X160046118Y-81534000D02*
X161722518Y-79857600D01*
%TO.N,Net-(D14-Pad2)*%
X79714600Y-106070400D02*
X81838800Y-106070400D01*
X88493600Y-107645200D02*
X90017600Y-106121200D01*
X92156200Y-106121200D02*
X94185000Y-108150000D01*
X83413600Y-107645200D02*
X88493600Y-107645200D01*
X93522800Y-98247200D02*
X93878400Y-98602800D01*
X89712800Y-98247200D02*
X93522800Y-98247200D01*
X77635000Y-108150000D02*
X79714600Y-106070400D01*
X90017600Y-106121200D02*
X92156200Y-106121200D01*
X81838800Y-106070400D02*
X83413600Y-107645200D01*
X87677800Y-98247200D02*
X89712800Y-98247200D01*
%TO.N,Net-(D15-Pad2)*%
X107594400Y-94081600D02*
X110116600Y-94081600D01*
X97703400Y-94081600D02*
X100431600Y-94081600D01*
X110998000Y-86309200D02*
X111302800Y-86614000D01*
X105918000Y-95758000D02*
X107594400Y-94081600D01*
X105762600Y-86309200D02*
X107797600Y-86309200D01*
X107797600Y-86309200D02*
X110998000Y-86309200D01*
X110116600Y-94081600D02*
X112185000Y-96150000D01*
X102108000Y-95758000D02*
X105918000Y-95758000D01*
X100431600Y-94081600D02*
X102108000Y-95758000D01*
X95635000Y-96150000D02*
X97703400Y-94081600D01*
%TO.N,Net-(D16-Pad2)*%
X128524000Y-80314800D02*
X129082800Y-80873600D01*
X124155200Y-89408000D02*
X125425200Y-88138000D01*
X119583200Y-89408000D02*
X124155200Y-89408000D01*
X125780800Y-80314800D02*
X128524000Y-80314800D01*
X115748600Y-88036400D02*
X118211600Y-88036400D01*
X125425200Y-88138000D02*
X128173000Y-88138000D01*
X118211600Y-88036400D02*
X119583200Y-89408000D01*
X123745800Y-80314800D02*
X125780800Y-80314800D01*
X128173000Y-88138000D02*
X130185000Y-90150000D01*
X113635000Y-90150000D02*
X115748600Y-88036400D01*
%TO.N,Net-(D17-Pad2)*%
X148031200Y-86969600D02*
X148132800Y-87071200D01*
X145999600Y-94589600D02*
X148185000Y-96775000D01*
X143814800Y-94589600D02*
X145999600Y-94589600D01*
X137922000Y-96418400D02*
X141986000Y-96418400D01*
X133871200Y-94538800D02*
X136042400Y-94538800D01*
X141986000Y-96418400D02*
X143814800Y-94589600D01*
X131635000Y-96775000D02*
X133871200Y-94538800D01*
X141830600Y-86969600D02*
X143865600Y-86969600D01*
X143865600Y-86969600D02*
X148031200Y-86969600D01*
X136042400Y-94538800D02*
X137922000Y-96418400D01*
%TO.N,Net-(D18-Pad2)*%
X162052000Y-97028000D02*
X164063000Y-97028000D01*
X149635000Y-99150000D02*
X151757000Y-97028000D01*
X161899600Y-89357200D02*
X165862000Y-89357200D01*
X164063000Y-97028000D02*
X166185000Y-99150000D01*
X151757000Y-97028000D02*
X154228800Y-97028000D01*
X160985200Y-98094800D02*
X162052000Y-97028000D01*
X165862000Y-89357200D02*
X165912800Y-89408000D01*
X154228800Y-97028000D02*
X155295600Y-98094800D01*
X159864600Y-89357200D02*
X161899600Y-89357200D01*
X155295600Y-98094800D02*
X160985200Y-98094800D01*
%TO.N,Net-(D19-Pad2)*%
X129731860Y-121312701D02*
X129554498Y-121490063D01*
X131581754Y-121312701D02*
X129731860Y-121312701D01*
X138548241Y-113323492D02*
X140758677Y-111113056D01*
X130914950Y-114195050D02*
X131786508Y-113323492D01*
X131786508Y-113323492D02*
X138548241Y-113323492D01*
X124271655Y-112555484D02*
X125911221Y-114195050D01*
X125911221Y-114195050D02*
X130914950Y-114195050D01*
%TO.N,Net-(D20-Pad2)*%
X147455759Y-113323492D02*
X155916508Y-113323492D01*
X148858498Y-120825937D02*
X150708392Y-120825937D01*
X155916508Y-113323492D02*
X156788066Y-114195050D01*
X156788066Y-114195050D02*
X160092779Y-114195050D01*
X160092779Y-114195050D02*
X161732345Y-112555484D01*
X150708392Y-120825937D02*
X150885754Y-121003299D01*
X145245323Y-111113056D02*
X147455759Y-113323492D01*
%TO.N,Net-(D21-Pad2)*%
X172866499Y-115315944D02*
X175645438Y-112537005D01*
X169544571Y-123770878D02*
X172866499Y-120448950D01*
X179335853Y-121750696D02*
X179335853Y-122735004D01*
X172866499Y-120448950D02*
X172866499Y-115315944D01*
X175645438Y-112537005D02*
X175645438Y-109312411D01*
X175645438Y-109312411D02*
X175104512Y-108771485D01*
X179335853Y-122735004D02*
X178475824Y-123595033D01*
X168110180Y-123770878D02*
X169544571Y-123770878D01*
%TO.N,GND*%
X183851000Y-60799400D02*
X171270000Y-60799400D01*
X188630000Y-88880000D02*
X188630000Y-87395000D01*
X188630000Y-87395000D02*
X188625000Y-87390000D01*
X186510000Y-58259400D02*
X186546400Y-58259400D01*
X175580000Y-84356620D02*
X176210780Y-84356620D01*
X187816400Y-59529400D02*
X185121000Y-59529400D01*
X185121000Y-59529400D02*
X183851000Y-60799400D01*
X176210780Y-84356620D02*
X179450000Y-81117400D01*
X186546400Y-58259400D02*
X187816400Y-59529400D01*
X171270000Y-60799400D02*
X171270000Y-63339400D01*
%TO.N,VCC*%
X182839990Y-82227410D02*
X182839991Y-65931779D01*
X178130000Y-84327020D02*
X178951500Y-84327020D01*
X178951500Y-84327020D02*
X179310000Y-84685520D01*
X185432370Y-63339400D02*
X186510000Y-63339400D01*
X181950000Y-83117400D02*
X182839990Y-82227410D01*
X182839991Y-65931779D02*
X185432370Y-63339400D01*
X178325000Y-89898604D02*
X178325000Y-92698833D01*
X179310000Y-84685520D02*
X179310000Y-84223018D01*
X179310000Y-84685520D02*
X179310000Y-88913604D01*
X180598767Y-94972600D02*
X181562600Y-94972600D01*
X178325000Y-92698833D02*
X180598767Y-94972600D01*
X179310000Y-84223018D02*
X180415618Y-83117400D01*
X179310000Y-88913604D02*
X178325000Y-89898604D01*
X181562600Y-94972600D02*
X181562600Y-96720000D01*
X180415618Y-83117400D02*
X181950000Y-83117400D01*
%TO.N,col0*%
X152187742Y-70272258D02*
X161487742Y-70272258D01*
X168380600Y-64609400D02*
X172596400Y-64609400D01*
X172596400Y-64609400D02*
X179105002Y-64609400D01*
X69265999Y-108428999D02*
X66531001Y-108428999D01*
X99720000Y-83320000D02*
X99670000Y-83270000D01*
X71191000Y-93354000D02*
X69265999Y-91428999D01*
X64650000Y-76220000D02*
X64650000Y-76250000D01*
X168360000Y-64630000D02*
X168380600Y-64609400D01*
X66441001Y-74428999D02*
X64650000Y-76220000D01*
X168360000Y-66679400D02*
X168360000Y-64630000D01*
X181482000Y-66986398D02*
X181482000Y-67105400D01*
X69265999Y-74428999D02*
X66441001Y-74428999D01*
X142560000Y-84600000D02*
X133187032Y-84600000D01*
X66531001Y-108428999D02*
X64670000Y-110290000D01*
X71191000Y-110354000D02*
X69265999Y-108428999D01*
X161487742Y-70272258D02*
X165060600Y-66699400D01*
X113088700Y-79291300D02*
X109060000Y-83320000D01*
X109060000Y-83320000D02*
X99720000Y-83320000D01*
X66601001Y-91428999D02*
X64740000Y-93290000D01*
X69265999Y-91428999D02*
X66601001Y-91428999D01*
X87400000Y-79310000D02*
X74147000Y-79310000D01*
X74147000Y-79310000D02*
X71191000Y-76354000D01*
X133187032Y-84600000D02*
X129727800Y-81140768D01*
X129727800Y-81140768D02*
X129727800Y-80557800D01*
X129727800Y-80557800D02*
X128461300Y-79291300D01*
X128461300Y-79291300D02*
X113088700Y-79291300D01*
X179105002Y-64609400D02*
X181482000Y-66986398D01*
X71191000Y-76354000D02*
X69265999Y-74428999D01*
X168340000Y-66699400D02*
X168360000Y-66679400D01*
X165060600Y-66699400D02*
X168340000Y-66699400D01*
%TO.N,col1*%
X101219718Y-89408000D02*
X100160598Y-90467120D01*
X89185000Y-76350000D02*
X87053800Y-74218800D01*
X132973000Y-101473000D02*
X144723000Y-101473000D01*
X105836402Y-90568720D02*
X104675682Y-89408000D01*
X115166400Y-95710000D02*
X110025120Y-90568720D01*
X94589600Y-93142518D02*
X94589600Y-93776800D01*
X110025120Y-90568720D02*
X105836402Y-90568720D01*
X167490600Y-67149400D02*
X172596400Y-67149400D01*
X97264998Y-90467120D02*
X94589600Y-93142518D01*
X84849800Y-91135200D02*
X82635000Y-93350000D01*
X179105002Y-67149400D02*
X181482000Y-69526398D01*
X104675682Y-89408000D02*
X101219718Y-89408000D01*
X91724400Y-93350000D02*
X89185000Y-93350000D01*
X172596400Y-67149400D02*
X179105002Y-67149400D01*
X181482000Y-69526398D02*
X181482000Y-69645400D01*
X84831800Y-108153200D02*
X82635000Y-110350000D01*
X87053800Y-74218800D02*
X84766200Y-74218800D01*
X132973000Y-101473000D02*
X127210000Y-95710000D01*
X89185000Y-110350000D02*
X86988200Y-108153200D01*
X86970200Y-91135200D02*
X84849800Y-91135200D01*
X89185000Y-93350000D02*
X86970200Y-91135200D01*
X92252800Y-93878400D02*
X91724400Y-93350000D01*
X167233600Y-68333600D02*
X167233600Y-67406400D01*
X86988200Y-108153200D02*
X84831800Y-108153200D01*
X127210000Y-95710000D02*
X115166400Y-95710000D01*
X84766200Y-74218800D02*
X82635000Y-76350000D01*
X100160598Y-90467120D02*
X97264998Y-90467120D01*
X167233600Y-67406400D02*
X167490600Y-67149400D01*
%TO.N,col2*%
X107185000Y-64350000D02*
X113348400Y-64350000D01*
X123611760Y-65801360D02*
X124883196Y-65801360D01*
X146304000Y-72771000D02*
X146606440Y-73073440D01*
X124883196Y-65801360D02*
X125535916Y-66454080D01*
X122021600Y-62738000D02*
X122021600Y-64211200D01*
X107185000Y-81350000D02*
X104676600Y-78841600D01*
X113348400Y-64350000D02*
X115722400Y-61976000D01*
X172596400Y-69689400D02*
X179410264Y-69689400D01*
X103143400Y-78841600D02*
X100635000Y-81350000D01*
X150699124Y-73073440D02*
X153050306Y-70722258D01*
X167759200Y-69689400D02*
X172596400Y-69689400D01*
X166726342Y-70722258D02*
X167759200Y-69689400D01*
X179410264Y-69689400D02*
X181482000Y-71761136D01*
X105042520Y-96207520D02*
X102777480Y-96207520D01*
X102777480Y-96207520D02*
X100635000Y-98350000D01*
X137549398Y-66454080D02*
X138913318Y-67818000D01*
X115722400Y-61976000D02*
X121259600Y-61976000D01*
X138913318Y-67818000D02*
X143637000Y-67818000D01*
X143637000Y-67818000D02*
X146304000Y-70485000D01*
X153050306Y-70722258D02*
X166726342Y-70722258D01*
X122021600Y-64211200D02*
X123611760Y-65801360D01*
X107185000Y-64350000D02*
X105115800Y-62280800D01*
X105115800Y-62280800D02*
X102704200Y-62280800D01*
X146304000Y-70485000D02*
X146304000Y-72771000D01*
X146606440Y-73073440D02*
X150699124Y-73073440D01*
X102704200Y-62280800D02*
X100635000Y-64350000D01*
X121259600Y-61976000D02*
X122021600Y-62738000D01*
X181482000Y-71761136D02*
X181482000Y-72185400D01*
X125535916Y-66454080D02*
X137549398Y-66454080D01*
X104676600Y-78841600D02*
X103143400Y-78841600D01*
X107185000Y-98350000D02*
X105042520Y-96207520D01*
%TO.N,col3*%
X120891480Y-73093520D02*
X118635000Y-75350000D01*
X122751000Y-89916000D02*
X121069000Y-89916000D01*
X137363200Y-66903600D02*
X139649200Y-69189600D01*
X122588080Y-66250880D02*
X124696998Y-66250880D01*
X127262428Y-96806828D02*
X127262428Y-108129619D01*
X139649200Y-70735282D02*
X142436878Y-73522960D01*
X123019800Y-56184800D02*
X120800200Y-56184800D01*
X121069000Y-89916000D02*
X118635000Y-92350000D01*
X125185000Y-75350000D02*
X122928520Y-73093520D01*
X118635000Y-96525000D02*
X126980600Y-96525000D01*
X165131511Y-71171778D02*
X166189133Y-72229400D01*
X125185000Y-92350000D02*
X122751000Y-89916000D01*
X126980600Y-96525000D02*
X127262428Y-96806828D01*
X120800200Y-56184800D02*
X118635000Y-58350000D01*
X166189133Y-72229400D02*
X172596400Y-72229400D01*
X125349718Y-66903600D02*
X137363200Y-66903600D01*
X124696998Y-66250880D02*
X125349718Y-66903600D01*
X122928520Y-73093520D02*
X120891480Y-73093520D01*
X139649200Y-69189600D02*
X139649200Y-70735282D01*
X127262428Y-108129619D02*
X129060886Y-109928077D01*
X121767600Y-65430400D02*
X122588080Y-66250880D01*
X179105002Y-72229400D02*
X181482000Y-74606398D01*
X153236504Y-71171778D02*
X165131511Y-71171778D01*
X142436878Y-73522960D02*
X150885322Y-73522960D01*
X181482000Y-74606398D02*
X181482000Y-74725400D01*
X150885322Y-73522960D02*
X153236504Y-71171778D01*
X172596400Y-72229400D02*
X179105002Y-72229400D01*
X125185000Y-58350000D02*
X123019800Y-56184800D01*
%TO.N,col4*%
X142064482Y-74422000D02*
X140388082Y-72745600D01*
X147269200Y-75387200D02*
X146304000Y-74422000D01*
X143185000Y-64970000D02*
X141105400Y-62890400D01*
X140388082Y-72745600D02*
X138531600Y-72745600D01*
X138714600Y-62890400D02*
X136635000Y-64970000D01*
X138734400Y-96875600D02*
X136635000Y-98975000D01*
X138899800Y-79705200D02*
X136635000Y-81970000D01*
X143185000Y-98975000D02*
X145200400Y-100990400D01*
X146304000Y-74422000D02*
X142064482Y-74422000D01*
X165915000Y-75750000D02*
X166895600Y-74769400D01*
X172596400Y-74769400D02*
X166895600Y-74769400D01*
X145200400Y-100990400D02*
X147218400Y-100990400D01*
X147218400Y-100990400D02*
X147218400Y-104136943D01*
X141105400Y-62890400D02*
X138714600Y-62890400D01*
X147218400Y-104136943D02*
X150418039Y-107336582D01*
X143185000Y-81970000D02*
X140920200Y-79705200D01*
X140920200Y-79705200D02*
X138899800Y-79705200D01*
X159140000Y-75750000D02*
X165915000Y-75750000D01*
X147269200Y-75387200D02*
X158777200Y-75387200D01*
X158777200Y-75387200D02*
X159140000Y-75750000D01*
X150418039Y-107336582D02*
X150418039Y-109357206D01*
X141085600Y-96875600D02*
X138734400Y-96875600D01*
X143185000Y-98975000D02*
X141085600Y-96875600D01*
X181601002Y-77265400D02*
X181609000Y-77265400D01*
X179105002Y-74769400D02*
X181601002Y-77265400D01*
X172596400Y-74769400D02*
X179105002Y-74769400D01*
%TO.N,col5*%
X168215907Y-118296093D02*
X166370000Y-116450185D01*
X156859400Y-65125600D02*
X154635000Y-67350000D01*
X168229394Y-118309579D02*
X168215907Y-118296093D01*
X169436100Y-78389300D02*
X170516000Y-77309400D01*
X181601002Y-79805400D02*
X181609000Y-79805400D01*
X162725000Y-102890000D02*
X161185000Y-101350000D01*
X161185000Y-67350000D02*
X158960600Y-65125600D01*
X159047400Y-99212400D02*
X156772600Y-99212400D01*
X166380000Y-102890000D02*
X162725000Y-102890000D01*
X166390000Y-102890000D02*
X169418000Y-105918000D01*
X156790600Y-82194400D02*
X154635000Y-84350000D01*
X159029400Y-82194400D02*
X156790600Y-82194400D01*
X169430000Y-84350000D02*
X161185000Y-84350000D01*
X169436100Y-84343900D02*
X169430000Y-84350000D01*
X179105002Y-77309400D02*
X181601002Y-79805400D01*
X169436100Y-78389300D02*
X169436100Y-84343900D01*
X156772600Y-99212400D02*
X154635000Y-101350000D01*
X161185000Y-84350000D02*
X159029400Y-82194400D01*
X170516000Y-77309400D02*
X172596400Y-77309400D01*
X161185000Y-101350000D02*
X159047400Y-99212400D01*
X166370000Y-113284000D02*
X166370000Y-116450185D01*
X158960600Y-65125600D02*
X156859400Y-65125600D01*
X172596400Y-77309400D02*
X179105002Y-77309400D01*
X169418000Y-110236000D02*
X166370000Y-113284000D01*
X169418000Y-105918000D02*
X169418000Y-110236000D01*
%TO.N,LED*%
X171270000Y-55719400D02*
X183848000Y-55719400D01*
X183848000Y-55719400D02*
X185118000Y-54449400D01*
X185118000Y-54449400D02*
X187816400Y-54449400D01*
%TO.N,data*%
X171270000Y-58259400D02*
X183808000Y-58259400D01*
X189150000Y-82593051D02*
X189150000Y-58323000D01*
X183808000Y-58259400D02*
X185078000Y-56989400D01*
X187475000Y-84268051D02*
X189150000Y-82593051D01*
X188562600Y-96720000D02*
X188562600Y-94652600D01*
X185078000Y-56989400D02*
X187816400Y-56989400D01*
X188562600Y-94652600D02*
X187470000Y-93560000D01*
X187475000Y-93555000D02*
X187475000Y-84268051D01*
X189150000Y-58323000D02*
X187816400Y-56989400D01*
X187470000Y-93560000D02*
X187475000Y-93555000D01*
%TO.N,reset*%
X182371000Y-64938400D02*
X182371000Y-81583400D01*
X182371000Y-81583400D02*
X181609000Y-82345400D01*
X179650000Y-89210000D02*
X179650000Y-92150000D01*
X186510000Y-60799400D02*
X182371000Y-64938400D01*
X181609000Y-82345400D02*
X181710600Y-82345400D01*
X184980000Y-88023796D02*
X183858396Y-89145400D01*
X184980000Y-82690000D02*
X184980000Y-88023796D01*
X183858396Y-89145400D02*
X179714600Y-89145400D01*
X181710600Y-82345400D02*
X181736000Y-82320000D01*
X179714600Y-89145400D02*
X179650000Y-89210000D01*
X184610000Y-82320000D02*
X184980000Y-82690000D01*
%TO.N,SCL*%
X181863000Y-84628520D02*
X181863000Y-87930400D01*
X183740010Y-83107410D02*
X183740010Y-68627390D01*
X183740010Y-68627390D02*
X185218000Y-67149400D01*
X180710000Y-84297020D02*
X181531500Y-84297020D01*
X184530000Y-87837400D02*
X184530000Y-83897400D01*
X185218000Y-67149400D02*
X187816400Y-67149400D01*
X181531500Y-84297020D02*
X181863000Y-84628520D01*
X171270000Y-68419400D02*
X179450000Y-68419400D01*
X183672000Y-88695400D02*
X184530000Y-87837400D01*
X184530000Y-83897400D02*
X183740010Y-83107410D01*
X182628000Y-88695400D02*
X183672000Y-88695400D01*
X181863000Y-87930400D02*
X182628000Y-88695400D01*
%TO.N,SDA*%
X183290000Y-66677400D02*
X183290000Y-84277020D01*
X185358000Y-64609400D02*
X183290000Y-66677400D01*
X171270000Y-65879400D02*
X179450000Y-65879400D01*
X187816400Y-64609400D02*
X185358000Y-64609400D01*
%TO.N,Net-(U1-Pad14)*%
X175580000Y-85357380D02*
X175580000Y-87457400D01*
%TO.N,Net-(U1-Pad13)*%
X178130000Y-85327780D02*
X178130000Y-87447400D01*
X178130000Y-87447400D02*
X178120000Y-87457400D01*
%TO.N,Net-(U1-Pad12)*%
X183290000Y-87367400D02*
X183200000Y-87457400D01*
X183290000Y-85277780D02*
X183290000Y-87367400D01*
%TO.N,Net-(U1-Pad11)*%
X180710000Y-87407400D02*
X180660000Y-87457400D01*
X180710000Y-85297780D02*
X180710000Y-87407400D01*
%TD*%
M02*
