%TF.GenerationSoftware,KiCad,Pcbnew,6.0.8-f2edbf62ab~116~ubuntu22.04.1*%
%TF.CreationDate,2022-10-26T10:35:28+11:00*%
%TF.ProjectId,banach,62616e61-6368-42e6-9b69-6361645f7063,rev1.0*%
%TF.SameCoordinates,Original*%
%TF.FileFunction,Copper,L1,Top*%
%TF.FilePolarity,Positive*%
%FSLAX46Y46*%
G04 Gerber Fmt 4.6, Leading zero omitted, Abs format (unit mm)*
G04 Created by KiCad (PCBNEW 6.0.8-f2edbf62ab~116~ubuntu22.04.1) date 2022-10-26 10:35:28*
%MOMM*%
%LPD*%
G01*
G04 APERTURE LIST*
G04 Aperture macros list*
%AMRoundRect*
0 Rectangle with rounded corners*
0 $1 Rounding radius*
0 $2 $3 $4 $5 $6 $7 $8 $9 X,Y pos of 4 corners*
0 Add a 4 corners polygon primitive as box body*
4,1,4,$2,$3,$4,$5,$6,$7,$8,$9,$2,$3,0*
0 Add four circle primitives for the rounded corners*
1,1,$1+$1,$2,$3*
1,1,$1+$1,$4,$5*
1,1,$1+$1,$6,$7*
1,1,$1+$1,$8,$9*
0 Add four rect primitives between the rounded corners*
20,1,$1+$1,$2,$3,$4,$5,0*
20,1,$1+$1,$4,$5,$6,$7,0*
20,1,$1+$1,$6,$7,$8,$9,0*
20,1,$1+$1,$8,$9,$2,$3,0*%
%AMRotRect*
0 Rectangle, with rotation*
0 The origin of the aperture is its center*
0 $1 length*
0 $2 width*
0 $3 Rotation angle, in degrees counterclockwise*
0 Add horizontal line*
21,1,$1,$2,0,0,$3*%
%AMOutline5P*
0 Free polygon, 5 corners , with rotation*
0 The origin of the aperture is its center*
0 number of corners: always 5*
0 $1 to $10 corner X, Y*
0 $11 Rotation angle, in degrees counterclockwise*
0 create outline with 5 corners*
4,1,5,$1,$2,$3,$4,$5,$6,$7,$8,$9,$10,$1,$2,$11*%
%AMOutline6P*
0 Free polygon, 6 corners , with rotation*
0 The origin of the aperture is its center*
0 number of corners: always 6*
0 $1 to $12 corner X, Y*
0 $13 Rotation angle, in degrees counterclockwise*
0 create outline with 6 corners*
4,1,6,$1,$2,$3,$4,$5,$6,$7,$8,$9,$10,$11,$12,$1,$2,$13*%
%AMOutline7P*
0 Free polygon, 7 corners , with rotation*
0 The origin of the aperture is its center*
0 number of corners: always 7*
0 $1 to $14 corner X, Y*
0 $15 Rotation angle, in degrees counterclockwise*
0 create outline with 7 corners*
4,1,7,$1,$2,$3,$4,$5,$6,$7,$8,$9,$10,$11,$12,$13,$14,$1,$2,$15*%
%AMOutline8P*
0 Free polygon, 8 corners , with rotation*
0 The origin of the aperture is its center*
0 number of corners: always 8*
0 $1 to $16 corner X, Y*
0 $17 Rotation angle, in degrees counterclockwise*
0 create outline with 8 corners*
4,1,8,$1,$2,$3,$4,$5,$6,$7,$8,$9,$10,$11,$12,$13,$14,$15,$16,$1,$2,$17*%
G04 Aperture macros list end*
%ADD10C,0.300000*%
%TA.AperFunction,NonConductor*%
%ADD11C,0.300000*%
%TD*%
%TA.AperFunction,ComponentPad*%
%ADD12R,1.397000X1.397000*%
%TD*%
%TA.AperFunction,SMDPad,CuDef*%
%ADD13R,1.300000X0.950000*%
%TD*%
%TA.AperFunction,ComponentPad*%
%ADD14C,1.397000*%
%TD*%
%TA.AperFunction,ComponentPad*%
%ADD15RotRect,1.397000X1.397000X185.000000*%
%TD*%
%TA.AperFunction,SMDPad,CuDef*%
%ADD16RotRect,1.300000X0.950000X185.000000*%
%TD*%
%TA.AperFunction,SMDPad,CuDef*%
%ADD17RotRect,1.300000X0.950000X175.000000*%
%TD*%
%TA.AperFunction,ComponentPad*%
%ADD18RotRect,1.397000X1.397000X175.000000*%
%TD*%
%TA.AperFunction,ComponentPad*%
%ADD19RotRect,1.397000X1.397000X245.000000*%
%TD*%
%TA.AperFunction,SMDPad,CuDef*%
%ADD20RotRect,1.300000X0.950000X245.000000*%
%TD*%
%TA.AperFunction,ComponentPad*%
%ADD21O,2.500000X1.700000*%
%TD*%
%TA.AperFunction,SMDPad,CuDef*%
%ADD22Outline5P,-1.300000X0.130000X-0.130000X1.300000X1.300000X1.300000X1.300000X-1.300000X-1.300000X-1.300000X0.000000*%
%TD*%
%TA.AperFunction,SMDPad,CuDef*%
%ADD23R,2.600000X2.600000*%
%TD*%
%TA.AperFunction,SMDPad,CuDef*%
%ADD24R,1.900000X2.600000*%
%TD*%
%TA.AperFunction,SMDPad,CuDef*%
%ADD25Outline5P,-1.300000X0.130000X-0.130000X1.300000X1.300000X1.300000X1.300000X-1.300000X-1.300000X-1.300000X185.000000*%
%TD*%
%TA.AperFunction,SMDPad,CuDef*%
%ADD26RotRect,2.600000X2.600000X185.000000*%
%TD*%
%TA.AperFunction,SMDPad,CuDef*%
%ADD27Outline5P,-1.300000X0.130000X-0.130000X1.300000X1.300000X1.300000X1.300000X-1.300000X-1.300000X-1.300000X175.000000*%
%TD*%
%TA.AperFunction,SMDPad,CuDef*%
%ADD28RotRect,2.600000X2.600000X175.000000*%
%TD*%
%TA.AperFunction,SMDPad,CuDef*%
%ADD29Outline5P,-1.300000X0.130000X-0.130000X1.300000X1.300000X1.300000X1.300000X-1.300000X-1.300000X-1.300000X245.000000*%
%TD*%
%TA.AperFunction,SMDPad,CuDef*%
%ADD30RotRect,2.600000X2.600000X245.000000*%
%TD*%
%TA.AperFunction,ComponentPad*%
%ADD31C,1.524000*%
%TD*%
%TA.AperFunction,SMDPad,CuDef*%
%ADD32R,1.143000X0.635000*%
%TD*%
%TA.AperFunction,ComponentPad*%
%ADD33C,2.000000*%
%TD*%
%TA.AperFunction,ComponentPad*%
%ADD34C,4.000000*%
%TD*%
%TA.AperFunction,SMDPad,CuDef*%
%ADD35RoundRect,0.250000X-0.250000X-0.750000X0.250000X-0.750000X0.250000X0.750000X-0.250000X0.750000X0*%
%TD*%
%TA.AperFunction,SMDPad,CuDef*%
%ADD36R,0.800000X1.000000*%
%TD*%
%TA.AperFunction,SMDPad,CuDef*%
%ADD37R,1.500000X0.700000*%
%TD*%
%TA.AperFunction,SMDPad,CuDef*%
%ADD38RoundRect,0.250000X0.250000X0.750000X-0.250000X0.750000X-0.250000X-0.750000X0.250000X-0.750000X0*%
%TD*%
%TA.AperFunction,SMDPad,CuDef*%
%ADD39R,1.875000X2.600000*%
%TD*%
%TA.AperFunction,ViaPad*%
%ADD40C,0.600000*%
%TD*%
%TA.AperFunction,Conductor*%
%ADD41C,0.200000*%
%TD*%
%TA.AperFunction,Conductor*%
%ADD42C,0.250000*%
%TD*%
G04 APERTURE END LIST*
D10*
D11*
X102438714Y-108497714D02*
X102867285Y-108640571D01*
X103010142Y-108783428D01*
X103153000Y-109069142D01*
X103153000Y-109497714D01*
X103010142Y-109783428D01*
X102867285Y-109926285D01*
X102581571Y-110069142D01*
X101438714Y-110069142D01*
X101438714Y-107069142D01*
X102438714Y-107069142D01*
X102724428Y-107212000D01*
X102867285Y-107354857D01*
X103010142Y-107640571D01*
X103010142Y-107926285D01*
X102867285Y-108212000D01*
X102724428Y-108354857D01*
X102438714Y-108497714D01*
X101438714Y-108497714D01*
X105724428Y-110069142D02*
X105724428Y-108497714D01*
X105581571Y-108212000D01*
X105295857Y-108069142D01*
X104724428Y-108069142D01*
X104438714Y-108212000D01*
X105724428Y-109926285D02*
X105438714Y-110069142D01*
X104724428Y-110069142D01*
X104438714Y-109926285D01*
X104295857Y-109640571D01*
X104295857Y-109354857D01*
X104438714Y-109069142D01*
X104724428Y-108926285D01*
X105438714Y-108926285D01*
X105724428Y-108783428D01*
X107153000Y-108069142D02*
X107153000Y-110069142D01*
X107153000Y-108354857D02*
X107295857Y-108212000D01*
X107581571Y-108069142D01*
X108010142Y-108069142D01*
X108295857Y-108212000D01*
X108438714Y-108497714D01*
X108438714Y-110069142D01*
X111153000Y-110069142D02*
X111153000Y-108497714D01*
X111010142Y-108212000D01*
X110724428Y-108069142D01*
X110153000Y-108069142D01*
X109867285Y-108212000D01*
X111153000Y-109926285D02*
X110867285Y-110069142D01*
X110153000Y-110069142D01*
X109867285Y-109926285D01*
X109724428Y-109640571D01*
X109724428Y-109354857D01*
X109867285Y-109069142D01*
X110153000Y-108926285D01*
X110867285Y-108926285D01*
X111153000Y-108783428D01*
X113867285Y-109926285D02*
X113581571Y-110069142D01*
X113010142Y-110069142D01*
X112724428Y-109926285D01*
X112581571Y-109783428D01*
X112438714Y-109497714D01*
X112438714Y-108640571D01*
X112581571Y-108354857D01*
X112724428Y-108212000D01*
X113010142Y-108069142D01*
X113581571Y-108069142D01*
X113867285Y-108212000D01*
X115153000Y-110069142D02*
X115153000Y-107069142D01*
X116438714Y-110069142D02*
X116438714Y-108497714D01*
X116295857Y-108212000D01*
X116010142Y-108069142D01*
X115581571Y-108069142D01*
X115295857Y-108212000D01*
X115153000Y-108354857D01*
D12*
%TO.P,D2,1*%
%TO.N,row0*%
X82194400Y-64312800D03*
D13*
X84229400Y-64312800D03*
D14*
%TO.P,D2,2*%
%TO.N,Net-(D2-Pad2)*%
X89814400Y-64312800D03*
D13*
X87779400Y-64312800D03*
%TD*%
D12*
%TO.P,D3,1*%
%TO.N,row0*%
X100279200Y-52273200D03*
D13*
X102314200Y-52273200D03*
%TO.P,D3,2*%
%TO.N,Net-(D3-Pad2)*%
X105864200Y-52273200D03*
D14*
X107899200Y-52273200D03*
%TD*%
D12*
%TO.P,D4,1*%
%TO.N,row0*%
X118262400Y-46228000D03*
D13*
X120297400Y-46228000D03*
D14*
%TO.P,D4,2*%
%TO.N,Net-(D4-Pad2)*%
X125882400Y-46228000D03*
D13*
X123847400Y-46228000D03*
%TD*%
%TO.P,D5,1*%
%TO.N,row0*%
X138229800Y-53289200D03*
D12*
X136194800Y-53289200D03*
D14*
%TO.P,D5,2*%
%TO.N,Net-(D5-Pad2)*%
X143814800Y-53289200D03*
D13*
X141779800Y-53289200D03*
%TD*%
%TO.P,D6,1*%
%TO.N,row0*%
X156213000Y-55422800D03*
D12*
X154178000Y-55422800D03*
D13*
%TO.P,D6,2*%
%TO.N,Net-(D6-Pad2)*%
X159763000Y-55422800D03*
D14*
X161798000Y-55422800D03*
%TD*%
D12*
%TO.P,D8,1*%
%TO.N,row1*%
X82092800Y-81229200D03*
D13*
X84127800Y-81229200D03*
D14*
%TO.P,D8,2*%
%TO.N,Net-(D8-Pad2)*%
X89712800Y-81229200D03*
D13*
X87677800Y-81229200D03*
%TD*%
D12*
%TO.P,D9,1*%
%TO.N,row1*%
X100076000Y-69342000D03*
D13*
X102111000Y-69342000D03*
D14*
%TO.P,D9,2*%
%TO.N,Net-(D9-Pad2)*%
X107696000Y-69342000D03*
D13*
X105661000Y-69342000D03*
%TD*%
D12*
%TO.P,D10,1*%
%TO.N,row1*%
X118160800Y-63347600D03*
D13*
X120195800Y-63347600D03*
%TO.P,D10,2*%
%TO.N,Net-(D10-Pad2)*%
X123745800Y-63347600D03*
D14*
X125780800Y-63347600D03*
%TD*%
D12*
%TO.P,D11,1*%
%TO.N,row1*%
X136144000Y-69900800D03*
D13*
X138179000Y-69900800D03*
D14*
%TO.P,D11,2*%
%TO.N,Net-(D11-Pad2)*%
X143764000Y-69900800D03*
D13*
X141729000Y-69900800D03*
%TD*%
D12*
%TO.P,D12,1*%
%TO.N,row1*%
X154482800Y-72491600D03*
D13*
X156517800Y-72491600D03*
D14*
%TO.P,D12,2*%
%TO.N,Net-(D12-Pad2)*%
X162102800Y-72491600D03*
D13*
X160067800Y-72491600D03*
%TD*%
D12*
%TO.P,D14,1*%
%TO.N,row2*%
X82092800Y-98247200D03*
D13*
X84127800Y-98247200D03*
D14*
%TO.P,D14,2*%
%TO.N,Net-(D14-Pad2)*%
X89712800Y-98247200D03*
D13*
X87677800Y-98247200D03*
%TD*%
D12*
%TO.P,D15,1*%
%TO.N,row2*%
X100177600Y-86309200D03*
D13*
X102212600Y-86309200D03*
%TO.P,D15,2*%
%TO.N,Net-(D15-Pad2)*%
X105762600Y-86309200D03*
D14*
X107797600Y-86309200D03*
%TD*%
D13*
%TO.P,D16,1*%
%TO.N,row2*%
X120195800Y-80314800D03*
D12*
X118160800Y-80314800D03*
D13*
%TO.P,D16,2*%
%TO.N,Net-(D16-Pad2)*%
X123745800Y-80314800D03*
D14*
X125780800Y-80314800D03*
%TD*%
D12*
%TO.P,D17,1*%
%TO.N,row2*%
X136245600Y-86969600D03*
D13*
X138280600Y-86969600D03*
%TO.P,D17,2*%
%TO.N,Net-(D17-Pad2)*%
X141830600Y-86969600D03*
D14*
X143865600Y-86969600D03*
%TD*%
D13*
%TO.P,D18,1*%
%TO.N,row2*%
X156314600Y-89357200D03*
D12*
X154279600Y-89357200D03*
D14*
%TO.P,D18,2*%
%TO.N,Net-(D18-Pad2)*%
X161899600Y-89357200D03*
D13*
X159864600Y-89357200D03*
%TD*%
D15*
%TO.P,D19,1*%
%TO.N,row3*%
X137145502Y-120825937D03*
D16*
X135118246Y-121003299D03*
%TO.P,D19,2*%
%TO.N,Net-(D19-Pad2)*%
X131581754Y-121312701D03*
D14*
X129554498Y-121490063D03*
%TD*%
D17*
%TO.P,D20,1*%
%TO.N,row3*%
X154422246Y-121312701D03*
D18*
X156449502Y-121490063D03*
D14*
%TO.P,D20,2*%
%TO.N,Net-(D20-Pad2)*%
X148858498Y-120825937D03*
D17*
X150885754Y-121003299D03*
%TD*%
D19*
%TO.P,D21,1*%
%TO.N,row3*%
X181696176Y-116688967D03*
D20*
X180836147Y-118533304D03*
%TO.P,D21,2*%
%TO.N,Net-(D21-Pad2)*%
X179335853Y-121750696D03*
D14*
X178475824Y-123595033D03*
%TD*%
D21*
%TO.P,J1,A*%
%TO.N,Net-(J1-PadA)*%
X180062600Y-100920000D03*
X180062600Y-98470000D03*
%TO.P,J1,B*%
%TO.N,data*%
X188562600Y-102670000D03*
X188562600Y-96720000D03*
%TO.P,J1,C*%
%TO.N,GND*%
X185562600Y-96720000D03*
X185562600Y-102670000D03*
%TO.P,J1,D*%
%TO.N,VCC*%
X181562600Y-96720000D03*
X181562600Y-102670000D03*
%TD*%
D22*
%TO.P,SW2,1*%
%TO.N,col1*%
X82635000Y-76350000D03*
D23*
%TO.P,SW2,2*%
%TO.N,Net-(D2-Pad2)*%
X94185000Y-74150000D03*
%TD*%
D22*
%TO.P,SW3,1*%
%TO.N,col2*%
X100635000Y-64350000D03*
D23*
%TO.P,SW3,2*%
%TO.N,Net-(D3-Pad2)*%
X112185000Y-62150000D03*
%TD*%
D22*
%TO.P,SW4,1*%
%TO.N,col3*%
X118635000Y-58350000D03*
D23*
%TO.P,SW4,2*%
%TO.N,Net-(D4-Pad2)*%
X130185000Y-56150000D03*
%TD*%
D22*
%TO.P,SW5,1*%
%TO.N,col4*%
X136635000Y-64970000D03*
D23*
%TO.P,SW5,2*%
%TO.N,Net-(D5-Pad2)*%
X148185000Y-62770000D03*
%TD*%
D22*
%TO.P,SW6,1*%
%TO.N,col5*%
X154635000Y-67350000D03*
D23*
%TO.P,SW6,2*%
%TO.N,Net-(D6-Pad2)*%
X166185000Y-65150000D03*
%TD*%
D22*
%TO.P,SW8,1*%
%TO.N,col1*%
X82635000Y-93350000D03*
D23*
%TO.P,SW8,2*%
%TO.N,Net-(D8-Pad2)*%
X94185000Y-91150000D03*
%TD*%
D22*
%TO.P,SW9,1*%
%TO.N,col2*%
X100635000Y-81350000D03*
D23*
%TO.P,SW9,2*%
%TO.N,Net-(D9-Pad2)*%
X112185000Y-79150000D03*
%TD*%
D22*
%TO.P,SW10,1*%
%TO.N,col3*%
X118635000Y-75350000D03*
D23*
%TO.P,SW10,2*%
%TO.N,Net-(D10-Pad2)*%
X130185000Y-73150000D03*
%TD*%
D22*
%TO.P,SW11,1*%
%TO.N,col4*%
X136635000Y-81970000D03*
D23*
%TO.P,SW11,2*%
%TO.N,Net-(D11-Pad2)*%
X148185000Y-79770000D03*
%TD*%
D22*
%TO.P,SW12,1*%
%TO.N,col5*%
X154635000Y-84350000D03*
D23*
%TO.P,SW12,2*%
%TO.N,Net-(D12-Pad2)*%
X166185000Y-82150000D03*
%TD*%
D22*
%TO.P,SW14,1*%
%TO.N,col1*%
X82635000Y-110350000D03*
D24*
%TO.P,SW14,2*%
%TO.N,Net-(D14-Pad2)*%
X93810000Y-108150000D03*
%TD*%
D22*
%TO.P,SW15,1*%
%TO.N,col2*%
X100635000Y-98350000D03*
D23*
%TO.P,SW15,2*%
%TO.N,Net-(D15-Pad2)*%
X112185000Y-96150000D03*
%TD*%
D22*
%TO.P,SW16,1*%
%TO.N,col3*%
X118635000Y-92350000D03*
D23*
%TO.P,SW16,2*%
%TO.N,Net-(D16-Pad2)*%
X130185000Y-90150000D03*
%TD*%
D22*
%TO.P,SW17,1*%
%TO.N,col4*%
X136635000Y-98975000D03*
D23*
%TO.P,SW17,2*%
%TO.N,Net-(D17-Pad2)*%
X148185000Y-96775000D03*
%TD*%
D22*
%TO.P,SW18,1*%
%TO.N,col5*%
X154635000Y-101350000D03*
D23*
%TO.P,SW18,2*%
%TO.N,Net-(D18-Pad2)*%
X166185000Y-99150000D03*
%TD*%
D25*
%TO.P,SW19,1*%
%TO.N,col3*%
X135585961Y-109357206D03*
D26*
%TO.P,SW19,2*%
%TO.N,Net-(D19-Pad2)*%
X124271655Y-112555484D03*
%TD*%
D27*
%TO.P,SW20,1*%
%TO.N,col4*%
X156943114Y-109928077D03*
D28*
%TO.P,SW20,2*%
%TO.N,Net-(D20-Pad2)*%
X145245323Y-111113056D03*
%TD*%
D29*
%TO.P,SW21,1*%
%TO.N,col5*%
X170997543Y-112373263D03*
D30*
%TO.P,SW21,2*%
%TO.N,Net-(D21-Pad2)*%
X168110180Y-123770878D03*
%TD*%
D31*
%TO.P,U1,1*%
%TO.N,LED*%
X171270000Y-55719400D03*
X187816400Y-54449400D03*
%TO.P,U1,2*%
%TO.N,data*%
X187816400Y-56989400D03*
X171270000Y-58259400D03*
%TO.P,U1,3*%
%TO.N,GND*%
X187816400Y-59529400D03*
X171270000Y-60799400D03*
%TO.P,U1,4*%
X187816400Y-62069400D03*
X171270000Y-63339400D03*
%TO.P,U1,5*%
%TO.N,SDA*%
X171270000Y-65879400D03*
X187816400Y-64609400D03*
%TO.P,U1,6*%
%TO.N,SCL*%
X171270000Y-68419400D03*
X187816400Y-67149400D03*
%TO.P,U1,7*%
%TO.N,row0*%
X171270000Y-70959400D03*
X187816400Y-69689400D03*
%TO.P,U1,8*%
%TO.N,row1*%
X171270000Y-73499400D03*
X187816400Y-72229400D03*
%TO.P,U1,9*%
%TO.N,row2*%
X187816400Y-74769400D03*
X171270000Y-76039400D03*
%TO.P,U1,10*%
%TO.N,row3*%
X187816400Y-77309400D03*
X171270000Y-78579400D03*
%TO.P,U1,11*%
%TO.N,N/C*%
X187816400Y-79849400D03*
X171270000Y-81119400D03*
%TO.P,U1,12*%
X187816400Y-82389400D03*
X171270000Y-83659400D03*
%TO.P,U1,13*%
X172596400Y-82389400D03*
X186510000Y-83659400D03*
%TO.P,U1,14*%
X172596400Y-79849400D03*
X186510000Y-81119400D03*
%TO.P,U1,15*%
%TO.N,col5*%
X186510000Y-78579400D03*
X172596400Y-77309400D03*
%TO.P,U1,16*%
%TO.N,col4*%
X186510000Y-76039400D03*
X172596400Y-74769400D03*
%TO.P,U1,17*%
%TO.N,col3*%
X186510000Y-73499400D03*
X172596400Y-72229400D03*
%TO.P,U1,18*%
%TO.N,col2*%
X186510000Y-70959400D03*
X172596400Y-69689400D03*
%TO.P,U1,19*%
%TO.N,col1*%
X186510000Y-68419400D03*
X172596400Y-67149400D03*
%TO.P,U1,20*%
%TO.N,col0*%
X172596400Y-64609400D03*
X186510000Y-65879400D03*
%TO.P,U1,21*%
%TO.N,VCC*%
X186510000Y-63339400D03*
X172596400Y-62069400D03*
%TO.P,U1,22*%
%TO.N,reset*%
X186510000Y-60799400D03*
X172596400Y-59529400D03*
%TO.P,U1,23*%
%TO.N,GND*%
X172596400Y-56989400D03*
X186510000Y-58259400D03*
%TO.P,U1,24*%
%TO.N,Net-(U1-Pad24)*%
X186510000Y-55719400D03*
X172596400Y-54449400D03*
%TD*%
D32*
%TO.P,JP65,1*%
%TO.N,VCC*%
X180720000Y-84297020D03*
%TO.P,JP65,2*%
%TO.N,Net-(U1-Pad11)*%
X180720000Y-85297780D03*
%TD*%
D14*
%TO.P,J2,1*%
%TO.N,Net-(U1-Pad14)*%
X175580000Y-87457400D03*
%TO.P,J2,2*%
%TO.N,Net-(U1-Pad13)*%
X178120000Y-87457400D03*
%TO.P,J2,3*%
%TO.N,Net-(U1-Pad11)*%
X180660000Y-87457400D03*
%TO.P,J2,4*%
%TO.N,Net-(U1-Pad12)*%
X183200000Y-87457400D03*
%TD*%
D32*
%TO.P,JP63,1*%
%TO.N,SCL*%
X178120000Y-84317020D03*
%TO.P,JP63,2*%
%TO.N,Net-(U1-Pad13)*%
X178120000Y-85317780D03*
%TD*%
%TO.P,JP61,1*%
%TO.N,SDA*%
X175580000Y-84347020D03*
%TO.P,JP61,2*%
%TO.N,Net-(U1-Pad14)*%
X175580000Y-85347780D03*
%TD*%
%TO.P,JP68,1*%
%TO.N,GND*%
X183290000Y-84287420D03*
%TO.P,JP68,2*%
%TO.N,Net-(U1-Pad12)*%
X183290000Y-85288180D03*
%TD*%
D33*
%TO.P,RSW1,1*%
%TO.N,GND*%
X186150000Y-92150000D03*
%TO.P,RSW1,2*%
%TO.N,reset*%
X179650000Y-92150000D03*
%TD*%
D34*
%TO.P,h4,h4*%
%TO.N,N/C*%
X123952000Y-104140000D03*
%TD*%
D13*
%TO.P,D14,1*%
%TO.N,row2*%
X66133800Y-98251200D03*
D12*
X64098800Y-98251200D03*
D14*
%TO.P,D14,2*%
%TO.N,N/C*%
X71718800Y-98251200D03*
D13*
X69683800Y-98251200D03*
%TD*%
D34*
%TO.P,h5,h5*%
%TO.N,N/C*%
X95000000Y-83820000D03*
%TD*%
%TO.P,h3,h3*%
%TO.N,N/C*%
X165862000Y-109474000D03*
%TD*%
D35*
%TO.P,-ve,1*%
%TO.N,N/C*%
X184150000Y-52832000D03*
%TD*%
D36*
%TO.P,POWER,*%
%TO.N,*%
X189275000Y-91790000D03*
X191485000Y-84490000D03*
X191485000Y-91790000D03*
X189275000Y-84490000D03*
D37*
%TO.P,POWER,1*%
%TO.N,N/C*%
X188625000Y-90390000D03*
%TO.P,POWER,2*%
%TO.N,GND*%
X188625000Y-87390000D03*
%TO.P,POWER,3*%
%TO.N,N/C*%
X188625000Y-85890000D03*
%TD*%
D12*
%TO.P,D2,1*%
%TO.N,row0*%
X64200400Y-64316800D03*
D13*
X66235400Y-64316800D03*
%TO.P,D2,2*%
%TO.N,N/C*%
X69785400Y-64316800D03*
D14*
X71820400Y-64316800D03*
%TD*%
D38*
%TO.P,+ve,1*%
%TO.N,Net-(U1-Pad24)*%
X176280000Y-52832000D03*
%TD*%
D22*
%TO.P,SW2,1*%
%TO.N,col0*%
X64641000Y-76354000D03*
D39*
%TO.P,SW2,2*%
%TO.N,N/C*%
X75816000Y-74154000D03*
%TD*%
D34*
%TO.P,h6,h6*%
%TO.N,N/C*%
X95000000Y-66802000D03*
%TD*%
D12*
%TO.P,D8,1*%
%TO.N,row1*%
X64098800Y-81233200D03*
D13*
X66133800Y-81233200D03*
D14*
%TO.P,D8,2*%
%TO.N,N/C*%
X71718800Y-81233200D03*
D13*
X69683800Y-81233200D03*
%TD*%
D22*
%TO.P,SW8,1*%
%TO.N,col0*%
X64641000Y-93354000D03*
D39*
%TO.P,SW8,2*%
%TO.N,N/C*%
X75816000Y-91154000D03*
%TD*%
D22*
%TO.P,SW14,1*%
%TO.N,col0*%
X64641000Y-110354000D03*
D39*
%TO.P,SW14,2*%
%TO.N,N/C*%
X75816000Y-108154000D03*
%TD*%
D34*
%TO.P,h7,h7*%
%TO.N,N/C*%
X149100000Y-69700000D03*
%TD*%
D40*
%TO.N,*%
X75750000Y-91110000D03*
X75800000Y-74100000D03*
X75790000Y-108000000D03*
%TO.N,row0*%
X179450000Y-70959400D03*
X167900000Y-59040000D03*
%TO.N,row1*%
X179450000Y-73499400D03*
%TO.N,Net-(D2-Pad2)*%
X94185000Y-74150000D03*
%TO.N,row2*%
X174505490Y-76039400D03*
X179450000Y-76039400D03*
X173543700Y-88310000D03*
%TO.N,Net-(D3-Pad2)*%
X112185000Y-62150000D03*
X111150400Y-52374800D03*
%TO.N,row3*%
X179450000Y-78579400D03*
%TO.N,Net-(D4-Pad2)*%
X129387600Y-46329600D03*
X130185000Y-56150000D03*
%TO.N,Net-(D5-Pad2)*%
X148031200Y-53441600D03*
X148185000Y-62770000D03*
%TO.N,Net-(D6-Pad2)*%
X166116000Y-55524400D03*
X166185000Y-65150000D03*
%TO.N,Net-(D8-Pad2)*%
X94185000Y-91150000D03*
X89662000Y-84455000D03*
%TO.N,Net-(D9-Pad2)*%
X112185000Y-79150000D03*
X111760000Y-70205600D03*
%TO.N,Net-(D10-Pad2)*%
X130185000Y-73150000D03*
X129489200Y-63652400D03*
%TO.N,Net-(D11-Pad2)*%
X148185000Y-79770000D03*
%TO.N,Net-(D12-Pad2)*%
X166185000Y-82150000D03*
X166116000Y-73863200D03*
%TO.N,Net-(D14-Pad2)*%
X94185000Y-108150000D03*
X93878400Y-98602800D03*
%TO.N,Net-(D15-Pad2)*%
X112185000Y-96150000D03*
X111302800Y-86614000D03*
%TO.N,Net-(D16-Pad2)*%
X130185000Y-90150000D03*
X129082800Y-80873600D03*
%TO.N,Net-(D17-Pad2)*%
X148185000Y-96775000D03*
X148132800Y-87071200D03*
%TO.N,Net-(D18-Pad2)*%
X166185000Y-99150000D03*
X165912800Y-89408000D03*
%TO.N,Net-(D19-Pad2)*%
X124271655Y-112555484D03*
%TO.N,Net-(D20-Pad2)*%
X145245323Y-111113056D03*
%TO.N,Net-(D21-Pad2)*%
X168110180Y-123770878D03*
%TO.N,GND*%
X188625000Y-87390000D03*
X179450000Y-81117400D03*
%TO.N,col0*%
X99670000Y-83270000D03*
X142560000Y-84600000D03*
X152187742Y-70272258D03*
X64641000Y-110354000D03*
X64641000Y-93354000D03*
X87400000Y-79310000D03*
X181482000Y-67105400D03*
X64650000Y-76250000D03*
%TO.N,col1*%
X94589600Y-93776800D03*
X144723000Y-101473000D03*
X181482000Y-69645400D03*
X167233600Y-68333600D03*
X82635000Y-110350000D03*
X92252800Y-93878400D03*
X82635000Y-93350000D03*
X82635000Y-76350000D03*
%TO.N,col2*%
X100635000Y-64350000D03*
X181482000Y-72185400D03*
X100635000Y-81350000D03*
X100635000Y-98350000D03*
%TO.N,col3*%
X118635000Y-96525000D03*
X181482000Y-74725400D03*
X118635000Y-58350000D03*
X129060886Y-109928077D03*
X118635000Y-92350000D03*
X118635000Y-75350000D03*
X121767600Y-65430400D03*
%TO.N,col4*%
X136635000Y-98975000D03*
X136635000Y-64970000D03*
X181609000Y-77265400D03*
X136635000Y-81970000D03*
X150418039Y-109357206D03*
X138531600Y-72745600D03*
%TO.N,col5*%
X168215907Y-118296093D03*
X154635000Y-101350000D03*
X154635000Y-67350000D03*
X154635000Y-84350000D03*
X181609000Y-79805400D03*
%TO.N,reset*%
X184610000Y-82320000D03*
X181736000Y-82320000D03*
%TO.N,SCL*%
X179450000Y-68419400D03*
%TO.N,SDA*%
X179450000Y-65879400D03*
%TD*%
D41*
%TO.N,*%
X189632000Y-52832000D02*
X184150000Y-52832000D01*
D42*
%TO.N,Net-(U1-Pad24)*%
X176280000Y-52832000D02*
X174752000Y-52832000D01*
X172596400Y-54449400D02*
X174213800Y-52832000D01*
X174213800Y-52832000D02*
X174752000Y-52832000D01*
D41*
%TO.N,*%
X189632000Y-52832000D02*
X190470000Y-53670000D01*
X69785400Y-64316800D02*
X71820400Y-64316800D01*
D42*
X75750000Y-91110000D02*
X76130000Y-90730000D01*
X76191000Y-73709000D02*
X76191000Y-71141000D01*
X75800000Y-74100000D02*
X76191000Y-73709000D01*
X71718800Y-83308800D02*
X71718800Y-81233200D01*
X71820400Y-66770400D02*
X71820400Y-64316800D01*
X76191000Y-71141000D02*
X71820400Y-66770400D01*
D41*
%TO.N,Net-(U1-Pad24)*%
X190470000Y-85770000D02*
X191320000Y-86620000D01*
X188625000Y-89705000D02*
X188625000Y-90390000D01*
D42*
%TO.N,*%
X76130000Y-90730000D02*
X76130000Y-87720000D01*
D41*
X190470000Y-53670000D02*
X190470000Y-85770000D01*
X190180000Y-88150000D02*
X188625000Y-89705000D01*
D42*
X76130000Y-87720000D02*
X71718800Y-83308800D01*
D41*
%TO.N,Net-(U1-Pad24)*%
X191320000Y-88150000D02*
X190180000Y-88150000D01*
D42*
%TO.N,*%
X71718800Y-100386800D02*
X71718800Y-98251200D01*
D41*
%TO.N,Net-(U1-Pad24)*%
X191320000Y-86620000D02*
X191320000Y-88150000D01*
D42*
%TO.N,*%
X75816000Y-104484000D02*
X71718800Y-100386800D01*
D41*
X69683800Y-81233200D02*
X71718800Y-81233200D01*
X69683800Y-98251200D02*
X71718800Y-98251200D01*
D42*
X75816000Y-108154000D02*
X75816000Y-104484000D01*
%TO.N,row0*%
X96520000Y-53644800D02*
X97891600Y-52273200D01*
X118262400Y-46228000D02*
X120297400Y-46228000D01*
X154178000Y-55422800D02*
X156213000Y-55422800D01*
X138229800Y-53289200D02*
X136194800Y-53289200D01*
X85550200Y-62992000D02*
X84229400Y-64312800D01*
X169916300Y-70959400D02*
X171270000Y-70959400D01*
X66235400Y-64316800D02*
X64200400Y-64316800D01*
X185248000Y-69689400D02*
X183978000Y-70959400D01*
X102314200Y-52273200D02*
X100279200Y-52273200D01*
X167900000Y-68943100D02*
X169916300Y-70959400D01*
X96520000Y-53644800D02*
X96520000Y-61849000D01*
X95377000Y-62992000D02*
X85550200Y-62992000D01*
X167900000Y-59040000D02*
X167900000Y-68943100D01*
X81174900Y-63293300D02*
X82194400Y-64312800D01*
X97891600Y-52273200D02*
X100279200Y-52273200D01*
X67258900Y-63293300D02*
X81174900Y-63293300D01*
X96520000Y-61849000D02*
X95377000Y-62992000D01*
X187816400Y-69689400D02*
X185248000Y-69689400D01*
X84229400Y-64312800D02*
X82194400Y-64312800D01*
X66235400Y-64316800D02*
X67258900Y-63293300D01*
X183978000Y-70959400D02*
X179450000Y-70959400D01*
%TO.N,row1*%
X187816400Y-72229400D02*
X185502000Y-72229400D01*
X184232000Y-73499400D02*
X179450000Y-73499400D01*
X138179000Y-69900800D02*
X136144000Y-69900800D01*
X185502000Y-72229400D02*
X184232000Y-73499400D01*
X102111000Y-69342000D02*
X100076000Y-69342000D01*
X120195800Y-63347600D02*
X118160800Y-63347600D01*
X66133800Y-81233200D02*
X64098800Y-81233200D01*
X84127800Y-81229200D02*
X82092800Y-81229200D01*
X156517800Y-72491600D02*
X154482800Y-72491600D01*
%TO.N,Net-(D2-Pad2)*%
X89662000Y-66294000D02*
X89662000Y-64465200D01*
X93726000Y-70358000D02*
X89662000Y-66294000D01*
X93726000Y-73691000D02*
X93726000Y-70358000D01*
X94185000Y-74150000D02*
X93726000Y-73691000D01*
X89662000Y-64465200D02*
X89814400Y-64312800D01*
X87779400Y-64312800D02*
X89814400Y-64312800D01*
%TO.N,row2*%
X156314600Y-89357200D02*
X154279600Y-89357200D01*
X174680470Y-76214380D02*
X174505490Y-76039400D01*
X184486000Y-76039400D02*
X179450000Y-76039400D01*
X173557200Y-83874482D02*
X174680470Y-82751212D01*
X84127800Y-98247200D02*
X82092800Y-98247200D01*
X185756000Y-74769400D02*
X184486000Y-76039400D01*
X138280600Y-86969600D02*
X136245600Y-86969600D01*
X173557200Y-83874482D02*
X173557200Y-88296500D01*
X187816400Y-74769400D02*
X185756000Y-74769400D01*
X173557200Y-88296500D02*
X173543700Y-88310000D01*
X120195800Y-80314800D02*
X118160800Y-80314800D01*
X66133800Y-98251200D02*
X64098800Y-98251200D01*
X174680470Y-82751212D02*
X174680470Y-76214380D01*
X102212600Y-86309200D02*
X100177600Y-86309200D01*
%TO.N,Net-(D3-Pad2)*%
X111150400Y-61115400D02*
X112185000Y-62150000D01*
X105864200Y-52273200D02*
X107899200Y-52273200D01*
X111150400Y-52374800D02*
X111150400Y-61115400D01*
%TO.N,row3*%
X166370000Y-125476000D02*
X167640000Y-126746000D01*
X187633401Y-77492399D02*
X187816400Y-77309400D01*
X178308000Y-106426000D02*
X178816000Y-106934000D01*
X181696176Y-117673275D02*
X180836147Y-118533304D01*
X185573001Y-77492399D02*
X187633401Y-77492399D01*
X154422246Y-121312701D02*
X156272140Y-121312701D01*
X167640000Y-126746000D02*
X178308000Y-126746000D01*
X178816000Y-116513157D02*
X180836147Y-118533304D01*
X179450000Y-78579400D02*
X184486000Y-78579400D01*
X171270000Y-78579400D02*
X169645000Y-80204400D01*
X157734000Y-125476000D02*
X166370000Y-125476000D01*
X184486000Y-78579400D02*
X185573001Y-77492399D01*
X181696176Y-116688967D02*
X181696176Y-117673275D01*
X178816000Y-106934000D02*
X178816000Y-116513157D01*
X154422246Y-121312701D02*
X154422246Y-122164246D01*
X169645000Y-101025000D02*
X175046000Y-106426000D01*
X169645000Y-80204400D02*
X169645000Y-101025000D01*
X183134000Y-121920000D02*
X183134000Y-118126791D01*
X183134000Y-118126791D02*
X181696176Y-116688967D01*
X136968140Y-121003299D02*
X137145502Y-120825937D01*
X154422246Y-122164246D02*
X157734000Y-125476000D01*
X175046000Y-106426000D02*
X178308000Y-106426000D01*
X178308000Y-126746000D02*
X183134000Y-121920000D01*
X135118246Y-121003299D02*
X136968140Y-121003299D01*
X156272140Y-121312701D02*
X156449502Y-121490063D01*
%TO.N,Net-(D4-Pad2)*%
X129794000Y-46736000D02*
X129794000Y-55759000D01*
X129794000Y-55759000D02*
X130185000Y-56150000D01*
X129387600Y-46329600D02*
X129794000Y-46736000D01*
X123847400Y-46228000D02*
X125882400Y-46228000D01*
%TO.N,Net-(D5-Pad2)*%
X148185000Y-53595400D02*
X148185000Y-62770000D01*
X148031200Y-53441600D02*
X148185000Y-53595400D01*
X141779800Y-53289200D02*
X143814800Y-53289200D01*
%TO.N,Net-(D6-Pad2)*%
X166185000Y-55593400D02*
X166116000Y-55524400D01*
X159763000Y-55422800D02*
X161798000Y-55422800D01*
X166185000Y-65150000D02*
X166185000Y-55593400D01*
%TO.N,Net-(D8-Pad2)*%
X87677800Y-81229200D02*
X89712800Y-81229200D01*
X94185000Y-87708000D02*
X94185000Y-91150000D01*
X90932000Y-84455000D02*
X94185000Y-87708000D01*
X89662000Y-84455000D02*
X90932000Y-84455000D01*
%TO.N,Net-(D9-Pad2)*%
X111760000Y-70205600D02*
X112185000Y-70630600D01*
X105661000Y-69342000D02*
X107696000Y-69342000D01*
X112185000Y-70630600D02*
X112185000Y-79150000D01*
%TO.N,Net-(D10-Pad2)*%
X130185000Y-64348200D02*
X130185000Y-73150000D01*
X123745800Y-63347600D02*
X125780800Y-63347600D01*
X129489200Y-63652400D02*
X130185000Y-64348200D01*
%TO.N,Net-(D11-Pad2)*%
X143764000Y-69900800D02*
X143764000Y-73152000D01*
X148185000Y-75033000D02*
X148185000Y-79770000D01*
X144653000Y-74041000D02*
X147193000Y-74041000D01*
X147193000Y-74041000D02*
X148185000Y-75033000D01*
X143764000Y-73152000D02*
X144653000Y-74041000D01*
X141729000Y-69900800D02*
X143764000Y-69900800D01*
%TO.N,Net-(D12-Pad2)*%
X166185000Y-73932200D02*
X166185000Y-82150000D01*
X166116000Y-73863200D02*
X166185000Y-73932200D01*
X160067800Y-72491600D02*
X162102800Y-72491600D01*
%TO.N,Net-(D14-Pad2)*%
X94185000Y-98909400D02*
X94185000Y-108150000D01*
X87677800Y-98247200D02*
X89712800Y-98247200D01*
X93878400Y-98602800D02*
X94185000Y-98909400D01*
%TO.N,Net-(D15-Pad2)*%
X111302800Y-95267800D02*
X112185000Y-96150000D01*
X111302800Y-86614000D02*
X111302800Y-95267800D01*
X105762600Y-86309200D02*
X107797600Y-86309200D01*
%TO.N,Net-(D16-Pad2)*%
X123745800Y-80314800D02*
X125780800Y-80314800D01*
X130185000Y-81975800D02*
X130185000Y-90150000D01*
X129082800Y-80873600D02*
X130185000Y-81975800D01*
%TO.N,Net-(D17-Pad2)*%
X148185000Y-87123400D02*
X148185000Y-96775000D01*
X141830600Y-86969600D02*
X143865600Y-86969600D01*
X148132800Y-87071200D02*
X148185000Y-87123400D01*
%TO.N,Net-(D18-Pad2)*%
X166185000Y-89680200D02*
X166185000Y-99150000D01*
X165912800Y-89408000D02*
X166185000Y-89680200D01*
X159864600Y-89357200D02*
X161899600Y-89357200D01*
%TO.N,Net-(D19-Pad2)*%
X129554498Y-120045323D02*
X129554498Y-121490063D01*
X124271655Y-112555484D02*
X124271655Y-114762480D01*
X124271655Y-114762480D02*
X129554498Y-120045323D01*
X131581754Y-121312701D02*
X129731860Y-121312701D01*
X129731860Y-121312701D02*
X129554498Y-121490063D01*
%TO.N,Net-(D20-Pad2)*%
X145245323Y-115647075D02*
X148858498Y-119260250D01*
X145245323Y-111113056D02*
X145245323Y-115647075D01*
X148858498Y-120825937D02*
X150708392Y-120825937D01*
X148858498Y-119260250D02*
X148858498Y-120825937D01*
X150708392Y-120825937D02*
X150885754Y-121003299D01*
%TO.N,Net-(D21-Pad2)*%
X168110180Y-123770878D02*
X169947018Y-123770878D01*
X179335853Y-121750696D02*
X179335853Y-122735004D01*
X179335853Y-122735004D02*
X178475824Y-123595033D01*
X176445583Y-121564792D02*
X178475824Y-123595033D01*
X172153104Y-121564792D02*
X176445583Y-121564792D01*
X169947018Y-123770878D02*
X172153104Y-121564792D01*
%TO.N,GND*%
X173872000Y-63339400D02*
X171270000Y-63339400D01*
X188020000Y-87390000D02*
X187190000Y-86560000D01*
X187190000Y-86560000D02*
X187190000Y-84900000D01*
X188903400Y-83186600D02*
X188903400Y-63156400D01*
X188625000Y-87390000D02*
X188020000Y-87390000D01*
X185240000Y-56989400D02*
X186510000Y-58259400D01*
X187190000Y-84900000D02*
X188903400Y-83186600D01*
X186150000Y-87350000D02*
X186150000Y-92150000D01*
X182620020Y-84287420D02*
X179450000Y-81117400D01*
X172596400Y-56989400D02*
X185240000Y-56989400D01*
X179450000Y-81117400D02*
X176552010Y-78219410D01*
X185087420Y-84287420D02*
X186150000Y-85350000D01*
X176552010Y-66019410D02*
X173872000Y-63339400D01*
X186150000Y-96132600D02*
X185562600Y-96720000D01*
X187816400Y-59529400D02*
X187816400Y-62069400D01*
X188903400Y-63156400D02*
X187816400Y-62069400D01*
X185562600Y-96720000D02*
X185562600Y-102670000D01*
X186150000Y-85350000D02*
X186150000Y-87350000D01*
X176552010Y-78219410D02*
X176552010Y-66019410D01*
X183290000Y-84287420D02*
X182620020Y-84287420D01*
X183290000Y-84287420D02*
X185087420Y-84287420D01*
X186150000Y-92150000D02*
X186150000Y-96132600D01*
%TO.N,VCC*%
X179310000Y-84885520D02*
X179898500Y-84297020D01*
X181562600Y-94972600D02*
X181562600Y-96720000D01*
X178325000Y-88775000D02*
X179310000Y-87790000D01*
X179898500Y-84297020D02*
X180720000Y-84297020D01*
X181562600Y-96720000D02*
X181956600Y-97114000D01*
X181956600Y-102276000D02*
X181562600Y-102670000D01*
X179310000Y-87790000D02*
X179310000Y-84885520D01*
X180598767Y-94972600D02*
X178325000Y-92698833D01*
X178325000Y-92698833D02*
X178325000Y-88775000D01*
X185240000Y-62069400D02*
X186510000Y-63339400D01*
X181956600Y-97114000D02*
X181956600Y-102276000D01*
X181562600Y-94972600D02*
X180598767Y-94972600D01*
X172596400Y-62069400D02*
X185240000Y-62069400D01*
%TO.N,col0*%
X185756000Y-65879400D02*
X184530000Y-67105400D01*
X186383000Y-65879400D02*
X185756000Y-65879400D01*
X184530000Y-67105400D02*
X181482000Y-67105400D01*
X67908800Y-97387600D02*
X67908800Y-99470400D01*
X65165600Y-91545600D02*
X64641000Y-92070200D01*
X99670000Y-83270000D02*
X97738047Y-83270000D01*
X149880000Y-72580000D02*
X149880000Y-84560000D01*
X67807200Y-80217200D02*
X67807200Y-83112800D01*
X149840000Y-84600000D02*
X142560000Y-84600000D01*
X93778047Y-79310000D02*
X87400000Y-79310000D01*
X152187742Y-70272258D02*
X149880000Y-72580000D01*
X67807200Y-83112800D02*
X65165600Y-85754400D01*
X64641000Y-93354000D02*
X64641000Y-94119800D01*
X64641000Y-77051000D02*
X67807200Y-80217200D01*
X64641000Y-94119800D02*
X67908800Y-97387600D01*
X65622800Y-101756400D02*
X65622800Y-109372200D01*
X65622800Y-109372200D02*
X64641000Y-110354000D01*
X97738047Y-83270000D02*
X93778047Y-79310000D01*
X149880000Y-84560000D02*
X149840000Y-84600000D01*
X65165600Y-85754400D02*
X65165600Y-91545600D01*
X64641000Y-92070200D02*
X64641000Y-93354000D01*
X64641000Y-76354000D02*
X64641000Y-77051000D01*
X67908800Y-99470400D02*
X65622800Y-101756400D01*
%TO.N,col1*%
X184530000Y-69645400D02*
X181482000Y-69645400D01*
X185756000Y-68419400D02*
X184530000Y-69645400D01*
X186383000Y-68419400D02*
X185756000Y-68419400D01*
X144723000Y-101473000D02*
X146525001Y-103275001D01*
X82635000Y-92066200D02*
X82635000Y-93350000D01*
X92252800Y-93878400D02*
X92354400Y-93776800D01*
X85902800Y-97383600D02*
X85902800Y-99466400D01*
X82635000Y-93350000D02*
X82635000Y-94115800D01*
X165837999Y-103275001D02*
X168148000Y-100965000D01*
X85801200Y-80213200D02*
X85801200Y-83108800D01*
X168148000Y-100965000D02*
X168148000Y-79806800D01*
X85801200Y-83108800D02*
X83159600Y-85750400D01*
X168148000Y-79806800D02*
X167233600Y-78892400D01*
X85902800Y-99466400D02*
X83616800Y-101752400D01*
X82635000Y-76350000D02*
X82635000Y-77047000D01*
X83159600Y-85750400D02*
X83159600Y-91541600D01*
X83159600Y-91541600D02*
X82635000Y-92066200D01*
X82635000Y-94115800D02*
X85902800Y-97383600D01*
X83616800Y-109368200D02*
X82635000Y-110350000D01*
X83616800Y-101752400D02*
X83616800Y-109368200D01*
X82635000Y-77047000D02*
X85801200Y-80213200D01*
X167233600Y-78892400D02*
X167233600Y-68333600D01*
X146525001Y-103275001D02*
X165837999Y-103275001D01*
X92354400Y-93776800D02*
X94589600Y-93776800D01*
%TO.N,col2*%
X184530000Y-72185400D02*
X181482000Y-72185400D01*
X186383000Y-70959400D02*
X185756000Y-70959400D01*
X185756000Y-70959400D02*
X184530000Y-72185400D01*
X101295200Y-97689800D02*
X100635000Y-98350000D01*
X101295200Y-74015600D02*
X101295200Y-80689800D01*
X101295200Y-80689800D02*
X100635000Y-81350000D01*
X103733600Y-84448600D02*
X103733600Y-88290400D01*
X101295200Y-90728800D02*
X101295200Y-97689800D01*
X100635000Y-81350000D02*
X103733600Y-84448600D01*
X100635000Y-64350000D02*
X103682800Y-67397800D01*
X103733600Y-88290400D02*
X101295200Y-90728800D01*
X103682800Y-71628000D02*
X101295200Y-74015600D01*
X103682800Y-67397800D02*
X103682800Y-71628000D01*
%TO.N,col3*%
X184530000Y-74725400D02*
X181482000Y-74725400D01*
X185756000Y-73499400D02*
X184530000Y-74725400D01*
X186383000Y-73499400D02*
X185756000Y-73499400D01*
X119278400Y-85090000D02*
X119278400Y-91706600D01*
X118635000Y-75350000D02*
X121818400Y-78533400D01*
X130700452Y-111567643D02*
X133375524Y-111567643D01*
X121767600Y-65836800D02*
X119380000Y-68224400D01*
X129060886Y-109928077D02*
X130700452Y-111567643D01*
X119278400Y-91706600D02*
X118635000Y-92350000D01*
X121818400Y-82550000D02*
X119278400Y-85090000D01*
X121767600Y-65430400D02*
X121767600Y-65836800D01*
X118635000Y-58350000D02*
X121767600Y-61482600D01*
X133375524Y-111567643D02*
X135585961Y-109357206D01*
X119380000Y-68224400D02*
X119380000Y-74605000D01*
X119380000Y-74605000D02*
X118635000Y-75350000D01*
X118635000Y-92350000D02*
X118635000Y-96525000D01*
X121767600Y-61482600D02*
X121767600Y-65430400D01*
X121818400Y-78533400D02*
X121818400Y-82550000D01*
%TO.N,col4*%
X137160000Y-91694000D02*
X137160000Y-98450000D01*
X138531600Y-72745600D02*
X137312400Y-73964800D01*
X140004800Y-88849200D02*
X137160000Y-91694000D01*
X136635000Y-65464200D02*
X140004800Y-68834000D01*
X150418039Y-109357206D02*
X152628476Y-111567643D01*
X185883000Y-76039400D02*
X184657000Y-77265400D01*
X140004800Y-68834000D02*
X140004800Y-71272400D01*
X186510000Y-76039400D02*
X185883000Y-76039400D01*
X136635000Y-81970000D02*
X140004800Y-85339800D01*
X140004800Y-85339800D02*
X140004800Y-88849200D01*
X137312400Y-73964800D02*
X137312400Y-81292600D01*
X152628476Y-111567643D02*
X155303548Y-111567643D01*
X140004800Y-71272400D02*
X138531600Y-72745600D01*
X184657000Y-77265400D02*
X181609000Y-77265400D01*
X137160000Y-98450000D02*
X136635000Y-98975000D01*
X137312400Y-81292600D02*
X136635000Y-81970000D01*
X136635000Y-64970000D02*
X136635000Y-65464200D01*
X155303548Y-111567643D02*
X156943114Y-109928077D01*
%TO.N,col5*%
X184657000Y-79805400D02*
X181609000Y-79805400D01*
X185883000Y-78579400D02*
X184657000Y-79805400D01*
X186510000Y-78579400D02*
X185883000Y-78579400D01*
X154940000Y-101045000D02*
X154635000Y-101350000D01*
X158089600Y-73812400D02*
X155498800Y-76403200D01*
X154940000Y-94843600D02*
X154940000Y-101045000D01*
X154635000Y-84378600D02*
X157988000Y-87731600D01*
X154635000Y-68325800D02*
X158089600Y-71780400D01*
X157988000Y-91795600D02*
X154940000Y-94843600D01*
X155397200Y-80975200D02*
X155397200Y-83587800D01*
X154635000Y-84350000D02*
X154635000Y-84378600D01*
X155397200Y-83587800D02*
X154635000Y-84350000D01*
X171975776Y-115701477D02*
X171975776Y-113351496D01*
X168215907Y-118296093D02*
X169381160Y-118296093D01*
X169381160Y-118296093D02*
X171975776Y-115701477D01*
X157988000Y-87731600D02*
X157988000Y-91795600D01*
X155498800Y-76403200D02*
X155498800Y-80873600D01*
X171975776Y-113351496D02*
X170997543Y-112373263D01*
X158089600Y-71780400D02*
X158089600Y-73812400D01*
X155498800Y-80873600D02*
X155397200Y-80975200D01*
X154635000Y-67350000D02*
X154635000Y-68325800D01*
%TO.N,data*%
X188562600Y-96720000D02*
X188562600Y-102670000D01*
%TO.N,reset*%
X185240000Y-59529400D02*
X186510000Y-60799400D01*
X172596400Y-59529400D02*
X185240000Y-59529400D01*
X183260000Y-82320000D02*
X184610000Y-82320000D01*
X181736000Y-82320000D02*
X183260000Y-82320000D01*
%TO.N,SCL*%
X176950000Y-84665520D02*
X176950000Y-88117400D01*
X174728000Y-88695400D02*
X174243000Y-88210400D01*
X174243000Y-88210400D02*
X174243000Y-83824400D01*
X176950000Y-88117400D02*
X176372000Y-88695400D01*
X177298500Y-84317020D02*
X176950000Y-84665520D01*
X187816400Y-67149400D02*
X185248000Y-67149400D01*
X176372000Y-88695400D02*
X174728000Y-88695400D01*
X174452000Y-68419400D02*
X171270000Y-68419400D01*
X175129990Y-82937410D02*
X175129990Y-69097390D01*
X178120000Y-84317020D02*
X177298500Y-84317020D01*
X175129990Y-69097390D02*
X174452000Y-68419400D01*
X174243000Y-83824400D02*
X175129990Y-82937410D01*
X185248000Y-67149400D02*
X183978000Y-68419400D01*
X183978000Y-68419400D02*
X179450000Y-68419400D01*
%TO.N,SDA*%
X173712000Y-65879400D02*
X171270000Y-65879400D01*
X175580000Y-67747400D02*
X173712000Y-65879400D01*
X185248000Y-64609400D02*
X183978000Y-65879400D01*
X187816400Y-64609400D02*
X185248000Y-64609400D01*
X183978000Y-65879400D02*
X179450000Y-65879400D01*
X175580000Y-84347020D02*
X175580000Y-67747400D01*
%TO.N,Net-(U1-Pad14)*%
X175580000Y-85347780D02*
X175580000Y-87457400D01*
%TO.N,Net-(U1-Pad13)*%
X178120000Y-85317780D02*
X178120000Y-87457400D01*
%TO.N,Net-(U1-Pad12)*%
X183290000Y-85288180D02*
X183290000Y-87367400D01*
X183290000Y-87367400D02*
X183200000Y-87457400D01*
%TO.N,Net-(U1-Pad11)*%
X180720000Y-85297780D02*
X180720000Y-87397400D01*
X180720000Y-87397400D02*
X180660000Y-87457400D01*
%TO.N,Net-(J1-PadA)*%
X180062600Y-100920000D02*
X180062600Y-98470000D01*
%TO.N,Net-(U1-Pad24)*%
X185240000Y-54449400D02*
X172596400Y-54449400D01*
X185240000Y-54449400D02*
X186510000Y-55719400D01*
%TD*%
M02*
