%TF.GenerationSoftware,KiCad,Pcbnew,6.0.8-f2edbf62ab~116~ubuntu22.04.1*%
%TF.CreationDate,2022-10-26T10:02:15+11:00*%
%TF.ProjectId,banach,62616e61-6368-42e6-9b69-6361645f7063,rev1.0*%
%TF.SameCoordinates,Original*%
%TF.FileFunction,Legend,Bot*%
%TF.FilePolarity,Positive*%
%FSLAX46Y46*%
G04 Gerber Fmt 4.6, Leading zero omitted, Abs format (unit mm)*
G04 Created by KiCad (PCBNEW 6.0.8-f2edbf62ab~116~ubuntu22.04.1) date 2022-10-26 10:02:15*
%MOMM*%
%LPD*%
G01*
G04 APERTURE LIST*
%ADD10C,0.300000*%
%ADD11C,0.150000*%
%ADD12C,0.125000*%
%ADD13C,0.120000*%
G04 APERTURE END LIST*
D10*
X115438714Y-108497714D02*
X115010142Y-108640571D01*
X114867285Y-108783428D01*
X114724428Y-109069142D01*
X114724428Y-109497714D01*
X114867285Y-109783428D01*
X115010142Y-109926285D01*
X115295857Y-110069142D01*
X116438714Y-110069142D01*
X116438714Y-107069142D01*
X115438714Y-107069142D01*
X115153000Y-107212000D01*
X115010142Y-107354857D01*
X114867285Y-107640571D01*
X114867285Y-107926285D01*
X115010142Y-108212000D01*
X115153000Y-108354857D01*
X115438714Y-108497714D01*
X116438714Y-108497714D01*
X112153000Y-110069142D02*
X112153000Y-108497714D01*
X112295857Y-108212000D01*
X112581571Y-108069142D01*
X113153000Y-108069142D01*
X113438714Y-108212000D01*
X112153000Y-109926285D02*
X112438714Y-110069142D01*
X113153000Y-110069142D01*
X113438714Y-109926285D01*
X113581571Y-109640571D01*
X113581571Y-109354857D01*
X113438714Y-109069142D01*
X113153000Y-108926285D01*
X112438714Y-108926285D01*
X112153000Y-108783428D01*
X110724428Y-108069142D02*
X110724428Y-110069142D01*
X110724428Y-108354857D02*
X110581571Y-108212000D01*
X110295857Y-108069142D01*
X109867285Y-108069142D01*
X109581571Y-108212000D01*
X109438714Y-108497714D01*
X109438714Y-110069142D01*
X106724428Y-110069142D02*
X106724428Y-108497714D01*
X106867285Y-108212000D01*
X107153000Y-108069142D01*
X107724428Y-108069142D01*
X108010142Y-108212000D01*
X106724428Y-109926285D02*
X107010142Y-110069142D01*
X107724428Y-110069142D01*
X108010142Y-109926285D01*
X108153000Y-109640571D01*
X108153000Y-109354857D01*
X108010142Y-109069142D01*
X107724428Y-108926285D01*
X107010142Y-108926285D01*
X106724428Y-108783428D01*
X104010142Y-109926285D02*
X104295857Y-110069142D01*
X104867285Y-110069142D01*
X105153000Y-109926285D01*
X105295857Y-109783428D01*
X105438714Y-109497714D01*
X105438714Y-108640571D01*
X105295857Y-108354857D01*
X105153000Y-108212000D01*
X104867285Y-108069142D01*
X104295857Y-108069142D01*
X104010142Y-108212000D01*
X102724428Y-110069142D02*
X102724428Y-107069142D01*
X101438714Y-110069142D02*
X101438714Y-108497714D01*
X101581571Y-108212000D01*
X101867285Y-108069142D01*
X102295857Y-108069142D01*
X102581571Y-108212000D01*
X102724428Y-108354857D01*
D11*
%TO.C,J1*%
X184901480Y-97982595D02*
X184901480Y-98554023D01*
X185901480Y-98268309D02*
X184901480Y-98268309D01*
X185901480Y-99458785D02*
X185425290Y-99125452D01*
X185901480Y-98887357D02*
X184901480Y-98887357D01*
X184901480Y-99268309D01*
X184949100Y-99363547D01*
X184996719Y-99411166D01*
X185091957Y-99458785D01*
X185234814Y-99458785D01*
X185330052Y-99411166D01*
X185377671Y-99363547D01*
X185425290Y-99268309D01*
X185425290Y-98887357D01*
X185901480Y-100458785D02*
X185425290Y-100125452D01*
X185901480Y-99887357D02*
X184901480Y-99887357D01*
X184901480Y-100268309D01*
X184949100Y-100363547D01*
X184996719Y-100411166D01*
X185091957Y-100458785D01*
X185234814Y-100458785D01*
X185330052Y-100411166D01*
X185377671Y-100363547D01*
X185425290Y-100268309D01*
X185425290Y-99887357D01*
X185853861Y-100839738D02*
X185901480Y-100982595D01*
X185901480Y-101220690D01*
X185853861Y-101315928D01*
X185806242Y-101363547D01*
X185711004Y-101411166D01*
X185615766Y-101411166D01*
X185520528Y-101363547D01*
X185472909Y-101315928D01*
X185425290Y-101220690D01*
X185377671Y-101030214D01*
X185330052Y-100934976D01*
X185282433Y-100887357D01*
X185187195Y-100839738D01*
X185091957Y-100839738D01*
X184996719Y-100887357D01*
X184949100Y-100934976D01*
X184901480Y-101030214D01*
X184901480Y-101268309D01*
X184949100Y-101411166D01*
D12*
%TO.C,U1*%
X169490952Y-76505685D02*
X169657619Y-76148542D01*
X169776666Y-76505685D02*
X169776666Y-75755685D01*
X169586190Y-75755685D01*
X169538571Y-75791400D01*
X169514761Y-75827114D01*
X169490952Y-75898542D01*
X169490952Y-76005685D01*
X169514761Y-76077114D01*
X169538571Y-76112828D01*
X169586190Y-76148542D01*
X169776666Y-76148542D01*
X169181428Y-75755685D02*
X169086190Y-75755685D01*
X169038571Y-75791400D01*
X168990952Y-75862828D01*
X168967142Y-76005685D01*
X168967142Y-76255685D01*
X168990952Y-76398542D01*
X169038571Y-76469971D01*
X169086190Y-76505685D01*
X169181428Y-76505685D01*
X169229047Y-76469971D01*
X169276666Y-76398542D01*
X169300476Y-76255685D01*
X169300476Y-76005685D01*
X169276666Y-75862828D01*
X169229047Y-75791400D01*
X169181428Y-75755685D01*
X168800476Y-75755685D02*
X168681428Y-76505685D01*
X168586190Y-75969971D01*
X168490952Y-76505685D01*
X168371904Y-75755685D01*
X168205238Y-75827114D02*
X168181428Y-75791400D01*
X168133809Y-75755685D01*
X168014761Y-75755685D01*
X167967142Y-75791400D01*
X167943333Y-75827114D01*
X167919523Y-75898542D01*
X167919523Y-75969971D01*
X167943333Y-76077114D01*
X168229047Y-76505685D01*
X167919523Y-76505685D01*
X184707619Y-73795257D02*
X184731428Y-73830971D01*
X184802857Y-73866685D01*
X184850476Y-73866685D01*
X184921904Y-73830971D01*
X184969523Y-73759542D01*
X184993333Y-73688114D01*
X185017142Y-73545257D01*
X185017142Y-73438114D01*
X184993333Y-73295257D01*
X184969523Y-73223828D01*
X184921904Y-73152400D01*
X184850476Y-73116685D01*
X184802857Y-73116685D01*
X184731428Y-73152400D01*
X184707619Y-73188114D01*
X184398095Y-73116685D02*
X184302857Y-73116685D01*
X184255238Y-73152400D01*
X184207619Y-73223828D01*
X184183809Y-73366685D01*
X184183809Y-73616685D01*
X184207619Y-73759542D01*
X184255238Y-73830971D01*
X184302857Y-73866685D01*
X184398095Y-73866685D01*
X184445714Y-73830971D01*
X184493333Y-73759542D01*
X184517142Y-73616685D01*
X184517142Y-73366685D01*
X184493333Y-73223828D01*
X184445714Y-73152400D01*
X184398095Y-73116685D01*
X183731428Y-73866685D02*
X183969523Y-73866685D01*
X183969523Y-73116685D01*
X183612380Y-73116685D02*
X183302857Y-73116685D01*
X183469523Y-73402400D01*
X183398095Y-73402400D01*
X183350476Y-73438114D01*
X183326666Y-73473828D01*
X183302857Y-73545257D01*
X183302857Y-73723828D01*
X183326666Y-73795257D01*
X183350476Y-73830971D01*
X183398095Y-73866685D01*
X183540952Y-73866685D01*
X183588571Y-73830971D01*
X183612380Y-73795257D01*
X184696238Y-56122185D02*
X184862904Y-55765042D01*
X184981952Y-56122185D02*
X184981952Y-55372185D01*
X184791476Y-55372185D01*
X184743857Y-55407900D01*
X184720047Y-55443614D01*
X184696238Y-55515042D01*
X184696238Y-55622185D01*
X184720047Y-55693614D01*
X184743857Y-55729328D01*
X184791476Y-55765042D01*
X184981952Y-55765042D01*
X184505761Y-55907900D02*
X184267666Y-55907900D01*
X184553380Y-56122185D02*
X184386714Y-55372185D01*
X184220047Y-56122185D01*
X184101000Y-55372185D02*
X183981952Y-56122185D01*
X183886714Y-55586471D01*
X183791476Y-56122185D01*
X183672428Y-55372185D01*
X169432428Y-56122185D02*
X169670523Y-56122185D01*
X169670523Y-55372185D01*
X169265761Y-55729328D02*
X169099095Y-55729328D01*
X169027666Y-56122185D02*
X169265761Y-56122185D01*
X169265761Y-55372185D01*
X169027666Y-55372185D01*
X168813380Y-56122185D02*
X168813380Y-55372185D01*
X168694333Y-55372185D01*
X168622904Y-55407900D01*
X168575285Y-55479328D01*
X168551476Y-55550757D01*
X168527666Y-55693614D01*
X168527666Y-55800757D01*
X168551476Y-55943614D01*
X168575285Y-56015042D01*
X168622904Y-56086471D01*
X168694333Y-56122185D01*
X168813380Y-56122185D01*
X169706238Y-68786471D02*
X169634809Y-68822185D01*
X169515761Y-68822185D01*
X169468142Y-68786471D01*
X169444333Y-68750757D01*
X169420523Y-68679328D01*
X169420523Y-68607900D01*
X169444333Y-68536471D01*
X169468142Y-68500757D01*
X169515761Y-68465042D01*
X169611000Y-68429328D01*
X169658619Y-68393614D01*
X169682428Y-68357900D01*
X169706238Y-68286471D01*
X169706238Y-68215042D01*
X169682428Y-68143614D01*
X169658619Y-68107900D01*
X169611000Y-68072185D01*
X169491952Y-68072185D01*
X169420523Y-68107900D01*
X168920523Y-68750757D02*
X168944333Y-68786471D01*
X169015761Y-68822185D01*
X169063380Y-68822185D01*
X169134809Y-68786471D01*
X169182428Y-68715042D01*
X169206238Y-68643614D01*
X169230047Y-68500757D01*
X169230047Y-68393614D01*
X169206238Y-68250757D01*
X169182428Y-68179328D01*
X169134809Y-68107900D01*
X169063380Y-68072185D01*
X169015761Y-68072185D01*
X168944333Y-68107900D01*
X168920523Y-68143614D01*
X168468142Y-68822185D02*
X168706238Y-68822185D01*
X168706238Y-68072185D01*
X184807380Y-83605828D02*
X184735952Y-83641542D01*
X184712142Y-83677257D01*
X184688333Y-83748685D01*
X184688333Y-83855828D01*
X184712142Y-83927257D01*
X184735952Y-83962971D01*
X184783571Y-83998685D01*
X184974047Y-83998685D01*
X184974047Y-83248685D01*
X184807380Y-83248685D01*
X184759761Y-83284400D01*
X184735952Y-83320114D01*
X184712142Y-83391542D01*
X184712142Y-83462971D01*
X184735952Y-83534400D01*
X184759761Y-83570114D01*
X184807380Y-83605828D01*
X184974047Y-83605828D01*
X184259761Y-83248685D02*
X184355000Y-83248685D01*
X184402619Y-83284400D01*
X184426428Y-83320114D01*
X184474047Y-83427257D01*
X184497857Y-83570114D01*
X184497857Y-83855828D01*
X184474047Y-83927257D01*
X184450238Y-83962971D01*
X184402619Y-83998685D01*
X184307380Y-83998685D01*
X184259761Y-83962971D01*
X184235952Y-83927257D01*
X184212142Y-83855828D01*
X184212142Y-83677257D01*
X184235952Y-83605828D01*
X184259761Y-83570114D01*
X184307380Y-83534400D01*
X184402619Y-83534400D01*
X184450238Y-83570114D01*
X184474047Y-83605828D01*
X184497857Y-83677257D01*
X169490952Y-71298685D02*
X169657619Y-70941542D01*
X169776666Y-71298685D02*
X169776666Y-70548685D01*
X169586190Y-70548685D01*
X169538571Y-70584400D01*
X169514761Y-70620114D01*
X169490952Y-70691542D01*
X169490952Y-70798685D01*
X169514761Y-70870114D01*
X169538571Y-70905828D01*
X169586190Y-70941542D01*
X169776666Y-70941542D01*
X169181428Y-70548685D02*
X169086190Y-70548685D01*
X169038571Y-70584400D01*
X168990952Y-70655828D01*
X168967142Y-70798685D01*
X168967142Y-71048685D01*
X168990952Y-71191542D01*
X169038571Y-71262971D01*
X169086190Y-71298685D01*
X169181428Y-71298685D01*
X169229047Y-71262971D01*
X169276666Y-71191542D01*
X169300476Y-71048685D01*
X169300476Y-70798685D01*
X169276666Y-70655828D01*
X169229047Y-70584400D01*
X169181428Y-70548685D01*
X168800476Y-70548685D02*
X168681428Y-71298685D01*
X168586190Y-70762971D01*
X168490952Y-71298685D01*
X168371904Y-70548685D01*
X168086190Y-70548685D02*
X168038571Y-70548685D01*
X167990952Y-70584400D01*
X167967142Y-70620114D01*
X167943333Y-70691542D01*
X167919523Y-70834400D01*
X167919523Y-71012971D01*
X167943333Y-71155828D01*
X167967142Y-71227257D01*
X167990952Y-71262971D01*
X168038571Y-71298685D01*
X168086190Y-71298685D01*
X168133809Y-71262971D01*
X168157619Y-71227257D01*
X168181428Y-71155828D01*
X168205238Y-71012971D01*
X168205238Y-70834400D01*
X168181428Y-70691542D01*
X168157619Y-70620114D01*
X168133809Y-70584400D01*
X168086190Y-70548685D01*
X184707619Y-78945257D02*
X184731428Y-78980971D01*
X184802857Y-79016685D01*
X184850476Y-79016685D01*
X184921904Y-78980971D01*
X184969523Y-78909542D01*
X184993333Y-78838114D01*
X185017142Y-78695257D01*
X185017142Y-78588114D01*
X184993333Y-78445257D01*
X184969523Y-78373828D01*
X184921904Y-78302400D01*
X184850476Y-78266685D01*
X184802857Y-78266685D01*
X184731428Y-78302400D01*
X184707619Y-78338114D01*
X184398095Y-78266685D02*
X184302857Y-78266685D01*
X184255238Y-78302400D01*
X184207619Y-78373828D01*
X184183809Y-78516685D01*
X184183809Y-78766685D01*
X184207619Y-78909542D01*
X184255238Y-78980971D01*
X184302857Y-79016685D01*
X184398095Y-79016685D01*
X184445714Y-78980971D01*
X184493333Y-78909542D01*
X184517142Y-78766685D01*
X184517142Y-78516685D01*
X184493333Y-78373828D01*
X184445714Y-78302400D01*
X184398095Y-78266685D01*
X183731428Y-79016685D02*
X183969523Y-79016685D01*
X183969523Y-78266685D01*
X183326666Y-78266685D02*
X183564761Y-78266685D01*
X183588571Y-78623828D01*
X183564761Y-78588114D01*
X183517142Y-78552400D01*
X183398095Y-78552400D01*
X183350476Y-78588114D01*
X183326666Y-78623828D01*
X183302857Y-78695257D01*
X183302857Y-78873828D01*
X183326666Y-78945257D01*
X183350476Y-78980971D01*
X183398095Y-79016685D01*
X183517142Y-79016685D01*
X183564761Y-78980971D01*
X183588571Y-78945257D01*
D11*
D12*
X169710000Y-58766685D02*
X169710000Y-58016685D01*
X169590952Y-58016685D01*
X169519523Y-58052400D01*
X169471904Y-58123828D01*
X169448095Y-58195257D01*
X169424285Y-58338114D01*
X169424285Y-58445257D01*
X169448095Y-58588114D01*
X169471904Y-58659542D01*
X169519523Y-58730971D01*
X169590952Y-58766685D01*
X169710000Y-58766685D01*
X169233809Y-58552400D02*
X168995714Y-58552400D01*
X169281428Y-58766685D02*
X169114761Y-58016685D01*
X168948095Y-58766685D01*
X168852857Y-58016685D02*
X168567142Y-58016685D01*
X168710000Y-58766685D02*
X168710000Y-58016685D01*
X168424285Y-58552400D02*
X168186190Y-58552400D01*
X168471904Y-58766685D02*
X168305238Y-58016685D01*
X168138571Y-58766685D01*
X184954166Y-62992185D02*
X184787500Y-63742185D01*
X184620833Y-62992185D01*
X184168452Y-63670757D02*
X184192261Y-63706471D01*
X184263690Y-63742185D01*
X184311309Y-63742185D01*
X184382738Y-63706471D01*
X184430357Y-63635042D01*
X184454166Y-63563614D01*
X184477976Y-63420757D01*
X184477976Y-63313614D01*
X184454166Y-63170757D01*
X184430357Y-63099328D01*
X184382738Y-63027900D01*
X184311309Y-62992185D01*
X184263690Y-62992185D01*
X184192261Y-63027900D01*
X184168452Y-63063614D01*
X183668452Y-63670757D02*
X183692261Y-63706471D01*
X183763690Y-63742185D01*
X183811309Y-63742185D01*
X183882738Y-63706471D01*
X183930357Y-63635042D01*
X183954166Y-63563614D01*
X183977976Y-63420757D01*
X183977976Y-63313614D01*
X183954166Y-63170757D01*
X183930357Y-63099328D01*
X183882738Y-63027900D01*
X183811309Y-62992185D01*
X183763690Y-62992185D01*
X183692261Y-63027900D01*
X183668452Y-63063614D01*
X184870880Y-81002328D02*
X184799452Y-81038042D01*
X184775642Y-81073757D01*
X184751833Y-81145185D01*
X184751833Y-81252328D01*
X184775642Y-81323757D01*
X184799452Y-81359471D01*
X184847071Y-81395185D01*
X185037547Y-81395185D01*
X185037547Y-80645185D01*
X184870880Y-80645185D01*
X184823261Y-80680900D01*
X184799452Y-80716614D01*
X184775642Y-80788042D01*
X184775642Y-80859471D01*
X184799452Y-80930900D01*
X184823261Y-80966614D01*
X184870880Y-81002328D01*
X185037547Y-81002328D01*
X184561357Y-80716614D02*
X184537547Y-80680900D01*
X184489928Y-80645185D01*
X184370880Y-80645185D01*
X184323261Y-80680900D01*
X184299452Y-80716614D01*
X184275642Y-80788042D01*
X184275642Y-80859471D01*
X184299452Y-80966614D01*
X184585166Y-81395185D01*
X184275642Y-81395185D01*
X169491952Y-60487900D02*
X169539571Y-60452185D01*
X169611000Y-60452185D01*
X169682428Y-60487900D01*
X169730047Y-60559328D01*
X169753857Y-60630757D01*
X169777666Y-60773614D01*
X169777666Y-60880757D01*
X169753857Y-61023614D01*
X169730047Y-61095042D01*
X169682428Y-61166471D01*
X169611000Y-61202185D01*
X169563380Y-61202185D01*
X169491952Y-61166471D01*
X169468142Y-61130757D01*
X169468142Y-60880757D01*
X169563380Y-60880757D01*
X169253857Y-61202185D02*
X169253857Y-60452185D01*
X168968142Y-61202185D01*
X168968142Y-60452185D01*
X168730047Y-61202185D02*
X168730047Y-60452185D01*
X168611000Y-60452185D01*
X168539571Y-60487900D01*
X168491952Y-60559328D01*
X168468142Y-60630757D01*
X168444333Y-60773614D01*
X168444333Y-60880757D01*
X168468142Y-61023614D01*
X168491952Y-61095042D01*
X168539571Y-61166471D01*
X168611000Y-61202185D01*
X168730047Y-61202185D01*
X184657619Y-76307257D02*
X184681428Y-76342971D01*
X184752857Y-76378685D01*
X184800476Y-76378685D01*
X184871904Y-76342971D01*
X184919523Y-76271542D01*
X184943333Y-76200114D01*
X184967142Y-76057257D01*
X184967142Y-75950114D01*
X184943333Y-75807257D01*
X184919523Y-75735828D01*
X184871904Y-75664400D01*
X184800476Y-75628685D01*
X184752857Y-75628685D01*
X184681428Y-75664400D01*
X184657619Y-75700114D01*
X184348095Y-75628685D02*
X184252857Y-75628685D01*
X184205238Y-75664400D01*
X184157619Y-75735828D01*
X184133809Y-75878685D01*
X184133809Y-76128685D01*
X184157619Y-76271542D01*
X184205238Y-76342971D01*
X184252857Y-76378685D01*
X184348095Y-76378685D01*
X184395714Y-76342971D01*
X184443333Y-76271542D01*
X184467142Y-76128685D01*
X184467142Y-75878685D01*
X184443333Y-75735828D01*
X184395714Y-75664400D01*
X184348095Y-75628685D01*
X183681428Y-76378685D02*
X183919523Y-76378685D01*
X183919523Y-75628685D01*
X183300476Y-75878685D02*
X183300476Y-76378685D01*
X183419523Y-75592971D02*
X183538571Y-76128685D01*
X183229047Y-76128685D01*
X169718142Y-66246471D02*
X169646714Y-66282185D01*
X169527666Y-66282185D01*
X169480047Y-66246471D01*
X169456238Y-66210757D01*
X169432428Y-66139328D01*
X169432428Y-66067900D01*
X169456238Y-65996471D01*
X169480047Y-65960757D01*
X169527666Y-65925042D01*
X169622904Y-65889328D01*
X169670523Y-65853614D01*
X169694333Y-65817900D01*
X169718142Y-65746471D01*
X169718142Y-65675042D01*
X169694333Y-65603614D01*
X169670523Y-65567900D01*
X169622904Y-65532185D01*
X169503857Y-65532185D01*
X169432428Y-65567900D01*
X169218142Y-66282185D02*
X169218142Y-65532185D01*
X169099095Y-65532185D01*
X169027666Y-65567900D01*
X168980047Y-65639328D01*
X168956238Y-65710757D01*
X168932428Y-65853614D01*
X168932428Y-65960757D01*
X168956238Y-66103614D01*
X168980047Y-66175042D01*
X169027666Y-66246471D01*
X169099095Y-66282185D01*
X169218142Y-66282185D01*
X168741952Y-66067900D02*
X168503857Y-66067900D01*
X168789571Y-66282185D02*
X168622904Y-65532185D01*
X168456238Y-66282185D01*
X184624809Y-61202185D02*
X184791476Y-60845042D01*
X184910523Y-61202185D02*
X184910523Y-60452185D01*
X184720047Y-60452185D01*
X184672428Y-60487900D01*
X184648619Y-60523614D01*
X184624809Y-60595042D01*
X184624809Y-60702185D01*
X184648619Y-60773614D01*
X184672428Y-60809328D01*
X184720047Y-60845042D01*
X184910523Y-60845042D01*
X184434333Y-61166471D02*
X184362904Y-61202185D01*
X184243857Y-61202185D01*
X184196238Y-61166471D01*
X184172428Y-61130757D01*
X184148619Y-61059328D01*
X184148619Y-60987900D01*
X184172428Y-60916471D01*
X184196238Y-60880757D01*
X184243857Y-60845042D01*
X184339095Y-60809328D01*
X184386714Y-60773614D01*
X184410523Y-60737900D01*
X184434333Y-60666471D01*
X184434333Y-60595042D01*
X184410523Y-60523614D01*
X184386714Y-60487900D01*
X184339095Y-60452185D01*
X184220047Y-60452185D01*
X184148619Y-60487900D01*
X184005761Y-60452185D02*
X183720047Y-60452185D01*
X183862904Y-61202185D02*
X183862904Y-60452185D01*
X184707619Y-68750757D02*
X184731428Y-68786471D01*
X184802857Y-68822185D01*
X184850476Y-68822185D01*
X184921904Y-68786471D01*
X184969523Y-68715042D01*
X184993333Y-68643614D01*
X185017142Y-68500757D01*
X185017142Y-68393614D01*
X184993333Y-68250757D01*
X184969523Y-68179328D01*
X184921904Y-68107900D01*
X184850476Y-68072185D01*
X184802857Y-68072185D01*
X184731428Y-68107900D01*
X184707619Y-68143614D01*
X184398095Y-68072185D02*
X184302857Y-68072185D01*
X184255238Y-68107900D01*
X184207619Y-68179328D01*
X184183809Y-68322185D01*
X184183809Y-68572185D01*
X184207619Y-68715042D01*
X184255238Y-68786471D01*
X184302857Y-68822185D01*
X184398095Y-68822185D01*
X184445714Y-68786471D01*
X184493333Y-68715042D01*
X184517142Y-68572185D01*
X184517142Y-68322185D01*
X184493333Y-68179328D01*
X184445714Y-68107900D01*
X184398095Y-68072185D01*
X183731428Y-68822185D02*
X183969523Y-68822185D01*
X183969523Y-68072185D01*
X183302857Y-68822185D02*
X183588571Y-68822185D01*
X183445714Y-68822185D02*
X183445714Y-68072185D01*
X183493333Y-68179328D01*
X183540952Y-68250757D01*
X183588571Y-68286471D01*
X184668452Y-57884400D02*
X184716071Y-57848685D01*
X184787500Y-57848685D01*
X184858928Y-57884400D01*
X184906547Y-57955828D01*
X184930357Y-58027257D01*
X184954166Y-58170114D01*
X184954166Y-58277257D01*
X184930357Y-58420114D01*
X184906547Y-58491542D01*
X184858928Y-58562971D01*
X184787500Y-58598685D01*
X184739880Y-58598685D01*
X184668452Y-58562971D01*
X184644642Y-58527257D01*
X184644642Y-58277257D01*
X184739880Y-58277257D01*
X184430357Y-58598685D02*
X184430357Y-57848685D01*
X184144642Y-58598685D01*
X184144642Y-57848685D01*
X183906547Y-58598685D02*
X183906547Y-57848685D01*
X183787500Y-57848685D01*
X183716071Y-57884400D01*
X183668452Y-57955828D01*
X183644642Y-58027257D01*
X183620833Y-58170114D01*
X183620833Y-58277257D01*
X183644642Y-58420114D01*
X183668452Y-58491542D01*
X183716071Y-58562971D01*
X183787500Y-58598685D01*
X183906547Y-58598685D01*
X184707619Y-71295257D02*
X184731428Y-71330971D01*
X184802857Y-71366685D01*
X184850476Y-71366685D01*
X184921904Y-71330971D01*
X184969523Y-71259542D01*
X184993333Y-71188114D01*
X185017142Y-71045257D01*
X185017142Y-70938114D01*
X184993333Y-70795257D01*
X184969523Y-70723828D01*
X184921904Y-70652400D01*
X184850476Y-70616685D01*
X184802857Y-70616685D01*
X184731428Y-70652400D01*
X184707619Y-70688114D01*
X184398095Y-70616685D02*
X184302857Y-70616685D01*
X184255238Y-70652400D01*
X184207619Y-70723828D01*
X184183809Y-70866685D01*
X184183809Y-71116685D01*
X184207619Y-71259542D01*
X184255238Y-71330971D01*
X184302857Y-71366685D01*
X184398095Y-71366685D01*
X184445714Y-71330971D01*
X184493333Y-71259542D01*
X184517142Y-71116685D01*
X184517142Y-70866685D01*
X184493333Y-70723828D01*
X184445714Y-70652400D01*
X184398095Y-70616685D01*
X183731428Y-71366685D02*
X183969523Y-71366685D01*
X183969523Y-70616685D01*
X183588571Y-70688114D02*
X183564761Y-70652400D01*
X183517142Y-70616685D01*
X183398095Y-70616685D01*
X183350476Y-70652400D01*
X183326666Y-70688114D01*
X183302857Y-70759542D01*
X183302857Y-70830971D01*
X183326666Y-70938114D01*
X183612380Y-71366685D01*
X183302857Y-71366685D01*
X169491952Y-63027900D02*
X169539571Y-62992185D01*
X169611000Y-62992185D01*
X169682428Y-63027900D01*
X169730047Y-63099328D01*
X169753857Y-63170757D01*
X169777666Y-63313614D01*
X169777666Y-63420757D01*
X169753857Y-63563614D01*
X169730047Y-63635042D01*
X169682428Y-63706471D01*
X169611000Y-63742185D01*
X169563380Y-63742185D01*
X169491952Y-63706471D01*
X169468142Y-63670757D01*
X169468142Y-63420757D01*
X169563380Y-63420757D01*
X169253857Y-63742185D02*
X169253857Y-62992185D01*
X168968142Y-63742185D01*
X168968142Y-62992185D01*
X168730047Y-63742185D02*
X168730047Y-62992185D01*
X168611000Y-62992185D01*
X168539571Y-63027900D01*
X168491952Y-63099328D01*
X168468142Y-63170757D01*
X168444333Y-63313614D01*
X168444333Y-63420757D01*
X168468142Y-63563614D01*
X168491952Y-63635042D01*
X168539571Y-63706471D01*
X168611000Y-63742185D01*
X168730047Y-63742185D01*
X169490952Y-79016685D02*
X169657619Y-78659542D01*
X169776666Y-79016685D02*
X169776666Y-78266685D01*
X169586190Y-78266685D01*
X169538571Y-78302400D01*
X169514761Y-78338114D01*
X169490952Y-78409542D01*
X169490952Y-78516685D01*
X169514761Y-78588114D01*
X169538571Y-78623828D01*
X169586190Y-78659542D01*
X169776666Y-78659542D01*
X169181428Y-78266685D02*
X169086190Y-78266685D01*
X169038571Y-78302400D01*
X168990952Y-78373828D01*
X168967142Y-78516685D01*
X168967142Y-78766685D01*
X168990952Y-78909542D01*
X169038571Y-78980971D01*
X169086190Y-79016685D01*
X169181428Y-79016685D01*
X169229047Y-78980971D01*
X169276666Y-78909542D01*
X169300476Y-78766685D01*
X169300476Y-78516685D01*
X169276666Y-78373828D01*
X169229047Y-78302400D01*
X169181428Y-78266685D01*
X168800476Y-78266685D02*
X168681428Y-79016685D01*
X168586190Y-78480971D01*
X168490952Y-79016685D01*
X168371904Y-78266685D01*
X168229047Y-78266685D02*
X167919523Y-78266685D01*
X168086190Y-78552400D01*
X168014761Y-78552400D01*
X167967142Y-78588114D01*
X167943333Y-78623828D01*
X167919523Y-78695257D01*
X167919523Y-78873828D01*
X167943333Y-78945257D01*
X167967142Y-78980971D01*
X168014761Y-79016685D01*
X168157619Y-79016685D01*
X168205238Y-78980971D01*
X168229047Y-78945257D01*
X169313380Y-81129328D02*
X169241952Y-81165042D01*
X169218142Y-81200757D01*
X169194333Y-81272185D01*
X169194333Y-81379328D01*
X169218142Y-81450757D01*
X169241952Y-81486471D01*
X169289571Y-81522185D01*
X169480047Y-81522185D01*
X169480047Y-80772185D01*
X169313380Y-80772185D01*
X169265761Y-80807900D01*
X169241952Y-80843614D01*
X169218142Y-80915042D01*
X169218142Y-80986471D01*
X169241952Y-81057900D01*
X169265761Y-81093614D01*
X169313380Y-81129328D01*
X169480047Y-81129328D01*
X168765761Y-81022185D02*
X168765761Y-81522185D01*
X168884809Y-80736471D02*
X169003857Y-81272185D01*
X168694333Y-81272185D01*
X184707619Y-66245257D02*
X184731428Y-66280971D01*
X184802857Y-66316685D01*
X184850476Y-66316685D01*
X184921904Y-66280971D01*
X184969523Y-66209542D01*
X184993333Y-66138114D01*
X185017142Y-65995257D01*
X185017142Y-65888114D01*
X184993333Y-65745257D01*
X184969523Y-65673828D01*
X184921904Y-65602400D01*
X184850476Y-65566685D01*
X184802857Y-65566685D01*
X184731428Y-65602400D01*
X184707619Y-65638114D01*
X184398095Y-65566685D02*
X184302857Y-65566685D01*
X184255238Y-65602400D01*
X184207619Y-65673828D01*
X184183809Y-65816685D01*
X184183809Y-66066685D01*
X184207619Y-66209542D01*
X184255238Y-66280971D01*
X184302857Y-66316685D01*
X184398095Y-66316685D01*
X184445714Y-66280971D01*
X184493333Y-66209542D01*
X184517142Y-66066685D01*
X184517142Y-65816685D01*
X184493333Y-65673828D01*
X184445714Y-65602400D01*
X184398095Y-65566685D01*
X183731428Y-66316685D02*
X183969523Y-66316685D01*
X183969523Y-65566685D01*
X183469523Y-65566685D02*
X183421904Y-65566685D01*
X183374285Y-65602400D01*
X183350476Y-65638114D01*
X183326666Y-65709542D01*
X183302857Y-65852400D01*
X183302857Y-66030971D01*
X183326666Y-66173828D01*
X183350476Y-66245257D01*
X183374285Y-66280971D01*
X183421904Y-66316685D01*
X183469523Y-66316685D01*
X183517142Y-66280971D01*
X183540952Y-66245257D01*
X183564761Y-66173828D01*
X183588571Y-66030971D01*
X183588571Y-65852400D01*
X183564761Y-65709542D01*
X183540952Y-65638114D01*
X183517142Y-65602400D01*
X183469523Y-65566685D01*
X169490952Y-73902185D02*
X169657619Y-73545042D01*
X169776666Y-73902185D02*
X169776666Y-73152185D01*
X169586190Y-73152185D01*
X169538571Y-73187900D01*
X169514761Y-73223614D01*
X169490952Y-73295042D01*
X169490952Y-73402185D01*
X169514761Y-73473614D01*
X169538571Y-73509328D01*
X169586190Y-73545042D01*
X169776666Y-73545042D01*
X169181428Y-73152185D02*
X169086190Y-73152185D01*
X169038571Y-73187900D01*
X168990952Y-73259328D01*
X168967142Y-73402185D01*
X168967142Y-73652185D01*
X168990952Y-73795042D01*
X169038571Y-73866471D01*
X169086190Y-73902185D01*
X169181428Y-73902185D01*
X169229047Y-73866471D01*
X169276666Y-73795042D01*
X169300476Y-73652185D01*
X169300476Y-73402185D01*
X169276666Y-73259328D01*
X169229047Y-73187900D01*
X169181428Y-73152185D01*
X168800476Y-73152185D02*
X168681428Y-73902185D01*
X168586190Y-73366471D01*
X168490952Y-73902185D01*
X168371904Y-73152185D01*
X167919523Y-73902185D02*
X168205238Y-73902185D01*
X168062380Y-73902185D02*
X168062380Y-73152185D01*
X168110000Y-73259328D01*
X168157619Y-73330757D01*
X168205238Y-73366471D01*
D11*
D12*
X169313380Y-83669328D02*
X169241952Y-83705042D01*
X169218142Y-83740757D01*
X169194333Y-83812185D01*
X169194333Y-83919328D01*
X169218142Y-83990757D01*
X169241952Y-84026471D01*
X169289571Y-84062185D01*
X169480047Y-84062185D01*
X169480047Y-83312185D01*
X169313380Y-83312185D01*
X169265761Y-83347900D01*
X169241952Y-83383614D01*
X169218142Y-83455042D01*
X169218142Y-83526471D01*
X169241952Y-83597900D01*
X169265761Y-83633614D01*
X169313380Y-83669328D01*
X169480047Y-83669328D01*
X168741952Y-83312185D02*
X168980047Y-83312185D01*
X169003857Y-83669328D01*
X168980047Y-83633614D01*
X168932428Y-83597900D01*
X168813380Y-83597900D01*
X168765761Y-83633614D01*
X168741952Y-83669328D01*
X168718142Y-83740757D01*
X168718142Y-83919328D01*
X168741952Y-83990757D01*
X168765761Y-84026471D01*
X168813380Y-84062185D01*
X168932428Y-84062185D01*
X168980047Y-84026471D01*
X169003857Y-83990757D01*
D11*
%TO.C,J2*%
X181122380Y-89032380D02*
X180931904Y-89032380D01*
X180836666Y-89080000D01*
X180741428Y-89175238D01*
X180693809Y-89365714D01*
X180693809Y-89699047D01*
X180741428Y-89889523D01*
X180836666Y-89984761D01*
X180931904Y-90032380D01*
X181122380Y-90032380D01*
X181217619Y-89984761D01*
X181312857Y-89889523D01*
X181360476Y-89699047D01*
X181360476Y-89365714D01*
X181312857Y-89175238D01*
X181217619Y-89080000D01*
X181122380Y-89032380D01*
X179789047Y-90032380D02*
X180265238Y-90032380D01*
X180265238Y-89032380D01*
X179455714Y-89508571D02*
X179122380Y-89508571D01*
X178979523Y-90032380D02*
X179455714Y-90032380D01*
X179455714Y-89032380D01*
X178979523Y-89032380D01*
X178550952Y-90032380D02*
X178550952Y-89032380D01*
X178312857Y-89032380D01*
X178170000Y-89080000D01*
X178074761Y-89175238D01*
X178027142Y-89270476D01*
X177979523Y-89460952D01*
X177979523Y-89603809D01*
X178027142Y-89794285D01*
X178074761Y-89889523D01*
X178170000Y-89984761D01*
X178312857Y-90032380D01*
X178550952Y-90032380D01*
%TO.C,RSW1*%
X184479380Y-92602380D02*
X184812714Y-92126190D01*
X185050809Y-92602380D02*
X185050809Y-91602380D01*
X184669857Y-91602380D01*
X184574619Y-91650000D01*
X184527000Y-91697619D01*
X184479380Y-91792857D01*
X184479380Y-91935714D01*
X184527000Y-92030952D01*
X184574619Y-92078571D01*
X184669857Y-92126190D01*
X185050809Y-92126190D01*
X184050809Y-92078571D02*
X183717476Y-92078571D01*
X183574619Y-92602380D02*
X184050809Y-92602380D01*
X184050809Y-91602380D01*
X183574619Y-91602380D01*
X183193666Y-92554761D02*
X183050809Y-92602380D01*
X182812714Y-92602380D01*
X182717476Y-92554761D01*
X182669857Y-92507142D01*
X182622238Y-92411904D01*
X182622238Y-92316666D01*
X182669857Y-92221428D01*
X182717476Y-92173809D01*
X182812714Y-92126190D01*
X183003190Y-92078571D01*
X183098428Y-92030952D01*
X183146047Y-91983333D01*
X183193666Y-91888095D01*
X183193666Y-91792857D01*
X183146047Y-91697619D01*
X183098428Y-91650000D01*
X183003190Y-91602380D01*
X182765095Y-91602380D01*
X182622238Y-91650000D01*
X182193666Y-92078571D02*
X181860333Y-92078571D01*
X181717476Y-92602380D02*
X182193666Y-92602380D01*
X182193666Y-91602380D01*
X181717476Y-91602380D01*
X181431761Y-91602380D02*
X180860333Y-91602380D01*
X181146047Y-92602380D02*
X181146047Y-91602380D01*
%TO.C,JP64*%
X177684895Y-80949666D02*
X178497695Y-81220600D01*
X177684895Y-81491533D01*
X178420285Y-82226923D02*
X178458990Y-82188219D01*
X178497695Y-82072104D01*
X178497695Y-81994695D01*
X178458990Y-81878580D01*
X178381580Y-81801171D01*
X178304171Y-81762466D01*
X178149352Y-81723761D01*
X178033238Y-81723761D01*
X177878419Y-81762466D01*
X177801009Y-81801171D01*
X177723600Y-81878580D01*
X177684895Y-81994695D01*
X177684895Y-82072104D01*
X177723600Y-82188219D01*
X177762304Y-82226923D01*
X178420285Y-83039723D02*
X178458990Y-83001019D01*
X178497695Y-82884904D01*
X178497695Y-82807495D01*
X178458990Y-82691380D01*
X178381580Y-82613971D01*
X178304171Y-82575266D01*
X178149352Y-82536561D01*
X178033238Y-82536561D01*
X177878419Y-82575266D01*
X177801009Y-82613971D01*
X177723600Y-82691380D01*
X177684895Y-82807495D01*
X177684895Y-82884904D01*
X177723600Y-83001019D01*
X177762304Y-83039723D01*
%TO.C,JP62*%
X175173600Y-81443723D02*
X175134895Y-81366314D01*
X175134895Y-81250200D01*
X175173600Y-81134085D01*
X175251009Y-81056676D01*
X175328419Y-81017971D01*
X175483238Y-80979266D01*
X175599352Y-80979266D01*
X175754171Y-81017971D01*
X175831580Y-81056676D01*
X175908990Y-81134085D01*
X175947695Y-81250200D01*
X175947695Y-81327609D01*
X175908990Y-81443723D01*
X175870285Y-81482428D01*
X175599352Y-81482428D01*
X175599352Y-81327609D01*
X175947695Y-81830771D02*
X175134895Y-81830771D01*
X175947695Y-82295228D01*
X175134895Y-82295228D01*
X175947695Y-82682276D02*
X175134895Y-82682276D01*
X175134895Y-82875800D01*
X175173600Y-82991914D01*
X175251009Y-83069323D01*
X175328419Y-83108028D01*
X175483238Y-83146733D01*
X175599352Y-83146733D01*
X175754171Y-83108028D01*
X175831580Y-83069323D01*
X175908990Y-82991914D01*
X175947695Y-82875800D01*
X175947695Y-82682276D01*
%TO.C,JP6*%
X183618990Y-81306066D02*
X183657695Y-81422180D01*
X183657695Y-81615704D01*
X183618990Y-81693114D01*
X183580285Y-81731819D01*
X183502876Y-81770523D01*
X183425466Y-81770523D01*
X183348057Y-81731819D01*
X183309352Y-81693114D01*
X183270647Y-81615704D01*
X183231942Y-81460885D01*
X183193238Y-81383476D01*
X183154533Y-81344771D01*
X183077123Y-81306066D01*
X182999714Y-81306066D01*
X182922304Y-81344771D01*
X182883600Y-81383476D01*
X182844895Y-81460885D01*
X182844895Y-81654409D01*
X182883600Y-81770523D01*
X183657695Y-82118866D02*
X182844895Y-82118866D01*
X182844895Y-82312390D01*
X182883600Y-82428504D01*
X182961009Y-82505914D01*
X183038419Y-82544619D01*
X183193238Y-82583323D01*
X183309352Y-82583323D01*
X183464171Y-82544619D01*
X183541580Y-82505914D01*
X183618990Y-82428504D01*
X183657695Y-82312390D01*
X183657695Y-82118866D01*
X183425466Y-82892961D02*
X183425466Y-83280009D01*
X183657695Y-82815552D02*
X182844895Y-83086485D01*
X183657695Y-83357419D01*
%TO.C,JP66*%
X181038990Y-81035780D02*
X181077695Y-81151895D01*
X181077695Y-81345419D01*
X181038990Y-81422828D01*
X181000285Y-81461533D01*
X180922876Y-81500238D01*
X180845466Y-81500238D01*
X180768057Y-81461533D01*
X180729352Y-81422828D01*
X180690647Y-81345419D01*
X180651942Y-81190600D01*
X180613238Y-81113190D01*
X180574533Y-81074485D01*
X180497123Y-81035780D01*
X180419714Y-81035780D01*
X180342304Y-81074485D01*
X180303600Y-81113190D01*
X180264895Y-81190600D01*
X180264895Y-81384123D01*
X180303600Y-81500238D01*
X181000285Y-82313038D02*
X181038990Y-82274333D01*
X181077695Y-82158219D01*
X181077695Y-82080809D01*
X181038990Y-81964695D01*
X180961580Y-81887285D01*
X180884171Y-81848580D01*
X180729352Y-81809876D01*
X180613238Y-81809876D01*
X180458419Y-81848580D01*
X180381009Y-81887285D01*
X180303600Y-81964695D01*
X180264895Y-82080809D01*
X180264895Y-82158219D01*
X180303600Y-82274333D01*
X180342304Y-82313038D01*
X181077695Y-83048428D02*
X181077695Y-82661380D01*
X180264895Y-82661380D01*
%TO.C,POWER*%
X187312380Y-85820476D02*
X186312380Y-85820476D01*
X186312380Y-86201428D01*
X186360000Y-86296666D01*
X186407619Y-86344285D01*
X186502857Y-86391904D01*
X186645714Y-86391904D01*
X186740952Y-86344285D01*
X186788571Y-86296666D01*
X186836190Y-86201428D01*
X186836190Y-85820476D01*
X186312380Y-87010952D02*
X186312380Y-87201428D01*
X186360000Y-87296666D01*
X186455238Y-87391904D01*
X186645714Y-87439523D01*
X186979047Y-87439523D01*
X187169523Y-87391904D01*
X187264761Y-87296666D01*
X187312380Y-87201428D01*
X187312380Y-87010952D01*
X187264761Y-86915714D01*
X187169523Y-86820476D01*
X186979047Y-86772857D01*
X186645714Y-86772857D01*
X186455238Y-86820476D01*
X186360000Y-86915714D01*
X186312380Y-87010952D01*
X186312380Y-87772857D02*
X187312380Y-88010952D01*
X186598095Y-88201428D01*
X187312380Y-88391904D01*
X186312380Y-88630000D01*
X186788571Y-89010952D02*
X186788571Y-89344285D01*
X187312380Y-89487142D02*
X187312380Y-89010952D01*
X186312380Y-89010952D01*
X186312380Y-89487142D01*
X187312380Y-90487142D02*
X186836190Y-90153809D01*
X187312380Y-89915714D02*
X186312380Y-89915714D01*
X186312380Y-90296666D01*
X186360000Y-90391904D01*
X186407619Y-90439523D01*
X186502857Y-90487142D01*
X186645714Y-90487142D01*
X186740952Y-90439523D01*
X186788571Y-90391904D01*
X186836190Y-90296666D01*
X186836190Y-89915714D01*
%TO.C,+ve*%
X177500476Y-52171428D02*
X176738571Y-52171428D01*
X177119523Y-52552380D02*
X177119523Y-51790476D01*
X176357619Y-51885714D02*
X176119523Y-52552380D01*
X175881428Y-51885714D01*
X175119523Y-52504761D02*
X175214761Y-52552380D01*
X175405238Y-52552380D01*
X175500476Y-52504761D01*
X175548095Y-52409523D01*
X175548095Y-52028571D01*
X175500476Y-51933333D01*
X175405238Y-51885714D01*
X175214761Y-51885714D01*
X175119523Y-51933333D01*
X175071904Y-52028571D01*
X175071904Y-52123809D01*
X175548095Y-52219047D01*
%TO.C,-ve*%
X183560476Y-52101428D02*
X182798571Y-52101428D01*
X182417619Y-51815714D02*
X182179523Y-52482380D01*
X181941428Y-51815714D01*
X181179523Y-52434761D02*
X181274761Y-52482380D01*
X181465238Y-52482380D01*
X181560476Y-52434761D01*
X181608095Y-52339523D01*
X181608095Y-51958571D01*
X181560476Y-51863333D01*
X181465238Y-51815714D01*
X181274761Y-51815714D01*
X181179523Y-51863333D01*
X181131904Y-51958571D01*
X181131904Y-52053809D01*
X181608095Y-52149047D01*
%TO.C,D2*%
X83304400Y-65062800D02*
X88704400Y-65062800D01*
X86504400Y-64812800D02*
X85604400Y-64312800D01*
X88704400Y-65062800D02*
X88704400Y-63562800D01*
X83304400Y-63562800D02*
X83304400Y-65062800D01*
X86504400Y-63812800D02*
X86504400Y-64812800D01*
X85604400Y-64312800D02*
X86504400Y-63812800D01*
X88704400Y-63562800D02*
X83304400Y-63562800D01*
X85504400Y-63812800D02*
X85504400Y-64812800D01*
%TO.C,D3*%
X104589200Y-52773200D02*
X103689200Y-52273200D01*
X106789200Y-53023200D02*
X106789200Y-51523200D01*
X106789200Y-51523200D02*
X101389200Y-51523200D01*
X101389200Y-53023200D02*
X106789200Y-53023200D01*
X101389200Y-51523200D02*
X101389200Y-53023200D01*
X104589200Y-51773200D02*
X104589200Y-52773200D01*
X103689200Y-52273200D02*
X104589200Y-51773200D01*
X103589200Y-51773200D02*
X103589200Y-52773200D01*
%TO.C,D4*%
X121572400Y-45728000D02*
X121572400Y-46728000D01*
X122572400Y-46728000D02*
X121672400Y-46228000D01*
X124772400Y-45478000D02*
X119372400Y-45478000D01*
X122572400Y-45728000D02*
X122572400Y-46728000D01*
X119372400Y-45478000D02*
X119372400Y-46978000D01*
X121672400Y-46228000D02*
X122572400Y-45728000D01*
X124772400Y-46978000D02*
X124772400Y-45478000D01*
X119372400Y-46978000D02*
X124772400Y-46978000D01*
%TO.C,D5*%
X139604800Y-53289200D02*
X140504800Y-52789200D01*
X139504800Y-52789200D02*
X139504800Y-53789200D01*
X142704800Y-54039200D02*
X142704800Y-52539200D01*
X140504800Y-53789200D02*
X139604800Y-53289200D01*
X142704800Y-52539200D02*
X137304800Y-52539200D01*
X137304800Y-54039200D02*
X142704800Y-54039200D01*
X140504800Y-52789200D02*
X140504800Y-53789200D01*
X137304800Y-52539200D02*
X137304800Y-54039200D01*
%TO.C,D6*%
X155288000Y-54672800D02*
X155288000Y-56172800D01*
X155288000Y-56172800D02*
X160688000Y-56172800D01*
X157588000Y-55422800D02*
X158488000Y-54922800D01*
X160688000Y-54672800D02*
X155288000Y-54672800D01*
X160688000Y-56172800D02*
X160688000Y-54672800D01*
X158488000Y-54922800D02*
X158488000Y-55922800D01*
X157488000Y-54922800D02*
X157488000Y-55922800D01*
X158488000Y-55922800D02*
X157588000Y-55422800D01*
%TO.C,D8*%
X83202800Y-81979200D02*
X88602800Y-81979200D01*
X85402800Y-80729200D02*
X85402800Y-81729200D01*
X88602800Y-80479200D02*
X83202800Y-80479200D01*
X83202800Y-80479200D02*
X83202800Y-81979200D01*
X85502800Y-81229200D02*
X86402800Y-80729200D01*
X88602800Y-81979200D02*
X88602800Y-80479200D01*
X86402800Y-80729200D02*
X86402800Y-81729200D01*
X86402800Y-81729200D02*
X85502800Y-81229200D01*
%TO.C,D9*%
X103386000Y-68842000D02*
X103386000Y-69842000D01*
X101186000Y-70092000D02*
X106586000Y-70092000D01*
X104386000Y-69842000D02*
X103486000Y-69342000D01*
X106586000Y-68592000D02*
X101186000Y-68592000D01*
X104386000Y-68842000D02*
X104386000Y-69842000D01*
X101186000Y-68592000D02*
X101186000Y-70092000D01*
X103486000Y-69342000D02*
X104386000Y-68842000D01*
X106586000Y-70092000D02*
X106586000Y-68592000D01*
%TO.C,D10*%
X122470800Y-62847600D02*
X122470800Y-63847600D01*
X122470800Y-63847600D02*
X121570800Y-63347600D01*
X121570800Y-63347600D02*
X122470800Y-62847600D01*
X124670800Y-64097600D02*
X124670800Y-62597600D01*
X119270800Y-62597600D02*
X119270800Y-64097600D01*
X121470800Y-62847600D02*
X121470800Y-63847600D01*
X124670800Y-62597600D02*
X119270800Y-62597600D01*
X119270800Y-64097600D02*
X124670800Y-64097600D01*
%TO.C,D11*%
X137254000Y-70650800D02*
X142654000Y-70650800D01*
X140454000Y-69400800D02*
X140454000Y-70400800D01*
X137254000Y-69150800D02*
X137254000Y-70650800D01*
X140454000Y-70400800D02*
X139554000Y-69900800D01*
X139554000Y-69900800D02*
X140454000Y-69400800D01*
X139454000Y-69400800D02*
X139454000Y-70400800D01*
X142654000Y-69150800D02*
X137254000Y-69150800D01*
X142654000Y-70650800D02*
X142654000Y-69150800D01*
%TO.C,D12*%
X158792800Y-72991600D02*
X157892800Y-72491600D01*
X157792800Y-71991600D02*
X157792800Y-72991600D01*
X155592800Y-71741600D02*
X155592800Y-73241600D01*
X160992800Y-73241600D02*
X160992800Y-71741600D01*
X157892800Y-72491600D02*
X158792800Y-71991600D01*
X155592800Y-73241600D02*
X160992800Y-73241600D01*
X158792800Y-71991600D02*
X158792800Y-72991600D01*
X160992800Y-71741600D02*
X155592800Y-71741600D01*
%TO.C,D14*%
X86402800Y-97747200D02*
X86402800Y-98747200D01*
X83202800Y-97497200D02*
X83202800Y-98997200D01*
X85502800Y-98247200D02*
X86402800Y-97747200D01*
X88602800Y-97497200D02*
X83202800Y-97497200D01*
X85402800Y-97747200D02*
X85402800Y-98747200D01*
X86402800Y-98747200D02*
X85502800Y-98247200D01*
X83202800Y-98997200D02*
X88602800Y-98997200D01*
X88602800Y-98997200D02*
X88602800Y-97497200D01*
%TO.C,D15*%
X106687600Y-85559200D02*
X101287600Y-85559200D01*
X104487600Y-85809200D02*
X104487600Y-86809200D01*
X103487600Y-85809200D02*
X103487600Y-86809200D01*
X106687600Y-87059200D02*
X106687600Y-85559200D01*
X103587600Y-86309200D02*
X104487600Y-85809200D01*
X104487600Y-86809200D02*
X103587600Y-86309200D01*
X101287600Y-87059200D02*
X106687600Y-87059200D01*
X101287600Y-85559200D02*
X101287600Y-87059200D01*
%TO.C,D16*%
X124670800Y-81064800D02*
X124670800Y-79564800D01*
X122470800Y-80814800D02*
X121570800Y-80314800D01*
X121470800Y-79814800D02*
X121470800Y-80814800D01*
X119270800Y-81064800D02*
X124670800Y-81064800D01*
X122470800Y-79814800D02*
X122470800Y-80814800D01*
X119270800Y-79564800D02*
X119270800Y-81064800D01*
X124670800Y-79564800D02*
X119270800Y-79564800D01*
X121570800Y-80314800D02*
X122470800Y-79814800D01*
%TO.C,D17*%
X139555600Y-86469600D02*
X139555600Y-87469600D01*
X139655600Y-86969600D02*
X140555600Y-86469600D01*
X140555600Y-86469600D02*
X140555600Y-87469600D01*
X137355600Y-87719600D02*
X142755600Y-87719600D01*
X142755600Y-87719600D02*
X142755600Y-86219600D01*
X137355600Y-86219600D02*
X137355600Y-87719600D01*
X142755600Y-86219600D02*
X137355600Y-86219600D01*
X140555600Y-87469600D02*
X139655600Y-86969600D01*
%TO.C,D18*%
X157589600Y-88857200D02*
X157589600Y-89857200D01*
X160789600Y-90107200D02*
X160789600Y-88607200D01*
X160789600Y-88607200D02*
X155389600Y-88607200D01*
X158589600Y-89857200D02*
X157689600Y-89357200D01*
X155389600Y-88607200D02*
X155389600Y-90107200D01*
X157689600Y-89357200D02*
X158589600Y-88857200D01*
X155389600Y-90107200D02*
X160789600Y-90107200D01*
X158589600Y-88857200D02*
X158589600Y-89857200D01*
%TO.C,D19*%
X132808325Y-120703481D02*
X133748478Y-121123138D01*
X133891675Y-121612519D02*
X133804519Y-120616325D01*
X133748478Y-121123138D02*
X132895481Y-121699675D01*
X130594908Y-120646174D02*
X130725641Y-122140467D01*
X130725641Y-122140467D02*
X136105092Y-121669826D01*
X136105092Y-121669826D02*
X135974359Y-120175533D01*
X135974359Y-120175533D02*
X130594908Y-120646174D01*
X132895481Y-121699675D02*
X132808325Y-120703481D01*
%TO.C,D20*%
X152112325Y-121612519D02*
X152199481Y-120616325D01*
X155409092Y-120646174D02*
X150029641Y-120175533D01*
X150029641Y-120175533D02*
X149898908Y-121669826D01*
X153052478Y-121192862D02*
X152112325Y-121612519D01*
X153108519Y-121699675D02*
X153195675Y-120703481D01*
X155278359Y-122140467D02*
X155409092Y-120646174D01*
X149898908Y-121669826D02*
X155278359Y-122140467D01*
X152199481Y-120616325D02*
X153052478Y-121192862D01*
%TO.C,D21*%
X180547338Y-117378005D02*
X178265200Y-122272067D01*
X180750463Y-119900155D02*
X179844155Y-119477537D01*
X181906800Y-118011933D02*
X180547338Y-117378005D01*
X179624662Y-122905995D02*
X181906800Y-118011933D01*
X180255047Y-119779477D02*
X180327845Y-120806463D01*
X178265200Y-122272067D02*
X179624662Y-122905995D01*
X179421537Y-120383845D02*
X180255047Y-119779477D01*
X180327845Y-120806463D02*
X179421537Y-120383845D01*
%TO.C,J1*%
X179862600Y-101820000D02*
X179862600Y-95820000D01*
X191862600Y-101820000D02*
X179862600Y-101820000D01*
X191862600Y-95820000D02*
X191862600Y-101820000D01*
X179862600Y-95820000D02*
X191862600Y-95820000D01*
%TO.C,SW2*%
X78910000Y-76600000D02*
X83410000Y-76600000D01*
X92910000Y-63400000D02*
X92910000Y-64400000D01*
X83910000Y-77100000D02*
X83910000Y-78100000D01*
X87910000Y-78100000D02*
X87410000Y-78600000D01*
X78910000Y-77400000D02*
X78910000Y-76400000D01*
X83410000Y-72600000D02*
X83410000Y-71900000D01*
X91910000Y-63400000D02*
X92910000Y-63400000D01*
X87910000Y-74600000D02*
X87410000Y-74100000D01*
X83410000Y-71900000D02*
X78910000Y-71900000D01*
X87410000Y-74100000D02*
X84910000Y-74100000D01*
X84410000Y-78600000D02*
X83910000Y-78100000D01*
X87410000Y-78600000D02*
X84410000Y-78600000D01*
X78910000Y-71900000D02*
X78910000Y-72400000D01*
X92910000Y-76400000D02*
X92910000Y-77400000D01*
X78910000Y-64400000D02*
X78910000Y-63400000D01*
X78910000Y-63400000D02*
X79910000Y-63400000D01*
X78910000Y-76000000D02*
X78910000Y-76600000D01*
X79910000Y-77400000D02*
X78910000Y-77400000D01*
X92910000Y-77400000D02*
X91910000Y-77400000D01*
X83910000Y-77100000D02*
G75*
G03*
X83410000Y-76600000I-500001J-1D01*
G01*
X83410000Y-72600000D02*
G75*
G03*
X84910000Y-74100000I1500001J1D01*
G01*
%TO.C,SW3*%
X96910000Y-52400000D02*
X96910000Y-51400000D01*
X105410000Y-62100000D02*
X102910000Y-62100000D01*
X96910000Y-64600000D02*
X101410000Y-64600000D01*
X97910000Y-65400000D02*
X96910000Y-65400000D01*
X101910000Y-65100000D02*
X101910000Y-66100000D01*
X96910000Y-51400000D02*
X97910000Y-51400000D01*
X96910000Y-59900000D02*
X96910000Y-60400000D01*
X110910000Y-64400000D02*
X110910000Y-65400000D01*
X110910000Y-51400000D02*
X110910000Y-52400000D01*
X101410000Y-60600000D02*
X101410000Y-59900000D01*
X105910000Y-62600000D02*
X105410000Y-62100000D01*
X105910000Y-66100000D02*
X105410000Y-66600000D01*
X109910000Y-51400000D02*
X110910000Y-51400000D01*
X105410000Y-66600000D02*
X102410000Y-66600000D01*
X101410000Y-59900000D02*
X96910000Y-59900000D01*
X96910000Y-64000000D02*
X96910000Y-64600000D01*
X96910000Y-65400000D02*
X96910000Y-64400000D01*
X110910000Y-65400000D02*
X109910000Y-65400000D01*
X102410000Y-66600000D02*
X101910000Y-66100000D01*
X101910000Y-65100000D02*
G75*
G03*
X101410000Y-64600000I-500001J-1D01*
G01*
X101410000Y-60600000D02*
G75*
G03*
X102910000Y-62100000I1500001J1D01*
G01*
%TO.C,SW4*%
X127910000Y-45400000D02*
X128910000Y-45400000D01*
X115910000Y-59400000D02*
X114910000Y-59400000D01*
X114910000Y-58600000D02*
X119410000Y-58600000D01*
X128910000Y-59400000D02*
X127910000Y-59400000D01*
X114910000Y-45400000D02*
X115910000Y-45400000D01*
X120410000Y-60600000D02*
X119910000Y-60100000D01*
X119410000Y-53900000D02*
X114910000Y-53900000D01*
X114910000Y-59400000D02*
X114910000Y-58400000D01*
X114910000Y-58000000D02*
X114910000Y-58600000D01*
X114910000Y-53900000D02*
X114910000Y-54400000D01*
X119410000Y-54600000D02*
X119410000Y-53900000D01*
X123910000Y-60100000D02*
X123410000Y-60600000D01*
X123410000Y-56100000D02*
X120910000Y-56100000D01*
X119910000Y-59100000D02*
X119910000Y-60100000D01*
X114910000Y-46400000D02*
X114910000Y-45400000D01*
X123410000Y-60600000D02*
X120410000Y-60600000D01*
X128910000Y-45400000D02*
X128910000Y-46400000D01*
X123910000Y-56600000D02*
X123410000Y-56100000D01*
X128910000Y-58400000D02*
X128910000Y-59400000D01*
X119910000Y-59100000D02*
G75*
G03*
X119410000Y-58600000I-500001J-1D01*
G01*
X119410000Y-54600000D02*
G75*
G03*
X120910000Y-56100000I1500001J1D01*
G01*
%TO.C,SW5*%
X133910000Y-66020000D02*
X132910000Y-66020000D01*
X137910000Y-65720000D02*
X137910000Y-66720000D01*
X138410000Y-67220000D02*
X137910000Y-66720000D01*
X132910000Y-64620000D02*
X132910000Y-65220000D01*
X132910000Y-66020000D02*
X132910000Y-65020000D01*
X146910000Y-65020000D02*
X146910000Y-66020000D01*
X145910000Y-52020000D02*
X146910000Y-52020000D01*
X132910000Y-60520000D02*
X132910000Y-61020000D01*
X132910000Y-53020000D02*
X132910000Y-52020000D01*
X146910000Y-52020000D02*
X146910000Y-53020000D01*
X146910000Y-66020000D02*
X145910000Y-66020000D01*
X132910000Y-65220000D02*
X137410000Y-65220000D01*
X137410000Y-60520000D02*
X132910000Y-60520000D01*
X132910000Y-52020000D02*
X133910000Y-52020000D01*
X141910000Y-63220000D02*
X141410000Y-62720000D01*
X141410000Y-62720000D02*
X138910000Y-62720000D01*
X141410000Y-67220000D02*
X138410000Y-67220000D01*
X141910000Y-66720000D02*
X141410000Y-67220000D01*
X137410000Y-61220000D02*
X137410000Y-60520000D01*
X137910000Y-65720000D02*
G75*
G03*
X137410000Y-65220000I-500001J-1D01*
G01*
X137410000Y-61220000D02*
G75*
G03*
X138910000Y-62720000I1500001J1D01*
G01*
%TO.C,SW6*%
X150910000Y-54400000D02*
X151910000Y-54400000D01*
X150910000Y-62900000D02*
X150910000Y-63400000D01*
X155410000Y-63600000D02*
X155410000Y-62900000D01*
X164910000Y-68400000D02*
X163910000Y-68400000D01*
X150910000Y-55400000D02*
X150910000Y-54400000D01*
X159910000Y-69100000D02*
X159410000Y-69600000D01*
X163910000Y-54400000D02*
X164910000Y-54400000D01*
X164910000Y-54400000D02*
X164910000Y-55400000D01*
X156410000Y-69600000D02*
X155910000Y-69100000D01*
X155410000Y-62900000D02*
X150910000Y-62900000D01*
X150910000Y-67600000D02*
X155410000Y-67600000D01*
X155910000Y-68100000D02*
X155910000Y-69100000D01*
X151910000Y-68400000D02*
X150910000Y-68400000D01*
X164910000Y-67400000D02*
X164910000Y-68400000D01*
X159410000Y-65100000D02*
X156910000Y-65100000D01*
X159410000Y-69600000D02*
X156410000Y-69600000D01*
X159910000Y-65600000D02*
X159410000Y-65100000D01*
X150910000Y-67000000D02*
X150910000Y-67600000D01*
X150910000Y-68400000D02*
X150910000Y-67400000D01*
X155910000Y-68100000D02*
G75*
G03*
X155410000Y-67600000I-500001J-1D01*
G01*
X155410000Y-63600000D02*
G75*
G03*
X156910000Y-65100000I1500001J1D01*
G01*
%TO.C,SW8*%
X78910000Y-93600000D02*
X83410000Y-93600000D01*
X87410000Y-95600000D02*
X84410000Y-95600000D01*
X78910000Y-80400000D02*
X79910000Y-80400000D01*
X78910000Y-88900000D02*
X78910000Y-89400000D01*
X87910000Y-91600000D02*
X87410000Y-91100000D01*
X84410000Y-95600000D02*
X83910000Y-95100000D01*
X83910000Y-94100000D02*
X83910000Y-95100000D01*
X83410000Y-88900000D02*
X78910000Y-88900000D01*
X79910000Y-94400000D02*
X78910000Y-94400000D01*
X87410000Y-91100000D02*
X84910000Y-91100000D01*
X87910000Y-95100000D02*
X87410000Y-95600000D01*
X78910000Y-93000000D02*
X78910000Y-93600000D01*
X78910000Y-94400000D02*
X78910000Y-93400000D01*
X92910000Y-80400000D02*
X92910000Y-81400000D01*
X83410000Y-89600000D02*
X83410000Y-88900000D01*
X92910000Y-94400000D02*
X91910000Y-94400000D01*
X78910000Y-81400000D02*
X78910000Y-80400000D01*
X92910000Y-93400000D02*
X92910000Y-94400000D01*
X91910000Y-80400000D02*
X92910000Y-80400000D01*
X83410000Y-89600000D02*
G75*
G03*
X84910000Y-91100000I1500001J1D01*
G01*
X83910000Y-94100000D02*
G75*
G03*
X83410000Y-93600000I-500001J-1D01*
G01*
%TO.C,SW9*%
X110910000Y-82400000D02*
X109910000Y-82400000D01*
X109910000Y-68400000D02*
X110910000Y-68400000D01*
X96910000Y-69400000D02*
X96910000Y-68400000D01*
X105410000Y-83600000D02*
X102410000Y-83600000D01*
X101410000Y-77600000D02*
X101410000Y-76900000D01*
X102410000Y-83600000D02*
X101910000Y-83100000D01*
X110910000Y-81400000D02*
X110910000Y-82400000D01*
X96910000Y-76900000D02*
X96910000Y-77400000D01*
X105910000Y-83100000D02*
X105410000Y-83600000D01*
X96910000Y-68400000D02*
X97910000Y-68400000D01*
X97910000Y-82400000D02*
X96910000Y-82400000D01*
X105410000Y-79100000D02*
X102910000Y-79100000D01*
X110910000Y-68400000D02*
X110910000Y-69400000D01*
X105910000Y-79600000D02*
X105410000Y-79100000D01*
X96910000Y-82400000D02*
X96910000Y-81400000D01*
X101910000Y-82100000D02*
X101910000Y-83100000D01*
X101410000Y-76900000D02*
X96910000Y-76900000D01*
X96910000Y-81600000D02*
X101410000Y-81600000D01*
X96910000Y-81000000D02*
X96910000Y-81600000D01*
X101910000Y-82100000D02*
G75*
G03*
X101410000Y-81600000I-500001J-1D01*
G01*
X101410000Y-77600000D02*
G75*
G03*
X102910000Y-79100000I1500001J1D01*
G01*
%TO.C,SW10*%
X114910000Y-70900000D02*
X114910000Y-71400000D01*
X114910000Y-63400000D02*
X114910000Y-62400000D01*
X128910000Y-75400000D02*
X128910000Y-76400000D01*
X123910000Y-73600000D02*
X123410000Y-73100000D01*
X123410000Y-73100000D02*
X120910000Y-73100000D01*
X114910000Y-75000000D02*
X114910000Y-75600000D01*
X128910000Y-76400000D02*
X127910000Y-76400000D01*
X119910000Y-76100000D02*
X119910000Y-77100000D01*
X127910000Y-62400000D02*
X128910000Y-62400000D01*
X114910000Y-76400000D02*
X114910000Y-75400000D01*
X123910000Y-77100000D02*
X123410000Y-77600000D01*
X120410000Y-77600000D02*
X119910000Y-77100000D01*
X119410000Y-70900000D02*
X114910000Y-70900000D01*
X123410000Y-77600000D02*
X120410000Y-77600000D01*
X119410000Y-71600000D02*
X119410000Y-70900000D01*
X114910000Y-75600000D02*
X119410000Y-75600000D01*
X114910000Y-62400000D02*
X115910000Y-62400000D01*
X115910000Y-76400000D02*
X114910000Y-76400000D01*
X128910000Y-62400000D02*
X128910000Y-63400000D01*
X119910000Y-76100000D02*
G75*
G03*
X119410000Y-75600000I-500001J-1D01*
G01*
X119410000Y-71600000D02*
G75*
G03*
X120910000Y-73100000I1500001J1D01*
G01*
%TO.C,SW11*%
X137910000Y-82720000D02*
X137910000Y-83720000D01*
X146910000Y-83020000D02*
X145910000Y-83020000D01*
X137410000Y-77520000D02*
X132910000Y-77520000D01*
X141410000Y-84220000D02*
X138410000Y-84220000D01*
X132910000Y-77520000D02*
X132910000Y-78020000D01*
X132910000Y-82220000D02*
X137410000Y-82220000D01*
X133910000Y-83020000D02*
X132910000Y-83020000D01*
X132910000Y-81620000D02*
X132910000Y-82220000D01*
X146910000Y-82020000D02*
X146910000Y-83020000D01*
X132910000Y-69020000D02*
X133910000Y-69020000D01*
X145910000Y-69020000D02*
X146910000Y-69020000D01*
X146910000Y-69020000D02*
X146910000Y-70020000D01*
X141410000Y-79720000D02*
X138910000Y-79720000D01*
X138410000Y-84220000D02*
X137910000Y-83720000D01*
X132910000Y-70020000D02*
X132910000Y-69020000D01*
X141910000Y-83720000D02*
X141410000Y-84220000D01*
X137410000Y-78220000D02*
X137410000Y-77520000D01*
X141910000Y-80220000D02*
X141410000Y-79720000D01*
X132910000Y-83020000D02*
X132910000Y-82020000D01*
X137410000Y-78220000D02*
G75*
G03*
X138910000Y-79720000I1500001J1D01*
G01*
X137910000Y-82720000D02*
G75*
G03*
X137410000Y-82220000I-500001J-1D01*
G01*
%TO.C,SW12*%
X164910000Y-85400000D02*
X163910000Y-85400000D01*
X164910000Y-71400000D02*
X164910000Y-72400000D01*
X159910000Y-86100000D02*
X159410000Y-86600000D01*
X163910000Y-71400000D02*
X164910000Y-71400000D01*
X150910000Y-85400000D02*
X150910000Y-84400000D01*
X155910000Y-85100000D02*
X155910000Y-86100000D01*
X156410000Y-86600000D02*
X155910000Y-86100000D01*
X150910000Y-71400000D02*
X151910000Y-71400000D01*
X150910000Y-84000000D02*
X150910000Y-84600000D01*
X151910000Y-85400000D02*
X150910000Y-85400000D01*
X150910000Y-72400000D02*
X150910000Y-71400000D01*
X150910000Y-84600000D02*
X155410000Y-84600000D01*
X164910000Y-84400000D02*
X164910000Y-85400000D01*
X159410000Y-86600000D02*
X156410000Y-86600000D01*
X159410000Y-82100000D02*
X156910000Y-82100000D01*
X155410000Y-80600000D02*
X155410000Y-79900000D01*
X159910000Y-82600000D02*
X159410000Y-82100000D01*
X155410000Y-79900000D02*
X150910000Y-79900000D01*
X150910000Y-79900000D02*
X150910000Y-80400000D01*
X155410000Y-80600000D02*
G75*
G03*
X156910000Y-82100000I1500001J1D01*
G01*
X155910000Y-85100000D02*
G75*
G03*
X155410000Y-84600000I-500001J-1D01*
G01*
%TO.C,SW14*%
X78910000Y-98400000D02*
X78910000Y-97400000D01*
X92910000Y-111400000D02*
X91910000Y-111400000D01*
X84410000Y-112600000D02*
X83910000Y-112100000D01*
X78910000Y-97400000D02*
X79910000Y-97400000D01*
X92910000Y-97400000D02*
X92910000Y-98400000D01*
X83410000Y-105900000D02*
X78910000Y-105900000D01*
X78910000Y-105900000D02*
X78910000Y-106400000D01*
X78910000Y-110600000D02*
X83410000Y-110600000D01*
X79910000Y-111400000D02*
X78910000Y-111400000D01*
X87410000Y-112600000D02*
X84410000Y-112600000D01*
X92910000Y-110400000D02*
X92910000Y-111400000D01*
X87910000Y-112100000D02*
X87410000Y-112600000D01*
X83410000Y-106600000D02*
X83410000Y-105900000D01*
X78910000Y-111400000D02*
X78910000Y-110400000D01*
X78910000Y-110000000D02*
X78910000Y-110600000D01*
X91910000Y-97400000D02*
X92910000Y-97400000D01*
X83910000Y-111100000D02*
X83910000Y-112100000D01*
X87410000Y-108100000D02*
X84910000Y-108100000D01*
X87910000Y-108600000D02*
X87410000Y-108100000D01*
X83410000Y-106600000D02*
G75*
G03*
X84910000Y-108100000I1500001J1D01*
G01*
X83910000Y-111100000D02*
G75*
G03*
X83410000Y-110600000I-500001J-1D01*
G01*
%TO.C,SW15*%
X105910000Y-96600000D02*
X105410000Y-96100000D01*
X101410000Y-93900000D02*
X96910000Y-93900000D01*
X105910000Y-100100000D02*
X105410000Y-100600000D01*
X105410000Y-96100000D02*
X102910000Y-96100000D01*
X97910000Y-99400000D02*
X96910000Y-99400000D01*
X96910000Y-93900000D02*
X96910000Y-94400000D01*
X96910000Y-98000000D02*
X96910000Y-98600000D01*
X96910000Y-98600000D02*
X101410000Y-98600000D01*
X101910000Y-99100000D02*
X101910000Y-100100000D01*
X110910000Y-85400000D02*
X110910000Y-86400000D01*
X101410000Y-94600000D02*
X101410000Y-93900000D01*
X96910000Y-85400000D02*
X97910000Y-85400000D01*
X110910000Y-98400000D02*
X110910000Y-99400000D01*
X96910000Y-99400000D02*
X96910000Y-98400000D01*
X110910000Y-99400000D02*
X109910000Y-99400000D01*
X96910000Y-86400000D02*
X96910000Y-85400000D01*
X102410000Y-100600000D02*
X101910000Y-100100000D01*
X109910000Y-85400000D02*
X110910000Y-85400000D01*
X105410000Y-100600000D02*
X102410000Y-100600000D01*
X101410000Y-94600000D02*
G75*
G03*
X102910000Y-96100000I1500001J1D01*
G01*
X101910000Y-99100000D02*
G75*
G03*
X101410000Y-98600000I-500001J-1D01*
G01*
%TO.C,SW16*%
X123410000Y-90100000D02*
X120910000Y-90100000D01*
X123910000Y-90600000D02*
X123410000Y-90100000D01*
X120410000Y-94600000D02*
X119910000Y-94100000D01*
X114910000Y-92000000D02*
X114910000Y-92600000D01*
X114910000Y-93400000D02*
X114910000Y-92400000D01*
X115910000Y-93400000D02*
X114910000Y-93400000D01*
X114910000Y-79400000D02*
X115910000Y-79400000D01*
X128910000Y-93400000D02*
X127910000Y-93400000D01*
X123410000Y-94600000D02*
X120410000Y-94600000D01*
X114910000Y-92600000D02*
X119410000Y-92600000D01*
X128910000Y-79400000D02*
X128910000Y-80400000D01*
X119410000Y-88600000D02*
X119410000Y-87900000D01*
X128910000Y-92400000D02*
X128910000Y-93400000D01*
X119410000Y-87900000D02*
X114910000Y-87900000D01*
X127910000Y-79400000D02*
X128910000Y-79400000D01*
X119910000Y-93100000D02*
X119910000Y-94100000D01*
X123910000Y-94100000D02*
X123410000Y-94600000D01*
X114910000Y-80400000D02*
X114910000Y-79400000D01*
X114910000Y-87900000D02*
X114910000Y-88400000D01*
X119910000Y-93100000D02*
G75*
G03*
X119410000Y-92600000I-500001J-1D01*
G01*
X119410000Y-88600000D02*
G75*
G03*
X120910000Y-90100000I1500001J1D01*
G01*
%TO.C,SW17*%
X141410000Y-101225000D02*
X138410000Y-101225000D01*
X145910000Y-86025000D02*
X146910000Y-86025000D01*
X132910000Y-100025000D02*
X132910000Y-99025000D01*
X141910000Y-97225000D02*
X141410000Y-96725000D01*
X132910000Y-86025000D02*
X133910000Y-86025000D01*
X137410000Y-94525000D02*
X132910000Y-94525000D01*
X146910000Y-99025000D02*
X146910000Y-100025000D01*
X137910000Y-99725000D02*
X137910000Y-100725000D01*
X132910000Y-87025000D02*
X132910000Y-86025000D01*
X141910000Y-100725000D02*
X141410000Y-101225000D01*
X146910000Y-86025000D02*
X146910000Y-87025000D01*
X146910000Y-100025000D02*
X145910000Y-100025000D01*
X138410000Y-101225000D02*
X137910000Y-100725000D01*
X137410000Y-95225000D02*
X137410000Y-94525000D01*
X133910000Y-100025000D02*
X132910000Y-100025000D01*
X132910000Y-94525000D02*
X132910000Y-95025000D01*
X141410000Y-96725000D02*
X138910000Y-96725000D01*
X132910000Y-98625000D02*
X132910000Y-99225000D01*
X132910000Y-99225000D02*
X137410000Y-99225000D01*
X137910000Y-99725000D02*
G75*
G03*
X137410000Y-99225000I-500001J-1D01*
G01*
X137410000Y-95225000D02*
G75*
G03*
X138910000Y-96725000I1500001J1D01*
G01*
%TO.C,SW18*%
X150910000Y-101600000D02*
X155410000Y-101600000D01*
X159910000Y-99600000D02*
X159410000Y-99100000D01*
X164910000Y-101400000D02*
X164910000Y-102400000D01*
X155410000Y-97600000D02*
X155410000Y-96900000D01*
X150910000Y-101000000D02*
X150910000Y-101600000D01*
X159410000Y-103600000D02*
X156410000Y-103600000D01*
X155410000Y-96900000D02*
X150910000Y-96900000D01*
X159410000Y-99100000D02*
X156910000Y-99100000D01*
X150910000Y-96900000D02*
X150910000Y-97400000D01*
X163910000Y-88400000D02*
X164910000Y-88400000D01*
X164910000Y-88400000D02*
X164910000Y-89400000D01*
X155910000Y-102100000D02*
X155910000Y-103100000D01*
X159910000Y-103100000D02*
X159410000Y-103600000D01*
X150910000Y-89400000D02*
X150910000Y-88400000D01*
X156410000Y-103600000D02*
X155910000Y-103100000D01*
X150910000Y-102400000D02*
X150910000Y-101400000D01*
X150910000Y-88400000D02*
X151910000Y-88400000D01*
X151910000Y-102400000D02*
X150910000Y-102400000D01*
X164910000Y-102400000D02*
X163910000Y-102400000D01*
X155910000Y-102100000D02*
G75*
G03*
X155410000Y-101600000I-500001J-1D01*
G01*
X155410000Y-97600000D02*
G75*
G03*
X156910000Y-99100000I1500001J1D01*
G01*
%TO.C,SW19*%
X133621615Y-107270470D02*
X134163290Y-107724989D01*
X139327291Y-109381219D02*
X139274997Y-108783503D01*
X139274997Y-108783503D02*
X134792121Y-109175704D01*
X138209078Y-108073703D02*
X139205273Y-107986547D01*
X130483556Y-111560294D02*
X131025232Y-112014813D01*
X139205273Y-107986547D02*
X139292428Y-108982742D01*
X140338297Y-120937078D02*
X140425453Y-121933273D01*
X130633031Y-107531937D02*
X133621615Y-107270470D01*
X126478727Y-123153453D02*
X126391572Y-122157258D01*
X131025232Y-112014813D02*
X133515718Y-111796924D01*
X139684629Y-113465618D02*
X139641051Y-112967520D01*
X130178511Y-108073612D02*
X130633031Y-107531937D01*
X140425453Y-121933273D02*
X139429258Y-122020428D01*
X135140744Y-113160482D02*
X135201753Y-113857819D01*
X125258547Y-109206727D02*
X126254742Y-109119572D01*
X127474922Y-123066297D02*
X126478727Y-123153453D01*
X125345703Y-110202922D02*
X125258547Y-109206727D01*
X134250446Y-108721184D02*
X134163290Y-107724989D01*
X135201753Y-113857819D02*
X139684629Y-113465618D01*
X134250445Y-108721184D02*
G75*
G03*
X134792121Y-109175704I498099J43579D01*
G01*
X135140744Y-113160482D02*
G75*
G03*
X133515718Y-111796924I-1494293J-130735D01*
G01*
%TO.C,SW20*%
X155844229Y-113596261D02*
G75*
G03*
X154480671Y-111971235I-1494293J130733D01*
G01*
X155738333Y-109069807D02*
G75*
G03*
X156192852Y-109611482I498098J-43577D01*
G01*
X145578547Y-121933273D02*
X145665703Y-120937078D01*
X155783220Y-114293597D02*
X160266097Y-114685798D01*
X151990184Y-111753346D02*
X154480671Y-111971235D01*
X151840710Y-107724989D02*
X152382385Y-107270470D01*
X160266097Y-114685798D02*
X160309674Y-114187701D01*
X146711572Y-108982742D02*
X146798727Y-107986547D01*
X155370969Y-107531937D02*
X155825489Y-108073612D01*
X151535665Y-111211671D02*
X151990184Y-111753346D01*
X155738333Y-109069807D02*
X155825489Y-108073612D01*
X159525273Y-123153453D02*
X158529078Y-123066297D01*
X160745453Y-109206727D02*
X160658297Y-110202922D01*
X152382385Y-107270470D02*
X155370969Y-107531937D01*
X159749258Y-109119572D02*
X160745453Y-109206727D01*
X146574742Y-122020428D02*
X145578547Y-121933273D01*
X160623435Y-110601400D02*
X160675728Y-110003683D01*
X160675728Y-110003683D02*
X156192852Y-109611482D01*
X159612428Y-122157258D02*
X159525273Y-123153453D01*
X146798727Y-107986547D02*
X147794922Y-108073703D01*
X155844229Y-113596261D02*
X155783220Y-114293597D01*
%TO.C,SW21*%
X169778974Y-113211841D02*
G75*
G03*
X170443437Y-112969997I211309J453154D01*
G01*
X174068669Y-114660471D02*
G75*
G03*
X172075279Y-115386005I-633927J-1359464D01*
G01*
X183402175Y-114047555D02*
X184308482Y-114470173D01*
X168208204Y-113031069D02*
X168872667Y-112789224D01*
X165703518Y-121241827D02*
X166126136Y-120335519D01*
X169778974Y-113211842D02*
X168872667Y-112789224D01*
X171197555Y-109459825D02*
X171620173Y-108553518D01*
X174068669Y-114660470D02*
X174703084Y-114956303D01*
X178814445Y-126252175D02*
X178391827Y-127158482D01*
X172889004Y-109145183D02*
X172345220Y-108891612D01*
X172345220Y-108891612D02*
X170443437Y-112969997D01*
X166940349Y-115749992D02*
X168208204Y-113031069D01*
X171620173Y-108553518D02*
X172526481Y-108976136D01*
X170354271Y-117893619D02*
X171018734Y-117651774D01*
X184308482Y-114470173D02*
X183885864Y-115376481D01*
X167182194Y-116414455D02*
X166940349Y-115749992D01*
X178391827Y-127158482D02*
X177485519Y-126735864D01*
X174703084Y-114956303D02*
X176604866Y-110877918D01*
X176604866Y-110877918D02*
X176151712Y-110666609D01*
X171018734Y-117651774D02*
X172075279Y-115386005D01*
X166609825Y-121664445D02*
X165703518Y-121241827D01*
%TO.C,U1*%
X170000000Y-54449400D02*
X172540000Y-54449400D01*
X187780000Y-84929400D02*
X185240000Y-84929400D01*
X172540000Y-54449400D02*
X172540000Y-84929400D01*
X185240000Y-54449400D02*
X187780000Y-54449400D01*
X185240000Y-84929400D02*
X185240000Y-54449400D01*
X187780000Y-54449400D02*
X187780000Y-84929400D01*
X170000000Y-84929400D02*
X170000000Y-54449400D01*
X172540000Y-84929400D02*
X170000000Y-84929400D01*
%TO.C,J2*%
X174310000Y-88727400D02*
X174310000Y-86187400D01*
X174310000Y-86187400D02*
X184470000Y-86187400D01*
X184470000Y-86187400D02*
X184470000Y-88727400D01*
X184470000Y-88727400D02*
X174310000Y-88727400D01*
%TO.C,RSW1*%
X179900000Y-90400000D02*
X185900000Y-90400000D01*
X185900000Y-93650000D02*
X185900000Y-93900000D01*
X185900000Y-93900000D02*
X179900000Y-93900000D01*
X179900000Y-93900000D02*
X179900000Y-93650000D01*
X185900000Y-90400000D02*
X185900000Y-90650000D01*
X179900000Y-90650000D02*
X179900000Y-90400000D01*
%TO.C,D14*%
X68408800Y-98751200D02*
X67508800Y-98251200D01*
X65208800Y-97501200D02*
X65208800Y-99001200D01*
X68408800Y-97751200D02*
X68408800Y-98751200D01*
X70608800Y-97501200D02*
X65208800Y-97501200D01*
X67508800Y-98251200D02*
X68408800Y-97751200D01*
X70608800Y-99001200D02*
X70608800Y-97501200D01*
X65208800Y-99001200D02*
X70608800Y-99001200D01*
X67408800Y-97751200D02*
X67408800Y-98751200D01*
%TO.C,D2*%
X68510400Y-64816800D02*
X67610400Y-64316800D01*
X67610400Y-64316800D02*
X68510400Y-63816800D01*
X65310400Y-63566800D02*
X65310400Y-65066800D01*
X67510400Y-63816800D02*
X67510400Y-64816800D01*
X68510400Y-63816800D02*
X68510400Y-64816800D01*
X70710400Y-63566800D02*
X65310400Y-63566800D01*
X70710400Y-65066800D02*
X70710400Y-63566800D01*
X65310400Y-65066800D02*
X70710400Y-65066800D01*
%TO.C,SW2*%
X69416000Y-74104000D02*
X66916000Y-74104000D01*
X69916000Y-78104000D02*
X69416000Y-78604000D01*
X74916000Y-77404000D02*
X73916000Y-77404000D01*
X65916000Y-77104000D02*
X65916000Y-78104000D01*
X61916000Y-77404000D02*
X60916000Y-77404000D01*
X60916000Y-64404000D02*
X60916000Y-63404000D01*
X60916000Y-76604000D02*
X65416000Y-76604000D01*
X65416000Y-72604000D02*
X65416000Y-71904000D01*
X69416000Y-78604000D02*
X66416000Y-78604000D01*
X69916000Y-74604000D02*
X69416000Y-74104000D01*
X60916000Y-71904000D02*
X60916000Y-72404000D01*
X60916000Y-76004000D02*
X60916000Y-76604000D01*
X74916000Y-63404000D02*
X74916000Y-64404000D01*
X74916000Y-76404000D02*
X74916000Y-77404000D01*
X66416000Y-78604000D02*
X65916000Y-78104000D01*
X60916000Y-77404000D02*
X60916000Y-76404000D01*
X65416000Y-71904000D02*
X60916000Y-71904000D01*
X73916000Y-63404000D02*
X74916000Y-63404000D01*
X60916000Y-63404000D02*
X61916000Y-63404000D01*
X65416000Y-72604000D02*
G75*
G03*
X66916000Y-74104000I1500001J1D01*
G01*
X65916000Y-77104000D02*
G75*
G03*
X65416000Y-76604000I-500001J-1D01*
G01*
%TO.C,D8*%
X68408800Y-81733200D02*
X67508800Y-81233200D01*
X65208800Y-81983200D02*
X70608800Y-81983200D01*
X68408800Y-80733200D02*
X68408800Y-81733200D01*
X67508800Y-81233200D02*
X68408800Y-80733200D01*
X67408800Y-80733200D02*
X67408800Y-81733200D01*
X65208800Y-80483200D02*
X65208800Y-81983200D01*
X70608800Y-80483200D02*
X65208800Y-80483200D01*
X70608800Y-81983200D02*
X70608800Y-80483200D01*
%TO.C,SW8*%
X69416000Y-91104000D02*
X66916000Y-91104000D01*
X61916000Y-94404000D02*
X60916000Y-94404000D01*
X60916000Y-80404000D02*
X61916000Y-80404000D01*
X60916000Y-94404000D02*
X60916000Y-93404000D01*
X74916000Y-93404000D02*
X74916000Y-94404000D01*
X73916000Y-80404000D02*
X74916000Y-80404000D01*
X74916000Y-80404000D02*
X74916000Y-81404000D01*
X60916000Y-93004000D02*
X60916000Y-93604000D01*
X69416000Y-95604000D02*
X66416000Y-95604000D01*
X65416000Y-89604000D02*
X65416000Y-88904000D01*
X65416000Y-88904000D02*
X60916000Y-88904000D01*
X60916000Y-81404000D02*
X60916000Y-80404000D01*
X60916000Y-93604000D02*
X65416000Y-93604000D01*
X65916000Y-94104000D02*
X65916000Y-95104000D01*
X60916000Y-88904000D02*
X60916000Y-89404000D01*
X74916000Y-94404000D02*
X73916000Y-94404000D01*
X66416000Y-95604000D02*
X65916000Y-95104000D01*
X69916000Y-91604000D02*
X69416000Y-91104000D01*
X69916000Y-95104000D02*
X69416000Y-95604000D01*
X65916000Y-94104000D02*
G75*
G03*
X65416000Y-93604000I-500001J-1D01*
G01*
X65416000Y-89604000D02*
G75*
G03*
X66916000Y-91104000I1500001J1D01*
G01*
%TO.C,SW14*%
X60916000Y-105904000D02*
X60916000Y-106404000D01*
X73916000Y-97404000D02*
X74916000Y-97404000D01*
X61916000Y-111404000D02*
X60916000Y-111404000D01*
X74916000Y-97404000D02*
X74916000Y-98404000D01*
X60916000Y-110004000D02*
X60916000Y-110604000D01*
X60916000Y-111404000D02*
X60916000Y-110404000D01*
X60916000Y-98404000D02*
X60916000Y-97404000D01*
X69916000Y-112104000D02*
X69416000Y-112604000D01*
X60916000Y-110604000D02*
X65416000Y-110604000D01*
X74916000Y-111404000D02*
X73916000Y-111404000D01*
X69916000Y-108604000D02*
X69416000Y-108104000D01*
X65916000Y-111104000D02*
X65916000Y-112104000D01*
X74916000Y-110404000D02*
X74916000Y-111404000D01*
X65416000Y-105904000D02*
X60916000Y-105904000D01*
X65416000Y-106604000D02*
X65416000Y-105904000D01*
X69416000Y-112604000D02*
X66416000Y-112604000D01*
X69416000Y-108104000D02*
X66916000Y-108104000D01*
X60916000Y-97404000D02*
X61916000Y-97404000D01*
X66416000Y-112604000D02*
X65916000Y-112104000D01*
X65916000Y-111104000D02*
G75*
G03*
X65416000Y-110604000I-500001J-1D01*
G01*
X65416000Y-106604000D02*
G75*
G03*
X66916000Y-108104000I1500001J1D01*
G01*
%TO.C,JP64*%
X179019000Y-83684400D02*
X177241000Y-83684400D01*
X177241000Y-85970400D02*
X179019000Y-85970400D01*
X179019000Y-85970400D02*
X179019000Y-83684400D01*
X177241000Y-83684400D02*
X177241000Y-85970400D01*
%TO.C,JP62*%
X176469000Y-83714000D02*
X174691000Y-83714000D01*
X174691000Y-83714000D02*
X174691000Y-86000000D01*
X176469000Y-86000000D02*
X176469000Y-83714000D01*
X174691000Y-86000000D02*
X176469000Y-86000000D01*
%TO.C,JP6*%
X182401000Y-85920400D02*
X184179000Y-85920400D01*
X184179000Y-83634400D02*
X182401000Y-83634400D01*
X184179000Y-85920400D02*
X184179000Y-83634400D01*
X182401000Y-83634400D02*
X182401000Y-85920400D01*
%TO.C,JP66*%
X179821000Y-83654400D02*
X179821000Y-85940400D01*
X181599000Y-85940400D02*
X181599000Y-83654400D01*
X179821000Y-85940400D02*
X181599000Y-85940400D01*
X181599000Y-83654400D02*
X179821000Y-83654400D01*
D13*
%TO.C,POWER*%
X193290000Y-86930000D02*
X193290000Y-87830000D01*
X190780000Y-91580000D02*
X189990000Y-91580000D01*
X189990000Y-84680000D02*
X190780000Y-84680000D01*
X193080000Y-88030000D02*
X193290000Y-87830000D01*
X191790000Y-85280000D02*
X191790000Y-90980000D01*
X188940000Y-89530000D02*
X188940000Y-89730000D01*
X191790000Y-86730000D02*
X193080000Y-86730000D01*
X193080000Y-88030000D02*
X191790000Y-88030000D01*
X193080000Y-86730000D02*
X193290000Y-86930000D01*
X188940000Y-86530000D02*
X188940000Y-88230000D01*
%TD*%
M02*
