%TF.GenerationSoftware,KiCad,Pcbnew,6.0.8-f2edbf62ab~116~ubuntu22.04.1*%
%TF.CreationDate,2022-10-26T10:02:15+11:00*%
%TF.ProjectId,banach,62616e61-6368-42e6-9b69-6361645f7063,rev1.0*%
%TF.SameCoordinates,Original*%
%TF.FileFunction,Profile,NP*%
%FSLAX46Y46*%
G04 Gerber Fmt 4.6, Leading zero omitted, Abs format (unit mm)*
G04 Created by KiCad (PCBNEW 6.0.8-f2edbf62ab~116~ubuntu22.04.1) date 2022-10-26 10:02:15*
%MOMM*%
%LPD*%
G01*
G04 APERTURE LIST*
%TA.AperFunction,Profile*%
%ADD10C,0.100000*%
%TD*%
G04 APERTURE END LIST*
D10*
X144460000Y-124460000D02*
X127000000Y-125730000D01*
X132200000Y-46370000D02*
X132200000Y-45370000D01*
X96200000Y-48370000D02*
G75*
G03*
X94200000Y-50370000I0J-2000000D01*
G01*
X191900000Y-52180000D02*
G75*
G03*
X190100000Y-50380000I-1800000J0D01*
G01*
X191940000Y-103796003D02*
X191900000Y-52180000D01*
X164080003Y-128459994D02*
G75*
G03*
X144460000Y-124460000I-17080203J-33660406D01*
G01*
X122499968Y-124020029D02*
G75*
G03*
X127000000Y-125730000I3960132J3645429D01*
G01*
X132200000Y-45370000D02*
G75*
G03*
X130200000Y-43370000I-2000000J0D01*
G01*
X58200000Y-62370000D02*
X58200000Y-111570000D01*
X114200000Y-43370000D02*
G75*
G03*
X112200000Y-45370000I0J-2000000D01*
G01*
X92200000Y-60370000D02*
G75*
G03*
X94200000Y-58370000I0J2000000D01*
G01*
X176530000Y-134112000D02*
G75*
G03*
X178260000Y-133376003I305142J1683975D01*
G01*
X130200000Y-43370000D02*
X114200000Y-43370000D01*
X94200000Y-50370000D02*
X94200000Y-58370000D01*
X190100000Y-50380000D02*
X151950002Y-50369998D01*
X122499999Y-124020000D02*
G75*
G03*
X100700000Y-113570000I-22024739J-17982590D01*
G01*
X132200000Y-46370000D02*
G75*
G03*
X134200000Y-48370000I2000000J0D01*
G01*
X178260000Y-133376003D02*
X191660000Y-104760000D01*
X191659989Y-104759994D02*
G75*
G03*
X191940000Y-103796003I-1632289J996794D01*
G01*
X150199981Y-49370011D02*
G75*
G03*
X151950002Y-50369998I1750019J1031311D01*
G01*
X148500000Y-48370000D02*
X134200000Y-48370000D01*
X110200000Y-48370000D02*
G75*
G03*
X112200000Y-46370000I0J2000000D01*
G01*
X58200000Y-111570000D02*
G75*
G03*
X60200000Y-113570000I2000000J0D01*
G01*
X150200000Y-49370000D02*
G75*
G03*
X148500000Y-48370000I-1700000J-945000D01*
G01*
X110200000Y-48370000D02*
X96200000Y-48370000D01*
X60200000Y-60370000D02*
G75*
G03*
X58200000Y-62370000I0J-2000000D01*
G01*
X164080000Y-128460000D02*
X176530000Y-134112000D01*
X60200000Y-113570000D02*
X100700000Y-113570000D01*
X92200000Y-60370000D02*
X60200000Y-60370000D01*
X112200000Y-45370000D02*
X112200000Y-46370000D01*
M02*
