%TF.GenerationSoftware,KiCad,Pcbnew,6.0.8-f2edbf62ab~116~ubuntu22.04.1*%
%TF.CreationDate,2022-10-26T10:02:15+11:00*%
%TF.ProjectId,banach,62616e61-6368-42e6-9b69-6361645f7063,rev1.0*%
%TF.SameCoordinates,Original*%
%TF.FileFunction,Soldermask,Top*%
%TF.FilePolarity,Negative*%
%FSLAX46Y46*%
G04 Gerber Fmt 4.6, Leading zero omitted, Abs format (unit mm)*
G04 Created by KiCad (PCBNEW 6.0.8-f2edbf62ab~116~ubuntu22.04.1) date 2022-10-26 10:02:15*
%MOMM*%
%LPD*%
G01*
G04 APERTURE LIST*
G04 Aperture macros list*
%AMRoundRect*
0 Rectangle with rounded corners*
0 $1 Rounding radius*
0 $2 $3 $4 $5 $6 $7 $8 $9 X,Y pos of 4 corners*
0 Add a 4 corners polygon primitive as box body*
4,1,4,$2,$3,$4,$5,$6,$7,$8,$9,$2,$3,0*
0 Add four circle primitives for the rounded corners*
1,1,$1+$1,$2,$3*
1,1,$1+$1,$4,$5*
1,1,$1+$1,$6,$7*
1,1,$1+$1,$8,$9*
0 Add four rect primitives between the rounded corners*
20,1,$1+$1,$2,$3,$4,$5,0*
20,1,$1+$1,$4,$5,$6,$7,0*
20,1,$1+$1,$6,$7,$8,$9,0*
20,1,$1+$1,$8,$9,$2,$3,0*%
%AMRotRect*
0 Rectangle, with rotation*
0 The origin of the aperture is its center*
0 $1 length*
0 $2 width*
0 $3 Rotation angle, in degrees counterclockwise*
0 Add horizontal line*
21,1,$1,$2,0,0,$3*%
%AMOutline5P*
0 Free polygon, 5 corners , with rotation*
0 The origin of the aperture is its center*
0 number of corners: always 5*
0 $1 to $10 corner X, Y*
0 $11 Rotation angle, in degrees counterclockwise*
0 create outline with 5 corners*
4,1,5,$1,$2,$3,$4,$5,$6,$7,$8,$9,$10,$1,$2,$11*%
%AMOutline6P*
0 Free polygon, 6 corners , with rotation*
0 The origin of the aperture is its center*
0 number of corners: always 6*
0 $1 to $12 corner X, Y*
0 $13 Rotation angle, in degrees counterclockwise*
0 create outline with 6 corners*
4,1,6,$1,$2,$3,$4,$5,$6,$7,$8,$9,$10,$11,$12,$1,$2,$13*%
%AMOutline7P*
0 Free polygon, 7 corners , with rotation*
0 The origin of the aperture is its center*
0 number of corners: always 7*
0 $1 to $14 corner X, Y*
0 $15 Rotation angle, in degrees counterclockwise*
0 create outline with 7 corners*
4,1,7,$1,$2,$3,$4,$5,$6,$7,$8,$9,$10,$11,$12,$13,$14,$1,$2,$15*%
%AMOutline8P*
0 Free polygon, 8 corners , with rotation*
0 The origin of the aperture is its center*
0 number of corners: always 8*
0 $1 to $16 corner X, Y*
0 $17 Rotation angle, in degrees counterclockwise*
0 create outline with 8 corners*
4,1,8,$1,$2,$3,$4,$5,$6,$7,$8,$9,$10,$11,$12,$13,$14,$15,$16,$1,$2,$17*%
G04 Aperture macros list end*
%ADD10R,1.397000X1.397000*%
%ADD11R,1.300000X0.950000*%
%ADD12C,1.397000*%
%ADD13RotRect,1.397000X1.397000X185.000000*%
%ADD14RotRect,1.300000X0.950000X185.000000*%
%ADD15RotRect,1.300000X0.950000X175.000000*%
%ADD16RotRect,1.397000X1.397000X175.000000*%
%ADD17RotRect,1.300000X0.950000X245.000000*%
%ADD18RotRect,1.397000X1.397000X245.000000*%
%ADD19C,1.200000*%
%ADD20O,2.500000X1.700000*%
%ADD21C,1.701800*%
%ADD22C,3.429000*%
%ADD23C,3.000000*%
%ADD24C,0.990600*%
%ADD25Outline5P,-1.300000X0.130000X-0.130000X1.300000X1.300000X1.300000X1.300000X-1.300000X-1.300000X-1.300000X0.000000*%
%ADD26R,2.600000X2.600000*%
%ADD27R,1.900000X2.600000*%
%ADD28Outline5P,-1.300000X0.130000X-0.130000X1.300000X1.300000X1.300000X1.300000X-1.300000X-1.300000X-1.300000X185.000000*%
%ADD29RotRect,2.600000X2.600000X185.000000*%
%ADD30RotRect,2.600000X2.600000X175.000000*%
%ADD31Outline5P,-1.300000X0.130000X-0.130000X1.300000X1.300000X1.300000X1.300000X-1.300000X-1.300000X-1.300000X175.000000*%
%ADD32RotRect,2.600000X2.600000X245.000000*%
%ADD33Outline5P,-1.300000X0.130000X-0.130000X1.300000X1.300000X1.300000X1.300000X-1.300000X-1.300000X-1.300000X245.000000*%
%ADD34C,1.524000*%
%ADD35R,1.143000X0.635000*%
%ADD36C,2.000000*%
%ADD37RoundRect,0.250000X-0.750000X0.250000X-0.750000X-0.250000X0.750000X-0.250000X0.750000X0.250000X0*%
%ADD38C,0.900000*%
%ADD39R,0.800000X1.000000*%
%ADD40R,1.500000X0.700000*%
%ADD41RoundRect,0.250000X0.750000X-0.250000X0.750000X0.250000X-0.750000X0.250000X-0.750000X-0.250000X0*%
%ADD42R,1.875000X2.600000*%
%ADD43C,4.000000*%
G04 APERTURE END LIST*
D10*
%TO.C,D2*%
X82194400Y-64312800D03*
D11*
X84229400Y-64312800D03*
D12*
X89814400Y-64312800D03*
D11*
X87779400Y-64312800D03*
%TD*%
D10*
%TO.C,D3*%
X100279200Y-52273200D03*
D11*
X102314200Y-52273200D03*
X105864200Y-52273200D03*
D12*
X107899200Y-52273200D03*
%TD*%
D10*
%TO.C,D4*%
X118262400Y-46228000D03*
D11*
X120297400Y-46228000D03*
D12*
X125882400Y-46228000D03*
D11*
X123847400Y-46228000D03*
%TD*%
%TO.C,D5*%
X138229800Y-53289200D03*
D10*
X136194800Y-53289200D03*
D12*
X143814800Y-53289200D03*
D11*
X141779800Y-53289200D03*
%TD*%
%TO.C,D6*%
X156213000Y-55422800D03*
D10*
X154178000Y-55422800D03*
D11*
X159763000Y-55422800D03*
D12*
X161798000Y-55422800D03*
%TD*%
D10*
%TO.C,D8*%
X82092800Y-81229200D03*
D11*
X84127800Y-81229200D03*
D12*
X89712800Y-81229200D03*
D11*
X87677800Y-81229200D03*
%TD*%
D10*
%TO.C,D9*%
X100076000Y-69342000D03*
D11*
X102111000Y-69342000D03*
D12*
X107696000Y-69342000D03*
D11*
X105661000Y-69342000D03*
%TD*%
D10*
%TO.C,D10*%
X118160800Y-63347600D03*
D11*
X120195800Y-63347600D03*
X123745800Y-63347600D03*
D12*
X125780800Y-63347600D03*
%TD*%
D10*
%TO.C,D11*%
X136144000Y-69900800D03*
D11*
X138179000Y-69900800D03*
D12*
X143764000Y-69900800D03*
D11*
X141729000Y-69900800D03*
%TD*%
D10*
%TO.C,D12*%
X154482800Y-72491600D03*
D11*
X156517800Y-72491600D03*
D12*
X162102800Y-72491600D03*
D11*
X160067800Y-72491600D03*
%TD*%
D10*
%TO.C,D14*%
X82092800Y-98247200D03*
D11*
X84127800Y-98247200D03*
D12*
X89712800Y-98247200D03*
D11*
X87677800Y-98247200D03*
%TD*%
D10*
%TO.C,D15*%
X100177600Y-86309200D03*
D11*
X102212600Y-86309200D03*
X105762600Y-86309200D03*
D12*
X107797600Y-86309200D03*
%TD*%
D11*
%TO.C,D16*%
X120195800Y-80314800D03*
D10*
X118160800Y-80314800D03*
D11*
X123745800Y-80314800D03*
D12*
X125780800Y-80314800D03*
%TD*%
D10*
%TO.C,D17*%
X136245600Y-86969600D03*
D11*
X138280600Y-86969600D03*
X141830600Y-86969600D03*
D12*
X143865600Y-86969600D03*
%TD*%
D11*
%TO.C,D18*%
X156314600Y-89357200D03*
D10*
X154279600Y-89357200D03*
D12*
X161899600Y-89357200D03*
D11*
X159864600Y-89357200D03*
%TD*%
D13*
%TO.C,D19*%
X137145502Y-120825937D03*
D14*
X135118246Y-121003299D03*
X131581754Y-121312701D03*
D12*
X129554498Y-121490063D03*
%TD*%
D15*
%TO.C,D20*%
X154422246Y-121312701D03*
D16*
X156449502Y-121490063D03*
D12*
X148858498Y-120825937D03*
D15*
X150885754Y-121003299D03*
%TD*%
D12*
%TO.C,D21*%
X178475824Y-123595033D03*
D17*
X179335853Y-121750696D03*
X180836147Y-118533304D03*
D18*
X181696176Y-116688967D03*
%TD*%
D19*
%TO.C,J1*%
X190362600Y-98820000D03*
X183362600Y-98820000D03*
X190362600Y-100570000D03*
X183362600Y-100570000D03*
D20*
X180062600Y-100920000D03*
X180062600Y-98470000D03*
X188562600Y-102670000D03*
X188562600Y-96720000D03*
X185562600Y-96720000D03*
X185562600Y-102670000D03*
X181562600Y-96720000D03*
X181562600Y-102670000D03*
%TD*%
D21*
%TO.C,SW2*%
X91410000Y-70400000D03*
D22*
X85910000Y-70400000D03*
D23*
X80910000Y-74150000D03*
D24*
X91130000Y-66200000D03*
D23*
X85910000Y-76350000D03*
D24*
X80690000Y-66200000D03*
D21*
X80410000Y-70400000D03*
D23*
X90910000Y-74150000D03*
D25*
X82635000Y-76350000D03*
D26*
X94185000Y-74150000D03*
%TD*%
D24*
%TO.C,SW3*%
X98690000Y-54200000D03*
D21*
X109410000Y-58400000D03*
D23*
X103910000Y-64350000D03*
D24*
X109130000Y-54200000D03*
D23*
X98910000Y-62150000D03*
D22*
X103910000Y-58400000D03*
D23*
X108910000Y-62150000D03*
D21*
X98410000Y-58400000D03*
D25*
X100635000Y-64350000D03*
D26*
X112185000Y-62150000D03*
%TD*%
D22*
%TO.C,SW4*%
X121910000Y-52400000D03*
D21*
X116410000Y-52400000D03*
D24*
X127130000Y-48200000D03*
D23*
X121910000Y-58350000D03*
X116910000Y-56150000D03*
D24*
X116690000Y-48200000D03*
D21*
X127410000Y-52400000D03*
D23*
X126910000Y-56150000D03*
D25*
X118635000Y-58350000D03*
D26*
X130185000Y-56150000D03*
%TD*%
D21*
%TO.C,SW5*%
X145410000Y-59020000D03*
D23*
X134910000Y-62770000D03*
X139910000Y-64970000D03*
D24*
X134690000Y-54820000D03*
D22*
X139910000Y-59020000D03*
D24*
X145130000Y-54820000D03*
D21*
X134410000Y-59020000D03*
D23*
X144910000Y-62770000D03*
D25*
X136635000Y-64970000D03*
D26*
X148185000Y-62770000D03*
%TD*%
D23*
%TO.C,SW6*%
X152910000Y-65150000D03*
X157910000Y-67350000D03*
D24*
X152690000Y-57200000D03*
D22*
X157910000Y-61400000D03*
D21*
X152410000Y-61400000D03*
X163410000Y-61400000D03*
D23*
X162910000Y-65150000D03*
D24*
X163130000Y-57200000D03*
D25*
X154635000Y-67350000D03*
D26*
X166185000Y-65150000D03*
%TD*%
D23*
%TO.C,SW8*%
X90910000Y-91150000D03*
D21*
X91410000Y-87400000D03*
X80410000Y-87400000D03*
D23*
X80910000Y-91150000D03*
D24*
X80690000Y-83200000D03*
D23*
X85910000Y-93350000D03*
D24*
X91130000Y-83200000D03*
D22*
X85910000Y-87400000D03*
D25*
X82635000Y-93350000D03*
D26*
X94185000Y-91150000D03*
%TD*%
D21*
%TO.C,SW9*%
X98410000Y-75400000D03*
D24*
X109130000Y-71200000D03*
D22*
X103910000Y-75400000D03*
D21*
X109410000Y-75400000D03*
D23*
X108910000Y-79150000D03*
X98910000Y-79150000D03*
X103910000Y-81350000D03*
D24*
X98690000Y-71200000D03*
D25*
X100635000Y-81350000D03*
D26*
X112185000Y-79150000D03*
%TD*%
D23*
%TO.C,SW10*%
X121910000Y-75350000D03*
D21*
X116410000Y-69400000D03*
D24*
X127130000Y-65200000D03*
D21*
X127410000Y-69400000D03*
D24*
X116690000Y-65200000D03*
D22*
X121910000Y-69400000D03*
D23*
X116910000Y-73150000D03*
X126910000Y-73150000D03*
D25*
X118635000Y-75350000D03*
D26*
X130185000Y-73150000D03*
%TD*%
D23*
%TO.C,SW11*%
X134910000Y-79770000D03*
D24*
X134690000Y-71820000D03*
D23*
X144910000Y-79770000D03*
X139910000Y-81970000D03*
D21*
X134410000Y-76020000D03*
D22*
X139910000Y-76020000D03*
D21*
X145410000Y-76020000D03*
D24*
X145130000Y-71820000D03*
D25*
X136635000Y-81970000D03*
D26*
X148185000Y-79770000D03*
%TD*%
D21*
%TO.C,SW12*%
X163410000Y-78400000D03*
D23*
X162910000Y-82150000D03*
D21*
X152410000Y-78400000D03*
D24*
X152690000Y-74200000D03*
X163130000Y-74200000D03*
D23*
X157910000Y-84350000D03*
D22*
X157910000Y-78400000D03*
D23*
X152910000Y-82150000D03*
D25*
X154635000Y-84350000D03*
D26*
X166185000Y-82150000D03*
%TD*%
D24*
%TO.C,SW14*%
X91130000Y-100200000D03*
X80690000Y-100200000D03*
D23*
X90910000Y-108150000D03*
D21*
X91410000Y-104400000D03*
X80410000Y-104400000D03*
D22*
X85910000Y-104400000D03*
D23*
X80910000Y-108150000D03*
X85910000Y-110350000D03*
D25*
X82635000Y-110350000D03*
D27*
X93810000Y-108150000D03*
%TD*%
D23*
%TO.C,SW15*%
X103910000Y-98350000D03*
X98910000Y-96150000D03*
D24*
X98690000Y-88200000D03*
D21*
X109410000Y-92400000D03*
D23*
X108910000Y-96150000D03*
D21*
X98410000Y-92400000D03*
D24*
X109130000Y-88200000D03*
D22*
X103910000Y-92400000D03*
D25*
X100635000Y-98350000D03*
D26*
X112185000Y-96150000D03*
%TD*%
D22*
%TO.C,SW16*%
X121910000Y-86400000D03*
D23*
X116910000Y-90150000D03*
D24*
X116690000Y-82200000D03*
D23*
X126910000Y-90150000D03*
D21*
X127410000Y-86400000D03*
D24*
X127130000Y-82200000D03*
D21*
X116410000Y-86400000D03*
D23*
X121910000Y-92350000D03*
D25*
X118635000Y-92350000D03*
D26*
X130185000Y-90150000D03*
%TD*%
D24*
%TO.C,SW17*%
X145130000Y-88825000D03*
X134690000Y-88825000D03*
D21*
X134410000Y-93025000D03*
D23*
X139910000Y-98975000D03*
D21*
X145410000Y-93025000D03*
D23*
X134910000Y-96775000D03*
D22*
X139910000Y-93025000D03*
D23*
X144910000Y-96775000D03*
D25*
X136635000Y-98975000D03*
D26*
X148185000Y-96775000D03*
%TD*%
D23*
%TO.C,SW18*%
X157910000Y-101350000D03*
D22*
X157910000Y-95400000D03*
D21*
X163410000Y-95400000D03*
D23*
X152910000Y-99150000D03*
D24*
X152690000Y-91200000D03*
D23*
X162910000Y-99150000D03*
D21*
X152410000Y-95400000D03*
D24*
X163130000Y-91200000D03*
D25*
X154635000Y-101350000D03*
D26*
X166185000Y-99150000D03*
%TD*%
D24*
%TO.C,SW19*%
X138408190Y-119299065D03*
D23*
X132323423Y-109642642D03*
D21*
X127362929Y-116049357D03*
D23*
X137496139Y-111398491D03*
D22*
X132842000Y-115570000D03*
D21*
X138321071Y-115090643D03*
D23*
X127534192Y-112270049D03*
D24*
X128007918Y-120208971D03*
D28*
X135585961Y-109357206D03*
D29*
X124271655Y-112555484D03*
%TD*%
D30*
%TO.C,SW20*%
X145245323Y-111113056D03*
D31*
X156943114Y-109928077D03*
D21*
X158641071Y-116049357D03*
D24*
X147595810Y-119299065D03*
D21*
X147682929Y-115090643D03*
D23*
X158469808Y-112270049D03*
D22*
X153162000Y-115570000D03*
D23*
X148507861Y-111398491D03*
X153680577Y-109642642D03*
D24*
X157996082Y-120208971D03*
%TD*%
D32*
%TO.C,SW21*%
X168110180Y-123770878D03*
D33*
X170997543Y-112373263D03*
D24*
X176606425Y-124361923D03*
D22*
X175006000Y-117856000D03*
D23*
X169494254Y-120802720D03*
D21*
X177330400Y-112871307D03*
X172681600Y-122840693D03*
D24*
X181018560Y-114900070D03*
D23*
X169613469Y-115341421D03*
X173720437Y-111739643D03*
%TD*%
D34*
%TO.C,U1*%
X171270000Y-55719400D03*
X187816400Y-54449400D03*
X187816400Y-56989400D03*
X171270000Y-58259400D03*
X187816400Y-59529400D03*
X171270000Y-60799400D03*
X187816400Y-62069400D03*
X171270000Y-63339400D03*
X171270000Y-65879400D03*
X187816400Y-64609400D03*
X171270000Y-68419400D03*
X187816400Y-67149400D03*
X171270000Y-70959400D03*
X187816400Y-69689400D03*
X171270000Y-73499400D03*
X187816400Y-72229400D03*
X187816400Y-74769400D03*
X171270000Y-76039400D03*
X187816400Y-77309400D03*
X171270000Y-78579400D03*
X187816400Y-79849400D03*
X171270000Y-81119400D03*
X187816400Y-82389400D03*
X171270000Y-83659400D03*
X172596400Y-82389400D03*
X186510000Y-83659400D03*
X172596400Y-79849400D03*
X186510000Y-81119400D03*
X186510000Y-78579400D03*
X172596400Y-77309400D03*
X186510000Y-76039400D03*
X172596400Y-74769400D03*
X186510000Y-73499400D03*
X172596400Y-72229400D03*
X186510000Y-70959400D03*
X172596400Y-69689400D03*
X186510000Y-68419400D03*
X172596400Y-67149400D03*
X172596400Y-64609400D03*
X186510000Y-65879400D03*
X186510000Y-63339400D03*
X172596400Y-62069400D03*
X186510000Y-60799400D03*
X172596400Y-59529400D03*
X172596400Y-56989400D03*
X186510000Y-58259400D03*
X186510000Y-55719400D03*
X172596400Y-54449400D03*
%TD*%
D35*
%TO.C,JP65*%
X180720000Y-84297020D03*
X180720000Y-85297780D03*
%TD*%
D12*
%TO.C,J2*%
X175580000Y-87457400D03*
X178120000Y-87457400D03*
X180660000Y-87457400D03*
X183200000Y-87457400D03*
%TD*%
D35*
%TO.C,JP63*%
X178120000Y-84317020D03*
X178120000Y-85317780D03*
%TD*%
%TO.C,JP61*%
X175580000Y-84347020D03*
X175580000Y-85347780D03*
%TD*%
%TO.C,JP68*%
X183290000Y-84287420D03*
X183290000Y-85288180D03*
%TD*%
D36*
%TO.C,RSW1*%
X186150000Y-92150000D03*
X179650000Y-92150000D03*
%TD*%
D11*
%TO.C,D14*%
X66133800Y-98251200D03*
D10*
X64098800Y-98251200D03*
D12*
X71718800Y-98251200D03*
D11*
X69683800Y-98251200D03*
%TD*%
D37*
%TO.C,-ve*%
X182390000Y-53340000D03*
%TD*%
D38*
%TO.C,POWER*%
X190385000Y-89640000D03*
D39*
X189275000Y-91790000D03*
X191485000Y-84490000D03*
X191485000Y-91790000D03*
D38*
X190385000Y-86640000D03*
D39*
X189275000Y-84490000D03*
D40*
X188625000Y-90390000D03*
X188625000Y-87390000D03*
X188625000Y-85890000D03*
%TD*%
D10*
%TO.C,D2*%
X64200400Y-64316800D03*
D11*
X66235400Y-64316800D03*
X69785400Y-64316800D03*
D12*
X71820400Y-64316800D03*
%TD*%
D41*
%TO.C,+ve*%
X176280000Y-53430000D03*
%TD*%
D23*
%TO.C,SW2*%
X72916000Y-74154000D03*
D22*
X67916000Y-70404000D03*
D24*
X62696000Y-66204000D03*
X73136000Y-66204000D03*
D23*
X67916000Y-76354000D03*
D21*
X62416000Y-70404000D03*
X73416000Y-70404000D03*
D23*
X62916000Y-74154000D03*
D25*
X64641000Y-76354000D03*
D42*
X75816000Y-74154000D03*
%TD*%
D10*
%TO.C,D8*%
X64098800Y-81233200D03*
D11*
X66133800Y-81233200D03*
D12*
X71718800Y-81233200D03*
D11*
X69683800Y-81233200D03*
%TD*%
D23*
%TO.C,SW8*%
X62916000Y-91154000D03*
D21*
X73416000Y-87404000D03*
D22*
X67916000Y-87404000D03*
D21*
X62416000Y-87404000D03*
D23*
X67916000Y-93354000D03*
X72916000Y-91154000D03*
D24*
X73136000Y-83204000D03*
X62696000Y-83204000D03*
D25*
X64641000Y-93354000D03*
D42*
X75816000Y-91154000D03*
%TD*%
D23*
%TO.C,SW14*%
X72916000Y-108154000D03*
D24*
X73136000Y-100204000D03*
D23*
X67916000Y-110354000D03*
D21*
X62416000Y-104404000D03*
D22*
X67916000Y-104404000D03*
D24*
X62696000Y-100204000D03*
D23*
X62916000Y-108154000D03*
D21*
X73416000Y-104404000D03*
D25*
X64641000Y-110354000D03*
D42*
X75816000Y-108154000D03*
%TD*%
D38*
%TO.C,POWER*%
X190390000Y-86630000D03*
X190390000Y-89630000D03*
%TD*%
D43*
%TO.C,h6*%
X95000000Y-66802000D03*
%TD*%
%TO.C,h7*%
X149100000Y-69700000D03*
%TD*%
%TO.C,h4*%
X123952000Y-104140000D03*
%TD*%
%TO.C,h3*%
X165862000Y-109474000D03*
%TD*%
%TO.C,h5*%
X95000000Y-83820000D03*
%TD*%
M02*
