M48
METRIC,TZ
T1C0.400
T2C0.813
T3C1.000
T4C1.300
T5C2.200
T6C0.900
T7C0.991
T8C1.200
T9C1.702
T10C3.000
T11C3.429
%
G90
G05
T1
X64641Y-93354
X64641Y-110354
X64650Y-76250
X75750Y-91110
X75790Y-108000
X75800Y-74100
X82635Y-76350
X82635Y-93350
X82635Y-110350
X87400Y-79310
X89662Y-84455
X92253Y-93878
X93878Y-98603
X94185Y-74150
X94185Y-91150
X94185Y-108150
X94590Y-93777
X99670Y-83270
X100635Y-64350
X100635Y-81350
X100635Y-98350
X111150Y-52375
X111303Y-86614
X111760Y-70206
X112185Y-62150
X112185Y-79150
X112185Y-96150
X118635Y-58350
X118635Y-75350
X118635Y-92350
X118635Y-96525
X121768Y-65430
X124272Y-112555
X129061Y-109928
X129083Y-80874
X129388Y-46330
X129489Y-63652
X130185Y-56150
X130185Y-73150
X130185Y-90150
X136635Y-64970
X136635Y-81970
X136635Y-98975
X138532Y-72746
X142560Y-84600
X144723Y-101473
X145245Y-111113
X148031Y-53442
X148133Y-87071
X148185Y-62770
X148185Y-79770
X148185Y-96775
X150418Y-109357
X152188Y-70272
X154635Y-67350
X154635Y-84350
X154635Y-101350
X165913Y-89408
X166116Y-55524
X166116Y-73863
X166185Y-65150
X166185Y-82150
X166185Y-99150
X167234Y-68334
X167900Y-59040
X168110Y-123771
X168216Y-118296
X173544Y-88310
X174505Y-76039
X179450Y-65879
X179450Y-68419
X179450Y-70959
X179450Y-73499
X179450Y-76039
X179450Y-78579
X179450Y-81117
X181482Y-67105
X181482Y-69645
X181482Y-72185
X181482Y-74725
X181609Y-77265
X181609Y-79805
X181736Y-82320
X184610Y-82320
X188625Y-87390
T2
X64099Y-81233
X64099Y-98251
X64200Y-64317
X71719Y-81233
X71719Y-98251
X71820Y-64317
X82093Y-81229
X82093Y-98247
X82194Y-64313
X89713Y-81229
X89713Y-98247
X89814Y-64313
X100076Y-69342
X100178Y-86309
X100279Y-52273
X107696Y-69342
X107798Y-86309
X107899Y-52273
X118161Y-63348
X118161Y-80315
X118262Y-46228
X125781Y-63348
X125781Y-80315
X125882Y-46228
X129554Y-121490
X136144Y-69901
X136195Y-53289
X136246Y-86970
X137146Y-120826
X143764Y-69901
X143815Y-53289
X143866Y-86970
X148858Y-120826
X154178Y-55423
X154280Y-89357
X154483Y-72492
X156450Y-121490
X161798Y-55423
X161900Y-89357
X162103Y-72492
X171270Y-55719
X171270Y-58259
X171270Y-60799
X171270Y-63339
X171270Y-65879
X171270Y-68419
X171270Y-70959
X171270Y-73499
X171270Y-76039
X171270Y-78579
X171270Y-81119
X171270Y-83659
X172596Y-54449
X172596Y-56989
X172596Y-59529
X172596Y-62069
X172596Y-64609
X172596Y-67149
X172596Y-69689
X172596Y-72229
X172596Y-74769
X172596Y-77309
X172596Y-79849
X172596Y-82389
X175580Y-87457
X178120Y-87457
X178476Y-123595
X180660Y-87457
X181696Y-116689
X183200Y-87457
X186510Y-55719
X186510Y-58259
X186510Y-60799
X186510Y-63339
X186510Y-65879
X186510Y-68419
X186510Y-70959
X186510Y-73499
X186510Y-76039
X186510Y-78579
X186510Y-81119
X186510Y-83659
X187816Y-54449
X187816Y-56989
X187816Y-59529
X187816Y-62069
X187816Y-64609
X187816Y-67149
X187816Y-69689
X187816Y-72229
X187816Y-74769
X187816Y-77309
X187816Y-79849
X187816Y-82389
T4
X179650Y-92150
X186150Y-92150
T5
X95000Y-66802
X95000Y-83820
X123952Y-104140
X149100Y-69700
X165862Y-109474
T6
X190385Y-86640
X190385Y-89640
X190390Y-86630
X190390Y-89630
T7
X62696Y-66204
X62696Y-83204
X62696Y-100204
X73136Y-66204
X73136Y-83204
X73136Y-100204
X80690Y-66200
X80690Y-83200
X80690Y-100200
X91130Y-66200
X91130Y-83200
X91130Y-100200
X98690Y-54200
X98690Y-71200
X98690Y-88200
X109130Y-54200
X109130Y-71200
X109130Y-88200
X116690Y-48200
X116690Y-65200
X116690Y-82200
X127130Y-48200
X127130Y-65200
X127130Y-82200
X128008Y-120209
X134690Y-54820
X134690Y-71820
X134690Y-88825
X138408Y-119299
X145130Y-54820
X145130Y-71820
X145130Y-88825
X147596Y-119299
X152690Y-57200
X152690Y-74200
X152690Y-91200
X157996Y-120209
X163130Y-57200
X163130Y-74200
X163130Y-91200
X176606Y-124362
X181019Y-114900
T8
X183363Y-98820
X183363Y-100570
X190363Y-98820
X190363Y-100570
T9
X62416Y-70404
X62416Y-87404
X62416Y-104404
X73416Y-70404
X73416Y-87404
X73416Y-104404
X80410Y-70400
X80410Y-87400
X80410Y-104400
X91410Y-70400
X91410Y-87400
X91410Y-104400
X98410Y-58400
X98410Y-75400
X98410Y-92400
X109410Y-58400
X109410Y-75400
X109410Y-92400
X116410Y-52400
X116410Y-69400
X116410Y-86400
X127363Y-116049
X127410Y-52400
X127410Y-69400
X127410Y-86400
X134410Y-59020
X134410Y-76020
X134410Y-93025
X138321Y-115091
X145410Y-59020
X145410Y-76020
X145410Y-93025
X147683Y-115091
X152410Y-61400
X152410Y-78400
X152410Y-95400
X158641Y-116049
X163410Y-61400
X163410Y-78400
X163410Y-95400
X172682Y-122841
X177330Y-112871
T10
X62916Y-74154
X62916Y-91154
X62916Y-108154
X67916Y-76354
X67916Y-93354
X67916Y-110354
X72916Y-74154
X72916Y-91154
X72916Y-108154
X80910Y-74150
X80910Y-91150
X80910Y-108150
X85910Y-76350
X85910Y-93350
X85910Y-110350
X90910Y-74150
X90910Y-91150
X90910Y-108150
X98910Y-62150
X98910Y-79150
X98910Y-96150
X103910Y-64350
X103910Y-81350
X103910Y-98350
X108910Y-62150
X108910Y-79150
X108910Y-96150
X116910Y-56150
X116910Y-73150
X116910Y-90150
X121910Y-58350
X121910Y-75350
X121910Y-92350
X126910Y-56150
X126910Y-73150
X126910Y-90150
X127534Y-112270
X132323Y-109643
X134910Y-62770
X134910Y-79770
X134910Y-96775
X137496Y-111398
X139910Y-64970
X139910Y-81970
X139910Y-98975
X144910Y-62770
X144910Y-79770
X144910Y-96775
X148508Y-111398
X152910Y-65150
X152910Y-82150
X152910Y-99150
X153681Y-109643
X157910Y-67350
X157910Y-84350
X157910Y-101350
X158470Y-112270
X162910Y-65150
X162910Y-82150
X162910Y-99150
X169494Y-120803
X169613Y-115341
X173720Y-111740
T11
X67916Y-70404
X67916Y-87404
X67916Y-104404
X85910Y-70400
X85910Y-87400
X85910Y-104400
X103910Y-58400
X103910Y-75400
X103910Y-92400
X121910Y-52400
X121910Y-69400
X121910Y-86400
X132842Y-115570
X139910Y-59020
X139910Y-76020
X139910Y-93025
X153162Y-115570
X157910Y-61400
X157910Y-78400
X157910Y-95400
X175006Y-117856
T3
G00X180313Y-98470
M15
G01X179813Y-98470
M16
G05
G00X180313Y-100920
M15
G01X179813Y-100920
M16
G05
G00X181813Y-96720
M15
G01X181313Y-96720
M16
G05
G00X181813Y-102670
M15
G01X181313Y-102670
M16
G05
G00X185813Y-96720
M15
G01X185313Y-96720
M16
G05
G00X185813Y-102670
M15
G01X185313Y-102670
M16
G05
G00X188813Y-96720
M15
G01X188313Y-96720
M16
G05
G00X188813Y-102670
M15
G01X188313Y-102670
M16
G05
T0
M30
